<?xml version="1.0" encoding="utf-8"?>
<!-- Generator: Adobe Illustrator 23.0.1, SVG Export Plug-In . SVG Version: 6.00 Build 0)  -->
<svg version="1.1" id="Layer_1" xmlns="http://www.w3.org/2000/svg" xmlns:xlink="http://www.w3.org/1999/xlink" x="0px" y="0px"
	 viewBox="0 0 500 500" style="enable-background:new 0 0 500 500;" xml:space="preserve">
<style type="text/css">
	.st0{fill:#B5E2EA;}
	.st1{fill:#DB3227;}
	.st2{fill:none;stroke:#FFFFFF;stroke-width:0.323;stroke-miterlimit:10;}
	.st3{fill:#EC6544;}
	.st4{fill:#F15B25;}
	.st5{fill:#00B8D4;}
	.st6{fill:#00B3D8;}
	.st7{fill:none;stroke:#FFFFFF;stroke-width:0.7338;stroke-miterlimit:10;}
	.st8{fill:#72BF44;}
	.st9{fill:#8BC751;}
	.st10{fill:#5CA038;}
	.st11{fill:#D0E4A4;}
	.st12{fill:none;stroke:#FFFFFF;stroke-width:0.4089;stroke-miterlimit:10;}
</style>
<g>
	<path d="M449.18,248.98l-23.72-30.55l0.02-0.01l-38.16-75.9c-2.16-4.3-6.56-7.01-11.37-7.01h-54.28v-12.72
		c0-7.03-5.7-12.72-12.72-12.72H96.92c-7.03,0-12.72,5.7-12.72,12.72s5.7,12.72,12.72,12.72h199.3v89.05
		c0,7.03,5.7,12.72,12.72,12.72h98.94l18.53,23.87v65.61h-23.99c-5.52-22.14-25.56-38.59-49.37-38.59
		c-23.82,0-43.86,16.45-49.38,38.59h-75.11c-5.51-22.14-25.56-38.59-49.38-38.59s-43.86,16.45-49.38,38.59H96.92
		c-7.03,0-12.72,5.7-12.72,12.72c0,7.03,5.7,12.72,12.72,12.72h33.11c5.81,21.71,25.64,37.74,49.16,37.74
		c23.51,0,43.34-16.03,49.15-37.74h75.55c5.81,21.71,25.64,37.74,49.15,37.74c23.52,0,43.35-16.03,49.16-37.74h36.93
		c7.03,0,12.72-5.7,12.72-12.72v-82.69C451.85,253.96,450.91,251.21,449.18,248.98z M321.66,160.95h46.43l25.58,50.89h-72.02V160.95
		z M179.18,364.49c-14.03,0-25.44-11.41-25.44-25.44c0-14.03,11.41-25.44,25.44-25.44c14.03,0,25.44,11.41,25.44,25.44
		C204.63,353.08,193.22,364.49,179.18,364.49z M353.04,364.49c-14.03,0-25.44-11.41-25.44-25.44c0-14.03,11.41-25.44,25.44-25.44
		c14.03,0,25.44,11.41,25.44,25.44C378.49,353.08,367.08,364.49,353.04,364.49z"/>
	<path d="M152.89,275.02c0-7.03-5.69-12.72-12.72-12.72H81.65c-7.03,0-12.72,5.7-12.72,12.72c0,7.03,5.7,12.72,12.72,12.72h58.52
		C147.2,287.74,152.89,282.04,152.89,275.02z"/>
	<path d="M182.15,224.98c0-7.03-5.69-12.72-12.72-12.72H60.87c-7.03,0-12.72,5.7-12.72,12.72c0,7.03,5.7,12.72,12.72,12.72h108.56
		C176.46,237.7,182.15,232.01,182.15,224.98z"/>
	<path d="M81.65,187.66h108.56c7.03,0,12.72-5.7,12.72-12.72c0-7.03-5.69-12.72-12.72-12.72H81.65c-7.03,0-12.72,5.7-12.72,12.72
		C68.93,181.97,74.63,187.66,81.65,187.66z"/>
</g>
</svg>
