<?xml version="1.0" encoding="utf-8"?>
<!-- Generator: Adobe Illustrator 23.0.1, SVG Export Plug-In . SVG Version: 6.00 Build 0)  -->
<svg version="1.1" id="Layer_1" xmlns="http://www.w3.org/2000/svg" xmlns:xlink="http://www.w3.org/1999/xlink" x="0px" y="0px"
	 viewBox="0 0 500 500" style="enable-background:new 0 0 500 500;" xml:space="preserve">
<style type="text/css">
	.st0{fill:#B5E2EA;}
	.st1{fill:#DB3227;}
	.st2{fill:none;stroke:#FFFFFF;stroke-width:0.323;stroke-miterlimit:10;}
	.st3{fill:#EC6544;}
	.st4{fill:#F15B25;}
	.st5{fill:#00B8D4;}
	.st6{fill:#00B3D8;}
	.st7{fill:none;stroke:#FFFFFF;stroke-width:0.7338;stroke-miterlimit:10;}
	.st8{fill:#72BF44;}
	.st9{fill:#8BC751;}
	.st10{fill:#5CA038;}
	.st11{fill:#D0E4A4;}
	.st12{fill:none;stroke:#FFFFFF;stroke-width:0.4089;stroke-miterlimit:10;}
</style>
<g>
	<g>
		<path d="M374.19,389.71c-21.58,0-43.16-7.3-62.09-20.49c-37.88,26.55-86.31,26.55-124.19,0c-18.94,13.2-40.52,20.49-62.09,20.49
			H94.76v31.05h31.05c21.42,0,42.54-5.43,62.09-15.37c39.12,20.03,85.07,20.03,124.19,0c19.56,10.09,40.67,15.37,62.09,15.37h31.05
			v-31.05H374.19z M125.03,358.67h0.78c24.84,0,46.88-13.66,62.09-31.05c15.21,17.39,37.26,31.05,62.09,31.05
			s46.88-13.66,62.09-31.05c15.21,17.39,37.26,31.05,62.09,31.05h0.78l29.5-103.7c1.71-5.74,0.62-16.46-10.25-19.87l-20.03-6.52
			v-71.72c0-17.08-13.97-31.05-31.05-31.05h-46.57V79.24h-93.14v46.57h-46.57c-17.08,0-31.05,13.97-31.05,31.05v71.72l-20.03,6.52
			c-9.78,2.95-12.57,13.04-10.25,19.87L125.03,358.67z M156.86,156.86h186.28v61.63L250,187.91l-93.14,30.58V156.86z"/>
	</g>
</g>
</svg>
