<?xml version="1.0" encoding="utf-8"?>
<!-- Generator: Adobe Illustrator 23.0.1, SVG Export Plug-In . SVG Version: 6.00 Build 0)  -->
<svg version="1.1" id="Layer_1" xmlns="http://www.w3.org/2000/svg" xmlns:xlink="http://www.w3.org/1999/xlink" x="0px" y="0px"
	 viewBox="0 0 500 500" style="enable-background:new 0 0 500 500;" xml:space="preserve">
<style type="text/css">
	.st0{fill:#B5E2EA;}
	.st1{fill:#DB3227;}
	.st2{fill:none;stroke:#FFFFFF;stroke-width:0.323;stroke-miterlimit:10;}
	.st3{fill:#EC6544;}
	.st4{fill:#F15B25;}
	.st5{fill:#00B8D4;}
	.st6{fill:#00B3D8;}
	.st7{fill:none;stroke:#FFFFFF;stroke-width:0.7338;stroke-miterlimit:10;}
	.st8{fill:#72BF44;}
	.st9{fill:#8BC751;}
	.st10{fill:#5CA038;}
	.st11{fill:#D0E4A4;}
	.st12{fill:none;stroke:#FFFFFF;stroke-width:0.4089;stroke-miterlimit:10;}
</style>
<g>
	<path d="M47.73,228.62c0.78-1.31,1.6-2.61,2.34-3.94c20.36-36.42,32.43-59.89,52.81-96.3c1.03-1.84,2.35-3.53,3.45-5.34
		c1.01-1.66,2.11-1.9,3.81-0.86c7.45,4.59,14.98,9.07,22.45,13.64c2.11,1.29,4.07,2.82,6.18,4.1c1.78,1.08,2.1,2.13,1.02,4.06
		c-5.64,10.11-7.74,14.08-13.42,24.17c-14.94,26.51-24.98,46.29-40.01,72.75c-1.32,2.33-2.97,4.48-4.25,6.83
		c-1.13,2.08-2.47,2.09-4.3,1.04c-4.23-2.42-8.55-4.67-12.72-7.18c-4.78-2.87-9.46-5.91-14.14-8.95c-1.17-0.76-2.14-1.82-3.2-2.75
		C47.73,229.47,47.73,229.05,47.73,228.62z"/>
	<path d="M295.45,360.55c-0.16,0.55-0.17,0.87-0.33,1.07c-5.01,6.42-10.78,11.68-19.49,12.03c-13.73,0.56-26.71-2.86-39.43-7.59
		c-0.38-0.14-0.72-0.4-1.29-0.73c0.71-1.36,1.23-2.76,2.07-3.94c9.59-13.48,0.95-31.68-14.06-36.05c-2.35-0.68-4.8-1.02-7.45-1.57
		c1.09-7.42-1.01-14.08-5.87-19.6c-4.76-5.42-10.74-8.91-18.67-8.65c0-1.89,0.02-3.71,0-5.52c-0.21-13.48-10.98-23.94-24.43-23.7
		c-5.85,0.1-10.69,2.4-14.37,6.97c-1.76,2.19-3.43,4.45-5.38,6.98c-3.45-8.01-8.5-14.11-16.9-16.67
		c-8.61-2.62-15.81,0.26-22.37,6.16c-5.64-6.89-11.13-13.6-16.76-20.48c17.68-31.36,35.42-62.82,53.44-94.77
		c12.41,10.14,27.58,11.32,42.67,14.05c-1.02,1.6-1.74,2.79-2.52,3.94c-5.28,7.86-10.65,15.65-15.83,23.57
		c-2.86,4.38-5.46,8.99-6.17,14.27c-0.42,3.13-0.5,6.38-0.15,9.51c0.48,4.29,5.79,8.2,10.82,8.69c12.99,1.26,24.28-3.14,34.78-10.28
		c7.94-5.39,14.33-12.35,20.06-19.96c1.33-1.77,2.84-2.92,5.07-3.44c3.43-0.8,6.79-1.89,10.13-3.01c1.45-0.49,2.6-0.36,3.97,0.32
		c34.23,17.09,66.44,37.41,96.91,60.51c9.97,7.56,19.77,15.33,29.6,23.08c1.88,1.48,3.58,3.21,5.24,4.95
		c5.82,6.09,4.95,16.24-1.73,21.39c-2.27,1.75-4.92,1.94-7.6,2.24c-4.51,0.5-8.51-0.11-12.62-2.64
		c-18.05-11.07-36.33-21.79-54.56-32.56c-2.54-1.5-5.28-2.68-8.01-3.83c-1.61-0.68-3.33-0.91-4.34,1.17
		c-1.01,2.07-0.74,3.52,1.39,4.86c11.12,7,22.24,13.98,33.43,20.86c8.9,5.48,17.89,10.82,26.86,16.18c1.08,0.65,1.63,1.37,1.56,2.68
		c-0.09,1.55,0.05,3.11,0.08,4.67c0.17,7.87-6.52,13.08-13.15,13.85c-4.74,0.55-9.06-0.26-13.23-2.64
		c-15.5-8.87-31.06-17.65-46.59-26.45c-0.8-0.45-1.61-0.89-2.42-1.31c-2.58-1.34-5.45-0.24-6.38,2.55
		c-0.64,1.92,0.73,3.08,2.07,3.97c2.7,1.81,5.46,3.52,8.26,5.17c11.98,7.06,24,14.06,35.98,21.13c1.94,1.15,3.77,2.49,5.59,3.83
		c2.04,1.51,2.77,3.49,1.87,5.97c-0.26,0.73-0.4,1.5-0.64,2.24c-2.18,6.6-6.54,9.78-13.53,10.17c-4.67,0.26-8.97-0.96-13.1-2.88
		c-10.81-5.02-21.57-10.16-32.36-15.22c-2.17-1.02-4.38-1.96-6.62-2.79c-2.56-0.94-4.23-0.23-5.22,2.02
		c-0.96,2.16-0.41,3.75,2.03,4.98c10.57,5.37,21.18,10.66,31.76,16C290.16,357.67,292.79,359.14,295.45,360.55z"/>
	<path d="M409.66,246.99c-8.27,8.36-16.19,17.04-26.68,22.77c-1.29,0.7-2.09,0.76-3.31-0.24c-24.84-20.35-50.76-39.25-77.89-56.43
		c-16.82-10.65-34.28-20.22-52.16-29c-2.67-1.31-5.19-1.7-8.1-0.7c-5.53,1.9-11.17,3.45-16.72,5.29c-0.89,0.29-1.74,1.18-2.27,2.01
		c-6.34,9.79-14.57,17.61-24.52,23.64c-6.48,3.92-13.57,5.85-21.12,6.06c-1.11,0.03-2.27-0.16-3.34-0.46
		c-1.72-0.48-2.61-1.56-2.72-3.52c-0.26-4.81,0.57-9.22,3.39-13.25c10.16-14.52,20.23-29.11,30.38-43.64
		c1.7-2.44,4.17-3.92,6.99-4.92c7.84-2.77,16.01-3.94,24.19-5.01c14.62-1.92,29.32-2.15,44.03-1.76
		c10.29,0.27,20.31,2.34,30.34,4.41c8.21,1.7,16.46,3.2,24.73,4.62c5.75,0.99,11.39-0.17,16.99-1.45c5.38-1.23,5.4-1.22,8.09,3.52
		c16.3,28.82,32.59,57.64,48.88,86.46C409.1,245.86,409.34,246.37,409.66,246.99z"/>
	<path d="M391.04,123.95c0.79-0.48,1.83-0.29,2.44,0.4c0.18,0.21,0.35,0.43,0.5,0.67c3.81,6.28,7.75,12.48,11.35,18.88
		c17.57,31.25,26.27,45.47,43.74,76.72c0.57,1.02,1.11,2.07,1.61,3.13c1.96,4.1,2.45,4.05-0.51,5.94
		c-6.96,4.45-13.98,8.81-21.03,13.1c-2.47,1.5-5.13,2.68-7.66,4.07c-1.48,0.81-2.34,0.5-3.2-1c-4.88-8.52-9.97-16.91-14.76-25.48
		c-16.93-30.25-24.99-43.41-41.84-73.7c-1.76-3.17-1.82-3.58,1.2-5.49c9.31-5.87,18.76-11.53,28.16-17.25
		C391.04,123.96,391.04,123.95,391.04,123.95z"/>
	<path d="M182.44,291.28c0.38,2.4-0.99,4.51-2.43,6.53c-5.85,8.15-11.72,16.3-17.66,24.39c-2.84,3.87-5.72,7.73-8.81,11.41
		c-5.34,6.34-12.04,6.84-18.55,1.59c-4.72-3.81-7.19-10.28-5.63-15.22c0.44-1.38,1.23-2.7,2.09-3.88
		c8.87-12.07,17.69-24.19,26.74-36.12c5.1-6.73,12.29-7.06,18.59-1.29C180.54,282.12,182.41,286.19,182.44,291.28z"/>
	<path d="M175.82,359.78c-9.4-0.3-16.31-7.58-15.87-16.38c0.65-1.76,1.63-4.4,2.28-6.16c7.64-10.35,15.43-20.59,23.22-30.83
		c2.04-2.69,5.08-2.66,7.97-2.2c7.62,1.21,13.25,7.46,13.42,15.18c0.05,2.27-0.51,4.96-1.77,6.78
		c-6.77,9.74-13.79,19.32-20.88,28.85C182.05,357.88,179.4,360.33,175.82,359.78z"/>
	<path d="M208.23,378.43c-8.31-0.04-16.29-8.69-15.56-16.58c0.14-1.48,0.7-3.1,1.55-4.31c5.11-7.19,10.26-14.35,15.61-21.36
		c2.49-3.26,6.11-3.76,9.99-2.84c7.16,1.69,13.06,9.15,12.65,16.27c-0.09,1.48-0.53,3.17-1.39,4.35
		c-5.21,7.2-10.52,14.34-15.93,21.39C213.37,377.66,210.72,378.53,208.23,378.43z"/>
	<path d="M139.01,287.41c-0.63,1.84-0.88,3.94-1.96,5.47c-3.33,4.72-6.85,9.33-10.55,13.78c-2.83,3.41-6.6,4.11-10.76,2.59
		c-6.44-2.34-10.53-6.83-11.66-13.58c-0.33-2,0.06-4.57,1.13-6.25c3.2-5.06,6.81-9.86,10.4-14.66c2.85-3.81,6.89-4.18,11.1-3.08
		C133.91,273.55,138.57,279.77,139.01,287.41z"/>
</g>
</svg>
