<?xml version="1.0" encoding="utf-8"?>
<!-- Generator: Adobe Illustrator 23.0.1, SVG Export Plug-In . SVG Version: 6.00 Build 0)  -->
<svg version="1.1" id="Layer_1" xmlns="http://www.w3.org/2000/svg" xmlns:xlink="http://www.w3.org/1999/xlink" x="0px" y="0px"
	 viewBox="0 0 500 500" style="enable-background:new 0 0 500 500;" xml:space="preserve">
<style type="text/css">
	.st0{fill:#B5E2EA;}
	.st1{fill:#DB3227;}
	.st2{fill:none;stroke:#FFFFFF;stroke-width:0.323;stroke-miterlimit:10;}
	.st3{fill:#EC6544;}
	.st4{fill:#F15B25;}
	.st5{fill:#00B8D4;}
	.st6{fill:#00B3D8;}
	.st7{fill:none;stroke:#FFFFFF;stroke-width:0.7338;stroke-miterlimit:10;}
	.st8{fill:#72BF44;}
	.st9{fill:#8BC751;}
	.st10{fill:#5CA038;}
	.st11{fill:#D0E4A4;}
	.st12{fill:none;stroke:#FFFFFF;stroke-width:0.4089;stroke-miterlimit:10;}
</style>
<path d="M399.45,116.79c-2.26-3.23-6.1-4.69-9.86-4.13c-0.14-0.03-0.29-0.1-0.43-0.12L235.42,89.98c-1.68-0.25-3.39-0.07-4.99,0.52
	l-123.15,45.14c-0.05,0.02-0.1,0.05-0.16,0.07c-0.13,0.05-0.25,0.14-0.39,0.18c-0.67,0.3-1.3,0.65-1.88,1.07
	c-0.18,0.13-0.35,0.26-0.52,0.4c-0.63,0.52-1.21,1.08-1.69,1.73c-0.03,0.04-0.07,0.06-0.1,0.1l-52,71.13
	c-1.99,2.73-2.51,6.28-1.37,9.46c1.14,3.19,3.78,5.6,7.06,6.44l45.12,11.65v111.56c0,4.48,2.93,8.45,7.22,9.76l165.22,50.48
	c0.05,0.03,0.12,0.01,0.17,0.03c0.88,0.24,1.81,0.4,2.73,0.41c0.02,0,0.05,0.01,0.07,0.01l0,0h0.01c0.97,0,1.92-0.18,2.88-0.46
	c0.3-0.1,0.58-0.22,0.88-0.35c0.4-0.15,0.8-0.26,1.19-0.46l118.55-65.79c3.24-1.8,5.25-5.22,5.25-8.92V222.61l40.1-19.25
	c2.7-1.29,4.69-3.72,5.46-6.62c0.75-2.9,0.2-5.99-1.52-8.44L399.45,116.79z M235.01,110.55l120.01,17.62l-79.61,37.02l-126.06-23.23
	L235.01,110.55z M115.24,156.41l144.45,26.62l-42.46,63.69L75.89,210.23L115.24,156.41z M121.76,341.88v-98.74l97.39,25.15
	c0.85,0.21,1.7,0.33,2.55,0.33c3.35,0,6.56-1.66,8.49-4.54l36.38-54.57v176.63L121.76,341.88z M385.12,328.13l-98.16,54.46V221.44
	l17.92,38.08c1.16,2.46,3.26,4.36,5.81,5.26c1.11,0.41,2.27,0.59,3.41,0.59c1.52,0,3.02-0.34,4.41-0.99l66.58-31.95L385.12,328.13
	L385.12,328.13z M318.98,241.53l-28.62-60.79l97.28-45.23l38.32,54.67L318.98,241.53z"/>
</svg>
