<?xml version="1.0" encoding="utf-8"?>
<!-- Generator: Adobe Illustrator 23.0.1, SVG Export Plug-In . SVG Version: 6.00 Build 0)  -->
<svg version="1.1" id="Layer_1" xmlns="http://www.w3.org/2000/svg" xmlns:xlink="http://www.w3.org/1999/xlink" x="0px" y="0px"
	 viewBox="0 0 500 500" style="enable-background:new 0 0 500 500;" xml:space="preserve">
<style type="text/css">
	.st0{fill:#B5E2EA;}
	.st1{fill:#DB3227;}
	.st2{fill:none;stroke:#FFFFFF;stroke-width:0.323;stroke-miterlimit:10;}
	.st3{fill:#EC6544;}
	.st4{fill:#F15B25;}
	.st5{fill:#00B8D4;}
	.st6{fill:#00B3D8;}
	.st7{fill:none;stroke:#FFFFFF;stroke-width:0.7338;stroke-miterlimit:10;}
	.st8{fill:#72BF44;}
	.st9{fill:#8BC751;}
	.st10{fill:#5CA038;}
	.st11{fill:#D0E4A4;}
	.st12{fill:none;stroke:#FFFFFF;stroke-width:0.4089;stroke-miterlimit:10;}
</style>
<g>
	<path d="M251.91,401.35c0-32.76,0-69.85,0-109.38c-40.59,15.98-79.47,31.3-120.36,47.4c3.92,11.99,8.31,23,10.83,34.42
		c0.89,4.01,2.8,11.05-4.4,13.59s-12.25-9.27-12.48-9.82c-19.37-47.06-19.36-47.01,27.59-65.53c31.3-12.34,62.27-25.61,93.98-36.77
		c9.06-3.19,21.15-3.18,30.21,0.02c31.02,10.95,61.32,23.97,93.44,36.83c0-27.39,0-52.86,0-79.69c-71.96,0-143.31,0-218.39,0
		c0,17.04,0.75,34.19-0.42,51.21c-0.39,5.73-0.23,16.67-8.67,16.67s-7.33-11.25-8.14-17.26c-1.36-10.06-0.4-20.43-0.39-30.67
		c0.04-33.77,2.82-36.85,39.27-40.21c0-9.52-0.06-19.44,0.01-29.36c0.21-28.01,6.15-34.06,33.66-34.4
		c4.77-0.06,9.55-0.01,17.48-0.01c0-19.97,0.58-38.98-0.19-57.94c-0.57-14.2,4.88-19.63,19.07-18.49c11.97,0.97,24.15,1.02,36.11,0
		c15.54-1.33,19.89,5.43,19.07,19.98c-1.01,17.93-0.24,35.96-0.24,54.13c16.36,6.65,39.78-6.32,47.48,14.74
		c5.52,15.1,3.3,33.04,4.55,50.04c0.54,0.46,1.37,1.79,2.31,1.89c35.09,3.54,36.06,4.62,36.06,41.01c0,18.07-0.8,36.2,0.49,54.18
		c0.39,5.46,5.38,12.92,10.27,15.25c11.32,5.38,13.12,12.22,9.24,23.16c-8.02,22.64-16.05,45.32-22.75,68.36
		c-3.19,10.97-9.11,13.36-19.55,13.23c-33.73-0.41-265.71,0.75-270.09,0c-4.3-0.74-8.2-2.16-8.15-8.36
		c0.05-6.2,8.04-18.33,20.26-18.33s32,8.68,42.94,8.68s23.24-8.68,39.32-8.68s20.63,8.68,33.77,8.68S239.26,403.7,251.91,401.35z
		 M331.22,166.94c-46.86,0-91.77,0-138.1,0c0,15.58,0,30.19,0,45.45c46.49,0,91.86,0,138.1,0
		C331.22,197.12,331.22,182.94,331.22,166.94z M280.44,91.2c-12.93,0-24.52,0-36.08,0c0,19.74,0,37.97,0,56.13
		c12.83,0,24.02,0,36.08,0C280.44,128.45,280.44,110.61,280.44,91.2z"/>
</g>
</svg>
