<?xml version="1.0" encoding="utf-8"?>
<!-- Generator: Adobe Illustrator 23.0.1, SVG Export Plug-In . SVG Version: 6.00 Build 0)  -->
<svg version="1.1" id="Layer_1" xmlns="http://www.w3.org/2000/svg" xmlns:xlink="http://www.w3.org/1999/xlink" x="0px" y="0px"
	 viewBox="0 0 500 500" style="enable-background:new 0 0 500 500;" xml:space="preserve">
<style type="text/css">
	.st0{fill:#B5E2EA;}
	.st1{fill:#DB3227;}
	.st2{fill:none;stroke:#FFFFFF;stroke-width:0.323;stroke-miterlimit:10;}
	.st3{fill:#EC6544;}
	.st4{fill:#F15B25;}
	.st5{fill:#00B8D4;}
	.st6{fill:#00B3D8;}
	.st7{fill:none;stroke:#FFFFFF;stroke-width:0.7338;stroke-miterlimit:10;}
	.st8{fill:#72BF44;}
	.st9{fill:#8BC751;}
	.st10{fill:#5CA038;}
	.st11{fill:#D0E4A4;}
	.st12{fill:none;stroke:#FFFFFF;stroke-width:0.4089;stroke-miterlimit:10;}
</style>
<g>
	<g>
		<path class="st0" d="M157.02,215.05c0,0-0.59-12.26-12.36-16.31c-11.77-4.05-63.73-20.27-63.73-20.27s-3.56-1.29-2.22,3.12
			c0,0,4.17,14,14.61,18.35c10.07,4.19,26.02,9.05,26.02,9.05l-26.04-5.81c0,0-4.81-0.98-2,3.64c2.76,4.53,5.08,9.32,10.67,11.7
			c4.29,1.83,18.35,4.52,18.35,4.52l-17.11-1.68c0,0-2.47-0.47-0.79,3.13c1.95,4.16,5.77,12.02,18.27,11.99
			c12.25-0.03,29.43-2.37,32.11-0.52c2.68,1.85,3.62,6.89,3.62,6.89s1.3,2.26,1.06-5.06L157.02,215.05z"/>
		<g>
			<g>
				<path class="st1" d="M261.93,263.91l6.85-5.84h-11.52l-2.22,2.68c-1.88-0.42-3.97-0.63-6.28-0.63
					c-11.52,0-17.81,5.29-17.81,14.77v30.56c0,9.49,6.29,14.77,17.81,14.77c11.52,0,17.81-5.29,17.81-14.77V274.9
					C266.57,270.13,264.98,266.42,261.93,263.91z M254.84,306.04c0,4.28-2.35,5.79-6.08,5.79c-3.73,0-6.08-1.51-6.08-5.79v-31.73
					c0-4.28,2.35-5.79,6.08-5.79c3.73,0,6.08,1.51,6.08,5.79V306.04z"/>
				<g>
					<g>
						<polygon class="st3" points="60.59,321.52 121.92,350.83 121.92,281.4 60.59,252.09 						"/>
					</g>
					<g>
						<polygon class="st4" points="60.59,252.09 121.92,281.4 183.25,252.09 121.92,223.55 						"/>
					</g>
					<path class="st5" d="M158.57,238.27c-2.53-1.18-5.05-2.35-7.58-3.53c-1.86-0.87-3.99-2.44-6.05-1.81
						c-3.06,0.94-6.15,3.18-8.98,4.64c-12.91,6.68-25.81,13.35-38.72,20.03c-3.57,1.85-7.15,3.7-10.72,5.55
						c-0.65,0.34-1.05,1.12-1.05,1.83c0,8.51,0,17.02,0,25.54c0,0.71,0.39,1.51,1.05,1.83c4.23,2.08,8.46,4.16,12.69,6.24
						c1.42,0.7,3.2-0.14,3.2-1.83c0-8.15,0-16.29,0-24.44c18.72-10.13,37.44-20.26,56.16-30.39c0.74-0.4,1.05-1.03,1.05-1.67
						C159.78,239.51,159.51,238.71,158.57,238.27z"/>
					<g>
						<polygon class="st1" points="183.25,252.09 121.92,281.4 121.92,350.83 151.41,336.73 151.41,336.15 151.41,316.68 
							136.59,284.21 148.85,278.57 157.81,301.22 166.77,270.32 177.97,265.17 163.14,311.28 163.14,330.75 163.14,331.13 
							183.25,321.52 						"/>
					</g>
				</g>
				<polygon class="st5" points="200.61,284.88 192.03,278.77 192.03,282.53 183.26,282.53 183.26,299.47 192.03,299.47 
					192.03,303.23 200.61,297.11 209.18,291 				"/>
			</g>
			<g>
				<path class="st1" d="M210.23,260.13c-11.52,0-17.49,5.29-17.49,14.77v1.25l11.73,8.36v-10.21c0-4.28,2.35-5.79,6.08-5.79
					c3.73,0,6.08,1.51,6.08,5.79v6.3h11.09v-5.71C227.72,265.41,221.74,260.13,210.23,260.13z"/>
				<path class="st1" d="M213.56,291l-5.92,4.22h8.98v10.83c0,4.28-2.35,5.71-6.08,5.71c-3.73,0-6.08-1.43-6.08-5.71v-8.57
					l-11.72,8.35c0.16,9.25,6.11,14.4,17.47,14.4c11.52,0,17.49-5.29,17.49-14.77v-18.64H207.7L213.56,291z"/>
			</g>
		</g>
		<path class="st0" d="M104.71,263.29c0,0,0.7-15.69-13.8-22.25c-14.51-6.56-78.77-33.4-78.77-33.4s-4.38-2.07-3.2,3.71
			c0,0,3.65,18.33,16.43,25.11c12.33,6.54,32.07,14.62,32.07,14.62l-32.48-10.5c0,0-6.01-1.82-2.98,4.4
			c2.98,6.1,5.36,12.48,12.2,16.17c5.25,2.84,22.84,7.94,22.84,7.94l-21.6-4.17c0,0-3.1-0.89-1.38,3.89
			c1.99,5.53,5.92,16,21.84,17.45c15.6,1.42,37.77,0.48,40.96,3.16c3.19,2.68,3.8,9.21,3.8,9.21s1.39,3.04,1.95-6.32L104.71,263.29z
			"/>
	</g>
	<g>
		<g>
			<path class="st6" d="M282.54,285.21v-20.65h6.17c2.08,0,3.84,0.31,5.3,0.93c1.46,0.62,2.63,1.44,3.52,2.47
				c0.89,1.03,1.54,2.18,1.95,3.45c0.41,1.27,0.62,2.55,0.62,3.84c0,1.53-0.28,2.91-0.83,4.14c-0.55,1.23-1.3,2.27-2.26,3.14
				c-0.95,0.87-2.06,1.53-3.31,1.99c-1.25,0.46-2.58,0.69-3.98,0.69H282.54z M286.61,281.28h2.41c1.03,0,1.96-0.14,2.81-0.41
				c0.84-0.27,1.57-0.67,2.17-1.19c0.61-0.52,1.08-1.18,1.4-1.98c0.33-0.79,0.49-1.71,0.49-2.73c0-1.35-0.22-2.44-0.66-3.3
				c-0.44-0.85-0.98-1.51-1.63-1.98c-0.65-0.47-1.3-0.79-1.98-0.97c-0.67-0.18-1.24-0.27-1.71-0.27h-3.31V281.28z"/>
			<path class="st6" d="M304.17,264.56h14.08v3.93h-10.01v4.4h8.86v3.93h-8.86v4.46h10.41v3.93h-14.47V264.56z"/>
			<path class="st6" d="M331.97,264.56h4.07v16.72h9.71v3.93h-13.77V264.56z"/>
			<path class="st6" d="M347.62,285.21l9.31-21.46h0.22l9.31,21.46h-4.71l-5.95-15.09l2.95-2.02l-7.13,17.11H347.62z M353.99,277.75
				h6.2l1.43,3.42h-8.89L353.99,277.75z"/>
			<path class="st6" d="M376.82,264.7h4.77l4.4,12.96l-0.65-0.28l3.84-9.57l1.88,5.58l-5.95,12.76L376.82,264.7z M387.17,264.7h4.04
				l5.08,12.54l-0.73-0.11l3.79-12.43h4.38l-7.97,21.4L387.17,264.7z"/>
			<path class="st6" d="M407.29,264.56h14.08v3.93h-10.01v4.4h8.86v3.93h-8.86v4.46h10.41v3.93h-14.47V264.56z"/>
			<path class="st6" d="M432.03,264.56c2.15,0,3.86,0.43,5.13,1.3c1.27,0.87,1.91,2.17,1.91,3.89c0,1.27-0.31,2.33-0.94,3.18
				s-1.48,1.49-2.55,1.91s-2.3,0.63-3.69,0.63l-0.65-2.19c1.7,0,3.21,0.23,4.53,0.7c1.32,0.47,2.36,1.14,3.13,2.01
				c0.77,0.87,1.15,1.91,1.15,3.13c0,1.12-0.2,2.07-0.6,2.85c-0.4,0.78-0.94,1.4-1.63,1.88c-0.68,0.48-1.45,0.82-2.31,1.04
				c-0.86,0.22-1.75,0.32-2.67,0.32h-6.87v-20.65H432.03z M432.5,273c0.8,0,1.4-0.24,1.78-0.73c0.38-0.49,0.57-1.04,0.57-1.65
				c0-0.71-0.24-1.24-0.72-1.6c-0.48-0.35-1.12-0.53-1.92-0.53h-2.19V273H432.5z M432.64,281.42c0.6,0,1.14-0.08,1.63-0.24
				c0.49-0.16,0.87-0.41,1.15-0.76c0.28-0.35,0.42-0.78,0.42-1.3c0-0.6-0.17-1.05-0.5-1.36c-0.34-0.31-0.77-0.52-1.3-0.65
				c-0.53-0.12-1.09-0.18-1.67-0.18h-2.33v4.49H432.64z"/>
			<path class="st6" d="M280.21,314.34l9.31-21.46h0.22l9.31,21.46h-4.71l-5.95-15.09l2.95-2.02l-7.13,17.11H280.21z M286.58,306.88
				h6.2l1.43,3.42h-8.89L286.58,306.88z"/>
			<path class="st6" d="M309.78,293.69h13.91v3.93h-5.02v16.72h-4.07v-16.72h-4.83V293.69z"/>
			<path class="st6" d="M331.27,306.71c0,0.65,0.2,1.28,0.59,1.88c0.39,0.6,0.91,1.08,1.56,1.46c0.65,0.37,1.35,0.56,2.12,0.56
				c0.84,0,1.59-0.19,2.24-0.56c0.65-0.37,1.17-0.86,1.56-1.46s0.58-1.22,0.58-1.88v-13.02h4.01v13.1c0,1.51-0.37,2.86-1.12,4.03
				c-0.75,1.17-1.76,2.09-3.03,2.75c-1.27,0.66-2.68,1-4.24,1c-1.53,0-2.93-0.33-4.19-1c-1.26-0.66-2.27-1.58-3.02-2.75
				c-0.75-1.17-1.12-2.51-1.12-4.03v-13.1h4.07V306.71z"/>
			<path class="st6" d="M359.85,298.69c-0.79-0.43-1.58-0.79-2.4-1.07c-0.81-0.28-1.58-0.42-2.29-0.42c-0.88,0-1.57,0.18-2.08,0.53
				c-0.5,0.36-0.76,0.89-0.76,1.6c0,0.49,0.19,0.92,0.58,1.3c0.38,0.38,0.88,0.72,1.49,1.02c0.61,0.3,1.24,0.57,1.89,0.81
				c0.6,0.22,1.19,0.49,1.78,0.8c0.59,0.31,1.12,0.69,1.58,1.15c0.47,0.46,0.84,1.03,1.12,1.71c0.28,0.68,0.42,1.52,0.42,2.51
				c0,1.05-0.27,2.02-0.81,2.92c-0.54,0.9-1.34,1.62-2.38,2.17c-1.05,0.55-2.34,0.83-3.87,0.83c-0.79,0-1.58-0.08-2.4-0.24
				s-1.61-0.4-2.4-0.73c-0.79-0.33-1.54-0.74-2.27-1.25l1.8-3.17c0.49,0.36,1.01,0.67,1.58,0.94c0.57,0.27,1.15,0.48,1.73,0.63
				c0.58,0.15,1.11,0.22,1.6,0.22s0.98-0.07,1.47-0.21c0.5-0.14,0.91-0.38,1.23-0.72c0.33-0.34,0.49-0.8,0.49-1.4
				c0-0.41-0.14-0.79-0.41-1.12c-0.27-0.34-0.64-0.65-1.09-0.93c-0.46-0.28-0.96-0.52-1.5-0.73c-0.64-0.24-1.29-0.52-1.96-0.84
				c-0.67-0.32-1.3-0.71-1.89-1.16c-0.59-0.46-1.07-1.03-1.43-1.71s-0.55-1.52-0.55-2.51c0-1.2,0.27-2.23,0.8-3.11
				c0.53-0.88,1.29-1.58,2.26-2.09c0.97-0.51,2.09-0.8,3.37-0.86c1.66,0,3.02,0.2,4.05,0.59c1.04,0.39,1.97,0.86,2.79,1.4
				L359.85,298.69z"/>
			<path class="st6" d="M374.3,314.34v-21.49h0.03l11.47,16.27l-1.74-0.39l11.45-15.88h0.06v21.49h-4.07v-12.31l0.25,2.1l-6.98,9.93
				h-0.06l-7.18-9.93l0.7-1.94v12.15H374.3z"/>
			<path class="st6" d="M398.56,314.34l9.31-21.46h0.22l9.31,21.46h-4.71l-5.95-15.09l2.95-2.02l-7.13,17.11H398.56z M404.93,306.88
				h6.2l1.43,3.42h-8.89L404.93,306.88z"/>
			<path class="st6" d="M438.9,315.18l-15.65-14.14l1.21,0.67l0.08,12.62h-4.12v-21.46h0.17l15.32,14.08l-0.9-0.39l-0.08-12.88h4.1
				v21.49H438.9z"/>
			<path class="st6" d="M443.08,304.04c0-1.42,0.27-2.77,0.81-4.04c0.54-1.27,1.29-2.4,2.26-3.38c0.96-0.98,2.08-1.75,3.35-2.31
				c1.27-0.56,2.64-0.84,4.1-0.84c1.44,0,2.8,0.28,4.07,0.84c1.27,0.56,2.4,1.33,3.38,2.31c0.98,0.98,1.75,2.11,2.3,3.38
				c0.55,1.27,0.83,2.62,0.83,4.04c0,1.46-0.28,2.82-0.83,4.1s-1.32,2.39-2.3,3.35c-0.98,0.96-2.11,1.72-3.38,2.26
				c-1.27,0.54-2.63,0.81-4.07,0.81c-1.46,0-2.82-0.27-4.1-0.81c-1.27-0.54-2.39-1.29-3.35-2.26c-0.96-0.96-1.72-2.08-2.26-3.35
				C443.35,306.87,443.08,305.5,443.08,304.04z M447.29,304.04c0,0.92,0.16,1.77,0.49,2.57c0.33,0.8,0.79,1.5,1.37,2.1
				c0.59,0.61,1.27,1.08,2.05,1.42c0.78,0.34,1.62,0.51,2.54,0.51c0.88,0,1.7-0.17,2.45-0.51c0.76-0.34,1.42-0.81,1.98-1.42
				c0.56-0.61,1-1.31,1.32-2.1c0.32-0.79,0.48-1.65,0.48-2.57c0-0.94-0.16-1.8-0.49-2.61c-0.33-0.8-0.78-1.51-1.35-2.12
				c-0.57-0.61-1.24-1.08-2.01-1.42c-0.77-0.34-1.6-0.5-2.5-0.5c-0.9,0-1.73,0.17-2.5,0.5c-0.77,0.34-1.44,0.81-2.02,1.42
				c-0.58,0.61-1.03,1.31-1.35,2.12C447.45,302.24,447.29,303.11,447.29,304.04z"/>
			<path class="st6" d="M479.27,298.69c-0.79-0.43-1.58-0.79-2.4-1.07c-0.81-0.28-1.58-0.42-2.29-0.42c-0.88,0-1.57,0.18-2.08,0.53
				c-0.5,0.36-0.76,0.89-0.76,1.6c0,0.49,0.19,0.92,0.58,1.3c0.38,0.38,0.88,0.72,1.49,1.02c0.61,0.3,1.24,0.57,1.89,0.81
				c0.6,0.22,1.19,0.49,1.78,0.8c0.59,0.31,1.12,0.69,1.58,1.15c0.47,0.46,0.84,1.03,1.12,1.71c0.28,0.68,0.42,1.52,0.42,2.51
				c0,1.05-0.27,2.02-0.81,2.92c-0.54,0.9-1.34,1.62-2.38,2.17c-1.05,0.55-2.34,0.83-3.87,0.83c-0.79,0-1.58-0.08-2.4-0.24
				s-1.61-0.4-2.4-0.73c-0.79-0.33-1.54-0.74-2.27-1.25l1.8-3.17c0.49,0.36,1.01,0.67,1.58,0.94c0.57,0.27,1.15,0.48,1.73,0.63
				c0.58,0.15,1.11,0.22,1.6,0.22s0.98-0.07,1.47-0.21c0.5-0.14,0.91-0.38,1.23-0.72c0.33-0.34,0.49-0.8,0.49-1.4
				c0-0.41-0.14-0.79-0.41-1.12c-0.27-0.34-0.64-0.65-1.09-0.93c-0.46-0.28-0.96-0.52-1.5-0.73c-0.64-0.24-1.29-0.52-1.96-0.84
				c-0.67-0.32-1.3-0.71-1.89-1.16c-0.59-0.46-1.07-1.03-1.43-1.71s-0.55-1.52-0.55-2.51c0-1.2,0.27-2.23,0.8-3.11
				c0.53-0.88,1.29-1.58,2.26-2.09c0.97-0.51,2.09-0.8,3.37-0.86c1.66,0,3.02,0.2,4.05,0.59c1.04,0.39,1.97,0.86,2.79,1.4
				L479.27,298.69z"/>
		</g>
	</g>
</g>
</svg>
