<?xml version="1.0" encoding="utf-8"?>
<!-- Generator: Adobe Illustrator 23.0.1, SVG Export Plug-In . SVG Version: 6.00 Build 0)  -->
<svg version="1.1" id="Layer_1" xmlns="http://www.w3.org/2000/svg" xmlns:xlink="http://www.w3.org/1999/xlink" x="0px" y="0px"
	 viewBox="0 0 500 500" style="enable-background:new 0 0 500 500;" xml:space="preserve">
<style type="text/css">
	.st0{fill:#B5E2EA;}
	.st1{fill:#DB3227;}
	.st2{fill:none;stroke:#FFFFFF;stroke-width:0.323;stroke-miterlimit:10;}
	.st3{fill:#EC6544;}
	.st4{fill:#F15B25;}
	.st5{fill:#00B8D4;}
	.st6{fill:#00B3D8;}
	.st7{fill:none;stroke:#FFFFFF;stroke-width:0.7338;stroke-miterlimit:10;}
	.st8{fill:#72BF44;}
	.st9{fill:#8BC751;}
	.st10{fill:#5CA038;}
	.st11{fill:#D0E4A4;}
	.st12{fill:none;stroke:#FFFFFF;stroke-width:0.4089;stroke-miterlimit:10;}
</style>
<g>
	<path d="M80.09,337.53c0-3.57,0.2-6.52-0.04-9.43c-0.42-5.05,1.07-9.39,3.45-13.84c7.68-14.34,7.66-29.1,1.35-43.99
		c-6.87-16.2-13.62-32.46-20.56-48.63c-3.12-7.26,2.61-13.27,8.61-12.78c1.53,0.13,3.09-0.07,4.62,0.05c1.52,0.12,2-0.36,1.99-1.94
		c-0.06-13.38-0.02-26.76-0.04-40.14c0-3.4,1.42-6.01,4.38-7.56c1.31-0.69,2.91-0.97,4.4-1.11c1.31-0.12,1.82-0.43,1.81-1.84
		c-0.06-6.9,0.15-13.82-0.05-20.71c-0.2-6.93,4.7-9.91,9.85-9.75c7.33,0.23,14.67,0.05,22.01,0.06c5.91,0.01,9.42,3.52,9.42,9.44
		c0,7.03,0.03,14.06-0.05,21.09c-0.02,1.39,0.51,1.69,1.72,1.67c2.59-0.04,5.18,0.07,7.77-0.04c4.49-0.19,7.49,1.89,9.41,5.82
		c1.49,3.04,3.02,6.06,4.53,9.09c5.72,11.45,11.46,22.9,17.14,34.38c0.54,1.09,1.14,1.65,2.38,1.52c0.85-0.09,1.73,0.03,2.59-0.03
		c3.36-0.22,5.99,1.14,8.07,3.68c3.2,3.91,6.27,7.94,9.6,11.73c6.41,7.31,14.4,12.03,23.98,13.93c3.18,0.63,3.19,0.59,3.19-2.63
		c0-8.02,0-16.03,0-24.05c0-4.7,2.47-7.17,7.18-7.17c6.66,0,13.32-0.03,19.98,0.05c1.47,0.02,1.73-0.5,1.72-1.82
		c-0.05-9.62-0.03-19.24-0.02-28.85c0-4.06,2.47-6.58,6.53-6.58c38.16-0.01,76.33-0.01,114.49-0.01c4.11,0,6.58,2.44,6.59,6.54
		c0.02,9.56,0.05,19.11-0.04,28.67c-0.02,1.72,0.54,2.06,2.1,2.05c6.6-0.08,13.19-0.05,19.79-0.03c4.46,0.01,6.96,2.53,6.96,6.99
		c0,8.63,0.04,17.26-0.04,25.9c-0.02,1.67,0.52,2.09,2.11,2.07c6.16-0.08,12.33-0.04,18.5-0.02c5,0.01,8.39,2.72,9.07,7.64
		c0.22,1.59-0.16,3.48-0.86,4.95c-10.31,21.68-20.72,43.32-31.1,64.97c-1.33,2.78-2.68,5.54-3.96,8.34
		c-0.56,1.22-1.24,1.54-2.61,1.16c-4.97-1.37-10.01-1.09-15.04-0.39c-0.36,0.05-0.73,0.11-1.09,0.14c-0.11,0.01-0.22-0.09-0.57-0.24
		c3.19-6.72,6.37-13.43,9.71-20.49c-1.7,0-2.97,0-4.23,0c-85.95,0-171.89,0-257.84,0c-7.46,0-14.92,0.02-22.38-0.04
		c-1.12-0.01-1.68,0.27-1.94,1.4c-1.44,6.28-4.26,12.01-6.85,17.87c-1.09,2.47-2.64,3.08-4.57,4.13c-3.55,1.93-6.93,4.19-10.33,6.37
		C82,335.67,81.3,336.47,80.09,337.53z M84.89,226.01c0.39,1.04,0.63,1.72,0.9,2.38c4.16,9.87,8.25,19.76,12.5,29.59
		c3.65,8.45,6.96,16.97,7.84,26.24c0.4,4.16,0.48,4.14,4.68,4.14c58.07,0,116.14,0,174.21,0c37.3,0,74.59-0.01,111.89,0.03
		c1.72,0,2.64-0.53,3.38-2.12c4.25-9.09,8.62-18.12,12.94-27.17c0.36-0.75,0.67-1.52,1.08-2.44c-0.68-0.07-1.1-0.14-1.51-0.14
		c-60.91,0-121.81-0.01-182.72,0c-6.12,0-12.15-0.51-18.1-2.1c-9.34-2.48-17.79-6.7-24.8-13.32c-4.46-4.21-8.26-9.11-12.44-13.62
		c-0.67-0.72-1.81-1.42-2.73-1.42c-23.92-0.07-47.83-0.05-71.75-0.05C95.27,226.01,90.29,226.01,84.89,226.01z M153.08,208.8
		c-0.02-0.35,0.03-0.55-0.05-0.69c-5.25-10.51-10.52-21.01-15.76-31.52c-0.51-1.02-1.18-1.38-2.33-1.37
		c-12.01,0.04-24.02,0.03-36.03,0.03c-2.39,0-2.39,0-2.39,2.49c0,9.67,0.05,19.34-0.04,29.01c-0.02,1.7,0.41,2.19,2.13,2.19
		c17.55-0.06,35.11-0.03,52.66-0.04C151.86,208.88,152.45,208.83,153.08,208.8z M285.43,204.39c7.03,0,14.05-0.03,21.08,0.02
		c1.27,0.01,1.73-0.34,1.72-1.67c-0.05-7.15-0.06-14.3,0-21.45c0.01-1.56-0.5-1.96-2.03-1.95c-13.93,0.06-27.86,0.06-41.78,0
		c-1.41-0.01-1.79,0.41-1.78,1.77c0.05,7.15,0.07,14.3-0.01,21.45c-0.02,1.51,0.46,1.87,1.9,1.85
		C271.5,204.34,278.46,204.38,285.43,204.39z M342.94,204.38C342.94,204.38,342.94,204.38,342.94,204.38
		c7.03,0.01,14.05-0.03,21.08,0.03c1.44,0.01,1.92-0.38,1.9-1.88c-0.08-7.09-0.07-14.18-0.01-21.27c0.01-1.44-0.39-1.93-1.88-1.92
		c-13.93,0.05-27.86,0.06-41.79,0c-1.5-0.01-1.87,0.45-1.86,1.89c0.07,7.09,0.07,14.18-0.01,21.27c-0.02,1.46,0.36,1.92,1.85,1.91
		C329.13,204.34,336.03,204.38,342.94,204.38z M314.28,239.31c6.97,0,13.93-0.03,20.9,0.03c1.4,0.01,1.84-0.44,1.82-1.8
		c-0.05-6.35-0.06-12.7-0.01-19.05c0.01-1.41-0.38-1.94-1.89-1.93c-13.87,0.05-27.75,0.05-41.62,0.01c-1.5,0-2.03,0.41-2.01,1.98
		c0.08,6.23,0.09,12.46,0,18.68c-0.03,1.65,0.48,2.13,2.09,2.12C300.47,239.27,307.37,239.31,314.28,239.31z M371.94,216.59
		c-6.84,0-13.68,0.05-20.53-0.04c-1.74-0.02-2.35,0.42-2.31,2.26c0.11,6.04,0.12,12.08,0,18.12c-0.04,1.87,0.49,2.43,2.37,2.42
		c13.81-0.07,27.61-0.06,41.42-0.01c1.41,0.01,1.82-0.45,1.81-1.8c-0.04-6.35-0.06-12.7,0.01-19.05c0.02-1.6-0.6-1.94-2.07-1.93
		C385.75,216.62,378.84,216.59,371.94,216.59z M256.76,216.59C256.76,216.59,256.76,216.59,256.76,216.59
		c-7.02-0.01-14.04,0.02-21.06-0.03c-1.41-0.01-1.95,0.39-1.93,1.88c0.07,6.34,0.07,12.69,0,19.03c-0.02,1.56,0.64,1.85,1.99,1.85
		c13.92-0.03,27.84-0.03,41.75,0.01c1.37,0,1.84-0.43,1.83-1.8c-0.05-6.34-0.07-12.69,0.01-19.03c0.02-1.61-0.61-1.95-2.07-1.94
		C270.43,216.63,263.59,216.59,256.76,216.59z M107.11,150.53C107.11,150.53,107.1,150.53,107.11,150.53
		c-0.01,2.1,0.02,4.19-0.02,6.28c-0.02,0.94,0.31,1.36,1.28,1.33c1.48-0.05,2.97,0.09,4.43-0.07c0.5-0.05,1.32-0.76,1.33-1.18
		c0.09-4.19,0.08-8.38-0.03-12.57c-0.01-0.43-0.82-1.14-1.32-1.2c-1.4-0.16-2.83,0.03-4.24-0.06c-1.09-0.07-1.44,0.37-1.43,1.37
		C107.12,146.46,107.11,148.49,107.11,150.53z"/>
	<path d="M156.38,374.08c-10.48-0.07-19.06-3.88-26.09-11.27c-2.72-2.86-5.49-5.66-8.28-8.45c-7.45-7.46-18.44-7.43-25.84,0.22
		c-5.31,5.49-10.56,11.06-15.88,16.55c-4.64,4.79-12.29,3.19-14.38-3.03c-0.98-2.92-0.65-5.82,1.54-8.13
		c6.31-6.68,12.44-13.55,19.13-19.81c6.67-6.24,15.03-8.75,24.15-8.37c9.43,0.39,17.36,4.21,23.93,10.91
		c2.59,2.64,5.15,5.31,7.71,7.98c7.92,8.28,18.68,8.43,26.8,0.34c3.19-3.18,6.22-6.51,9.49-9.6c7.78-7.37,17.07-10.46,27.74-9.44
		c8.74,0.83,15.95,4.72,22.02,10.92c2.58,2.64,5.13,5.33,7.71,7.98c7.79,8.02,18.41,8.19,26.41,0.36
		c3.44-3.36,6.65-6.95,10.17-10.23c7.65-7.11,16.77-10.03,27.15-9.04c8.16,0.78,15.14,4.08,20.92,9.89
		c2.95,2.97,5.89,5.97,8.81,8.97c4.13,4.24,9.04,6.49,15.07,6.02c4.89-0.39,8.67-2.83,12.04-6.17c4.06-4.04,7.9-8.37,12.34-11.93
		c6.96-5.58,15.18-7.64,24.09-6.82c8.5,0.79,15.72,4.26,21.68,10.35c5.56,5.68,11.13,11.36,16.64,17.09
		c3.35,3.48,3.25,8.82-0.14,12.13c-3.31,3.24-8.63,3.28-11.99-0.09c-5.36-5.36-10.65-10.79-15.9-16.27
		c-3.22-3.36-6.98-5.69-11.63-6.21c-5.99-0.67-10.97,1.6-15.15,5.77c-2.71,2.7-5.35,5.46-8.01,8.2
		c-9.64,9.93-21.31,13.16-34.64,9.99c-6.61-1.57-12.12-5.32-16.85-10.21c-3.26-3.36-6.39-6.89-9.96-9.88
		c-6.56-5.48-15.18-5.41-21.73-0.08c-3.42,2.79-6.42,6.12-9.47,9.34c-4.58,4.84-9.84,8.67-16.27,10.49
		c-10.93,3.1-21.4,1.81-30.51-5.16c-4.81-3.68-8.87-8.34-13.21-12.61c-4.26-4.2-9.23-6.57-15.3-5.83c-3.46,0.42-6.73,1.64-9.3,4.12
		c-3.94,3.81-7.71,7.8-11.69,11.58C173.14,370.93,165.17,373.9,156.38,374.08z"/>
	<path d="M115.57,240.61c3.72-0.44,7.42,2.89,7.5,7.21c0.07,4.18-3.27,7.43-7.52,7.42c-4.05-0.01-7.43-3.19-7.41-7.17
		C108.16,243.79,111.44,240.26,115.57,240.61z"/>
	<path d="M141.4,240.62c4.11-0.52,7.42,3.59,7.46,7.15c0.04,3.79-3.21,7.62-7.43,7.48c-4.11-0.13-7.34-3.16-7.35-7.17
		C134.08,243.6,136.98,240.64,141.4,240.62z"/>
	<path d="M167.33,240.62c3.94-0.4,7.42,3.12,7.44,7.23c0.03,4.22-3.25,7.4-7.54,7.39c-4.1-0.02-7.44-3.33-7.38-7.38
		C159.9,244.19,163.08,240.17,167.33,240.62z"/>
	<path d="M119.15,198.13c-3.82,0-7.64,0.03-11.46-0.01c-3.76-0.04-6.32-2.54-6.28-6.04c0.04-3.37,2.81-6.12,6.36-6.14
		c7.58-0.05,15.16-0.04,22.74,0c2.88,0.01,5.28,1.72,5.98,4.1c0.85,2.87,0.13,5.45-2.25,7c-0.97,0.63-2.27,0.99-3.43,1.03
		C126.92,198.2,123.03,198.12,119.15,198.13C119.15,198.13,119.15,198.13,119.15,198.13z"/>
</g>
</svg>
