<?xml version="1.0" encoding="utf-8"?>
<!-- Generator: Adobe Illustrator 23.0.1, SVG Export Plug-In . SVG Version: 6.00 Build 0)  -->
<svg version="1.1" id="Layer_1" xmlns="http://www.w3.org/2000/svg" xmlns:xlink="http://www.w3.org/1999/xlink" x="0px" y="0px"
	 viewBox="0 0 500 500" style="enable-background:new 0 0 500 500;" xml:space="preserve">
<style type="text/css">
	.st0{fill:#B5E2EA;}
	.st1{fill:#DB3227;}
	.st2{fill:none;stroke:#FFFFFF;stroke-width:0.323;stroke-miterlimit:10;}
	.st3{fill:#EC6544;}
	.st4{fill:#F15B25;}
	.st5{fill:#00B8D4;}
	.st6{fill:#00B3D8;}
	.st7{fill:none;stroke:#FFFFFF;stroke-width:0.7338;stroke-miterlimit:10;}
	.st8{fill:#72BF44;}
	.st9{fill:#8BC751;}
	.st10{fill:#5CA038;}
	.st11{fill:#D0E4A4;}
	.st12{fill:none;stroke:#FFFFFF;stroke-width:0.4089;stroke-miterlimit:10;}
</style>
<g>
	<g>
		<path class="st0" d="M388.66,137.52c0,0-1.35-27.86-28.08-37.06C333.85,91.26,215.8,54.4,215.8,54.4s-8.09-2.94-5.05,7.08
			c0,0,9.47,31.81,33.19,41.68c22.88,9.52,59.11,20.57,59.11,20.57l-59.17-13.2c0,0-10.93-2.22-4.54,8.27
			c6.27,10.29,11.54,21.18,24.24,26.58c9.75,4.15,41.69,10.28,41.69,10.28l-38.88-3.82c0,0-5.62-1.06-1.8,7.1
			c4.42,9.45,13.11,27.31,41.5,27.25c27.82-0.07,66.85-5.38,72.94-1.17c6.09,4.2,8.23,15.65,8.23,15.65s2.96,5.14,2.4-11.49
			L388.66,137.52z"/>
		<g>
			<g>
				<g>
					<g>
						<polygon class="st8" points="169.59,379.4 308.91,446 308.91,288.27 169.59,221.68 						"/>
					</g>
					<g>
						<polygon class="st9" points="169.59,221.68 308.91,288.27 448.24,221.68 308.91,156.83 						"/>
					</g>
					<path class="st5" d="M392.17,190.28c-5.74-2.67-11.48-5.34-17.21-8.01c-4.23-1.97-9.07-5.55-13.75-4.1
						c-6.94,2.14-13.98,7.23-20.39,10.55c-29.32,15.17-58.64,30.34-87.97,45.51c-8.12,4.2-16.24,8.4-24.36,12.6
						c-1.49,0.77-2.39,2.54-2.39,4.17c0,19.34,0,38.68,0,58.02c0,1.6,0.9,3.43,2.39,4.17c9.61,4.72,19.23,9.44,28.84,14.17
						c3.21,1.58,7.26-0.31,7.26-4.17c0-18.51,0-37.02,0-55.52c42.53-23.01,85.06-46.02,127.59-69.04c1.69-0.91,2.39-2.34,2.39-3.78
						C394.93,193.1,394.32,191.28,392.17,190.28z"/>
					<g>
						<polygon class="st10" points="448.24,221.68 308.91,288.27 308.91,446 448.24,379.4 						"/>
					</g>
				</g>
			</g>
		</g>
		<path class="st0" d="M269.81,247.11c0,0,1.6-35.65-31.36-50.54c-32.96-14.89-178.96-75.88-178.96-75.88s-9.95-4.7-7.27,8.42
			c0,0,8.29,41.65,37.32,57.04c28.02,14.85,72.85,33.22,72.85,33.22l-73.8-23.85c0,0-13.66-4.13-6.77,9.99
			c6.77,13.86,12.19,28.35,27.71,36.74c11.92,6.45,51.88,18.05,51.88,18.05l-49.07-9.48c0,0-7.03-2.02-3.14,8.84
			c4.51,12.57,13.46,36.35,49.63,39.64c35.45,3.22,85.8,1.09,93.05,7.17s8.63,20.91,8.63,20.91s3.16,6.9,4.42-14.36L269.81,247.11z"
			/>
	</g>
	<g>
		<path class="st11" d="M321.19,394.29c1.43-0.03,2.76,0.04,4.15-0.1c2.25-0.23,4.6-1.05,7-2.27c15.38-7.82,26.87-13.64,42.25-21.45
			c1.12-0.57,1.12-0.57,1.12,0.63c0,8.13-0.01,16.27,0.01,24.38c0,0.74-0.19,1.06-0.87,1.41c-10.94,5.59-17.98,9.27-28.92,14.78
			c-3.8,1.92-7.14,1.91-10.09,0.83c-2.43-0.89-4.31-2.58-5.78-4.82c-2.78-4.21-5.56-8.43-8.34-12.65
			C321.57,394.78,321.38,394.55,321.19,394.29z"/>
		<path class="st11" d="M393.43,263.54c-0.98,1.18-1.8,2.14-2.59,3.14c-2.86,3.61-4.87,7.59-6.62,11.71
			c-4.39,10.31-8.83,20.6-13.24,30.91c-3.13,7.31-4.31,9.93-7.44,17.24c-0.3,0.7-0.61,1.39-0.95,2.16
			c-1.19-0.16-2.33-0.31-3.46-0.47c-5.57-0.78-11.13-1.58-16.71-2.34c-0.49-0.07-0.59-0.22-0.27-0.97
			c4.78-11.17,7.57-17.65,12.34-28.81c1.09-2.56,2.12-5.15,3.4-7.66c2.47-4.81,5.85-8.65,9.77-11.78c2.48-1.98,5-3.41,7.55-4.6
			c5.43-2.52,10.86-5.08,16.29-7.62C392.07,264.18,392.66,263.9,393.43,263.54z"/>
		<path class="st11" d="M429.18,360.61c0.07-3.45-0.46-6.41-1.68-8.82c-0.91-1.8-2.05-3.37-3.14-4.98
			c-3.17-4.68-6.38-9.32-9.56-13.98c-3.64-5.34-5.74-8.6-9.38-13.93c-0.27-0.39-0.25-0.62,0.26-1.2
			c6.69-7.5,13.37-15.01,20.04-22.53c0.43-0.49,0.57-0.42,0.77-0.13c1.55,2.26,1.58,2.41,3.14,4.65
			c3.76,5.42,7.54,10.82,11.28,16.27c1.76,2.57,2.2,6.12,1.79,10.22c-0.4,4.06-1.76,8.24-3.65,12.46
			c-3.19,7.13-6.37,14.26-9.56,21.38C429.4,360.22,429.28,360.42,429.18,360.61z"/>
		<path class="st11" d="M422.66,270.57c-0.32,0.93-0.59,1.72-0.87,2.51c-3.19,9.05-6.4,18.1-9.56,27.15
			c-0.31,0.9-0.7,1.04-1.28,1.25c-5.52,2.02-11.04,4.07-16.56,6.11c-2.49,0.92-4.97,1.83-7.58,2.79c0.17-0.27,0.26-0.44,0.38-0.58
			c2.05-2.37,4.09-4.75,6.16-7.09c0.54-0.61,0.52-0.87,0.23-1.26c-3.3-4.5-6.57-9.04-9.86-13.54c-0.24-0.33-0.24-0.68-0.03-1.26
			c1.55-4.32,3.31-8.61,5.56-12.82c1.43-2.67,3.01-5.26,5.1-7.45c2.1-2.21,4.25-3.31,6.39-3.48c2.58-0.2,4.49,0.84,5.84,2.76
			c2.78,3.96,5.52,7.97,8.26,11.97c0.28,0.41,0.49,0.46,1.07-0.16c2.1-2.24,4.23-4.43,6.36-6.63
			C422.35,270.77,422.44,270.73,422.66,270.57z"/>
		<path class="st11" d="M358.65,359.05c-2.36-0.2-4.56-0.36-6.72-0.58c-0.48-0.05-0.69,0.09-0.97,0.79
			c-3.18,7.92-6.39,15.85-9.58,23.77c-0.23,0.57-0.51,0.91-0.99,1.21c-4.13,2.57-8.26,4.7-12.33,5.84
			c-1.39,0.39-2.78,0.58-4.05,0.53c-2.85-0.11-4.14-2.18-4.27-5.53c-0.12-3,0.91-6.21,2.31-9.51c2.68-6.34,5.29-12.69,7.95-19.03
			c0.26-0.62,0.08-0.73-0.26-0.8c-1.91-0.4-3.82-0.81-5.72-1.22c-0.15-0.03-0.29-0.1-0.57-0.19c0.97-0.62,1.76-1.12,2.55-1.61
			c3.53-2.19,7.06-4.37,10.59-6.55c3.86-2.4,7.73-4.8,11.59-7.17c0.21-0.13,0.57-0.09,0.65,0.08c1.94,3.88,3.85,7.79,5.77,11.69
			c1.25,2.53,2.49,5.06,3.74,7.6C358.41,358.52,358.49,358.7,358.65,359.05z"/>
		<path class="st11" d="M397.06,393.88c-0.35-0.35-0.65-0.65-0.94-0.95c-4.39-4.67-8.78-9.34-13.18-14
			c-0.26-0.27-0.22-0.53,0.04-1.04c4.3-8.32,8.58-16.64,12.87-24.96c0.65-1.27,1.3-2.55,1.95-3.82c0.05-0.09,0.14-0.17,0.32-0.38
			c0,0.43,0,0.75,0,1.08c0.02,2.44,0.06,4.88,0.06,7.34c0,0.54,0.18,0.56,0.64,0.33c6.63-3.41,13.25-6.82,19.88-10.2
			c0.27-0.14,0.65-0.19,0.79-0.04c2.34,2.46,4.4,5.23,5.67,8.84c0.39,1.12,0.66,2.37,0.83,3.66c0.45,3.58-1,7.21-3.87,10.73
			c-1.89,2.31-4.02,4.02-6.26,5.15c-5.84,2.95-11.68,5.85-17.52,8.75c-0.47,0.23-0.55,0.46-0.58,0.93
			c-0.16,2.68-0.35,5.37-0.54,8.06C397.2,393.48,397.14,393.62,397.06,393.88z"/>
	</g>
</g>
</svg>
