<?xml version="1.0" encoding="utf-8"?>
<!-- Generator: Adobe Illustrator 23.0.1, SVG Export Plug-In . SVG Version: 6.00 Build 0)  -->
<svg version="1.1" id="Layer_1" xmlns="http://www.w3.org/2000/svg" xmlns:xlink="http://www.w3.org/1999/xlink" x="0px" y="0px"
	 viewBox="0 0 500 500" style="enable-background:new 0 0 500 500;" xml:space="preserve">
<style type="text/css">
	.st0{fill:#B5E2EA;}
	.st1{fill:#DB3227;}
	.st2{fill:none;stroke:#FFFFFF;stroke-width:0.323;stroke-miterlimit:10;}
	.st3{fill:#EC6544;}
	.st4{fill:#F15B25;}
	.st5{fill:#00B8D4;}
	.st6{fill:#00B3D8;}
	.st7{fill:none;stroke:#FFFFFF;stroke-width:0.7338;stroke-miterlimit:10;}
	.st8{fill:#72BF44;}
	.st9{fill:#8BC751;}
	.st10{fill:#5CA038;}
	.st11{fill:#D0E4A4;}
	.st12{fill:none;stroke:#FFFFFF;stroke-width:0.4089;stroke-miterlimit:10;}
</style>
<g>
	<g>
		<path class="st0" d="M252.15,164.87c0,0-0.75-15.52-15.64-20.65c-14.89-5.13-80.67-25.66-80.67-25.66s-4.5-1.64-2.81,3.95
			c0,0,5.28,17.73,18.49,23.22c12.75,5.31,32.93,11.46,32.93,11.46l-32.97-7.36c0,0-6.09-1.24-2.53,4.61
			c3.49,5.74,6.43,11.8,13.5,14.81c5.43,2.31,23.23,5.73,23.23,5.73l-21.66-2.13c0,0-3.13-0.59-1,3.96
			c2.46,5.27,7.31,15.22,23.12,15.18c15.5-0.04,37.25-3,40.64-0.65c3.39,2.34,4.59,8.72,4.59,8.72s1.65,2.87,1.34-6.4L252.15,164.87
			z"/>
		<g>
			<g>
				<path class="st1" d="M384.95,226.72l8.67-7.39h-14.58l-2.81,3.39c-2.38-0.53-5.03-0.8-7.95-0.8c-14.58,0-22.54,6.69-22.54,18.7
					v38.68c0,12.01,7.96,18.7,22.54,18.7s22.54-6.69,22.54-18.7v-38.68C390.83,234.59,388.81,229.89,384.95,226.72z M375.98,280.05
					c0,5.42-2.97,7.33-7.69,7.33c-4.72,0-7.69-1.91-7.69-7.33v-40.17c0-5.42,2.97-7.33,7.69-7.33c4.72,0,7.69,1.91,7.69,7.33V280.05
					z"/>
				<g>
					<g>
						<polygon class="st3" points="130.09,299.64 207.72,336.74 207.72,248.86 130.09,211.76 						"/>
					</g>
					<g>
						<polygon class="st4" points="130.09,211.76 207.72,248.86 285.35,211.76 207.72,175.63 						"/>
					</g>
					<path class="st5" d="M254.11,194.26c-3.2-1.49-6.39-2.98-9.59-4.46c-2.35-1.1-5.05-3.09-7.66-2.29
						c-3.87,1.19-7.79,4.03-11.36,5.88c-16.34,8.45-32.67,16.9-49.01,25.36c-4.52,2.34-9.05,4.68-13.57,7.02
						c-0.83,0.43-1.33,1.41-1.33,2.32c0,10.77,0,21.55,0,32.32c0,0.89,0.5,1.91,1.33,2.32c5.36,2.63,10.71,5.26,16.07,7.89
						c1.79,0.88,4.05-0.17,4.05-2.32c0-10.31,0-20.62,0-30.94c23.7-12.82,47.39-25.64,71.09-38.46c0.94-0.51,1.33-1.3,1.33-2.11
						C255.65,195.84,255.3,194.82,254.11,194.26z"/>
					<g>
						<polygon class="st1" points="285.35,211.76 207.72,248.86 207.72,336.74 245.05,318.9 245.05,318.16 245.05,293.51 
							226.29,252.41 241.81,245.27 253.15,273.95 264.49,234.83 278.66,228.31 259.9,286.67 259.9,311.33 259.9,311.8 
							285.35,299.64 						"/>
					</g>
				</g>
				<polygon class="st5" points="307.32,253.27 296.46,245.53 296.46,250.29 285.36,250.29 285.36,271.73 296.46,271.73 
					296.46,276.49 307.32,268.75 318.18,261.01 				"/>
			</g>
			<g>
				<path class="st1" d="M319.5,221.93c-14.58,0-22.14,6.69-22.14,18.7v1.59l14.85,10.59v-12.92c0-5.42,2.97-7.33,7.69-7.33
					c4.72,0,7.69,1.91,7.69,7.33v7.97h14.04v-7.23C341.64,228.62,334.08,221.93,319.5,221.93z"/>
				<path class="st1" d="M323.72,261.01l-7.49,5.34h11.37v13.71c0,5.42-2.97,7.23-7.69,7.23c-4.72,0-7.69-1.81-7.69-7.23v-10.84
					l-14.83,10.57c0.2,11.7,7.74,18.23,22.12,18.23c14.58,0,22.14-6.69,22.14-18.7v-23.59H316.3L323.72,261.01z"/>
			</g>
		</g>
		<path class="st0" d="M185.93,225.93c0,0,0.89-19.86-17.47-28.16c-18.36-8.3-99.71-42.28-99.71-42.28s-5.54-2.62-4.05,4.69
			c0,0,4.62,23.21,20.8,31.78c15.61,8.27,40.59,18.51,40.59,18.51l-41.12-13.29c0,0-7.61-2.3-3.77,5.57
			c3.77,7.72,6.79,15.79,15.44,20.47c6.64,3.59,28.91,10.06,28.91,10.06L98.2,228c0,0-3.92-1.12-1.75,4.92
			c2.51,7,7.5,20.25,27.65,22.09c19.75,1.8,47.8,0.61,51.85,4c4.04,3.39,4.81,11.65,4.81,11.65s1.76,3.85,2.46-8L185.93,225.93z"/>
	</g>
	<g>
		<path class="st6" d="M88.53,377.49v-19.38h5.79c1.95,0,3.61,0.29,4.98,0.87c1.37,0.58,2.47,1.35,3.3,2.32
			c0.83,0.97,1.44,2.05,1.83,3.24c0.39,1.19,0.58,2.4,0.58,3.61c0,1.44-0.26,2.73-0.78,3.88c-0.52,1.15-1.22,2.13-2.12,2.95
			c-0.9,0.82-1.93,1.44-3.11,1.87c-1.18,0.43-2.42,0.64-3.74,0.64H88.53z M92.35,373.8h2.27c0.97,0,1.84-0.13,2.63-0.38
			c0.79-0.25,1.47-0.63,2.04-1.12c0.57-0.49,1.01-1.11,1.32-1.86c0.31-0.75,0.46-1.6,0.46-2.57c0-1.26-0.21-2.29-0.62-3.09
			c-0.41-0.8-0.92-1.42-1.53-1.86c-0.61-0.44-1.22-0.74-1.86-0.91c-0.63-0.17-1.17-0.25-1.61-0.25h-3.11V373.8z"/>
		<path class="st6" d="M108.83,358.11h13.22v3.69h-9.4v4.13h8.32v3.69h-8.32v4.19h9.77v3.69h-13.59V358.11z"/>
		<path class="st6" d="M134.93,358.11h3.82v15.7h9.11v3.69h-12.93V358.11z"/>
		<path class="st6" d="M149.62,377.49l8.74-20.15h0.21l8.74,20.15h-4.42l-5.58-14.17l2.77-1.9l-6.69,16.06H149.62z M155.6,370.49
			h5.82l1.34,3.21h-8.35L155.6,370.49z"/>
		<path class="st6" d="M177.04,358.24h4.48l4.13,12.17l-0.61-0.26l3.61-8.98l1.76,5.24l-5.58,11.98L177.04,358.24z M186.75,358.24
			h3.79l4.77,11.77l-0.68-0.11l3.55-11.67h4.11l-7.48,20.09L186.75,358.24z"/>
		<path class="st6" d="M205.64,358.11h13.22v3.69h-9.4v4.13h8.32v3.69h-8.32v4.19h9.77v3.69h-13.59V358.11z"/>
		<path class="st6" d="M228.86,358.11c2.02,0,3.63,0.41,4.82,1.22c1.19,0.82,1.79,2.03,1.79,3.65c0,1.19-0.29,2.19-0.88,2.99
			c-0.59,0.8-1.39,1.4-2.4,1.79c-1.01,0.4-2.16,0.59-3.46,0.59l-0.61-2.05c1.6,0,3.02,0.22,4.25,0.66c1.24,0.44,2.22,1.07,2.94,1.88
			c0.72,0.82,1.08,1.8,1.08,2.94c0,1.05-0.19,1.94-0.57,2.67c-0.38,0.73-0.89,1.32-1.53,1.76c-0.64,0.45-1.37,0.77-2.17,0.97
			c-0.81,0.2-1.64,0.3-2.5,0.3h-6.45v-19.38H228.86z M229.31,366.04c0.75,0,1.31-0.23,1.67-0.68c0.36-0.46,0.54-0.97,0.54-1.55
			c0-0.67-0.22-1.17-0.67-1.5s-1.05-0.5-1.8-0.5h-2.05v4.24H229.31z M229.44,373.94c0.56,0,1.07-0.07,1.53-0.22
			c0.46-0.15,0.82-0.39,1.08-0.71c0.26-0.32,0.4-0.73,0.4-1.22c0-0.56-0.16-0.99-0.47-1.28c-0.32-0.29-0.72-0.49-1.22-0.61
			c-0.5-0.11-1.02-0.17-1.57-0.17h-2.19v4.21H229.44z"/>
		<path class="st6" d="M246.58,377.49l8.74-20.15h0.21l8.74,20.15h-4.42l-5.58-14.17l2.77-1.9l-6.69,16.06H246.58z M252.56,370.49
			h5.82l1.34,3.21h-8.35L252.56,370.49z"/>
		<path class="st6" d="M274.34,358.11h13.06v3.69h-4.71v15.7h-3.82v-15.7h-4.53V358.11z"/>
		<path class="st6" d="M294.51,370.33c0,0.61,0.19,1.2,0.55,1.76c0.37,0.56,0.86,1.02,1.46,1.37c0.61,0.35,1.27,0.53,1.99,0.53
			c0.79,0,1.49-0.17,2.11-0.53c0.61-0.35,1.1-0.81,1.46-1.37c0.36-0.56,0.54-1.15,0.54-1.76v-12.22h3.77v12.3
			c0,1.42-0.35,2.68-1.05,3.78c-0.7,1.1-1.65,1.96-2.84,2.58c-1.19,0.62-2.52,0.93-3.98,0.93c-1.44,0-2.75-0.31-3.94-0.93
			c-1.19-0.62-2.13-1.48-2.83-2.58c-0.7-1.1-1.05-2.36-1.05-3.78v-12.3h3.82V370.33z"/>
		<path class="st6" d="M321.35,362.8c-0.74-0.4-1.49-0.74-2.25-1c-0.76-0.26-1.48-0.4-2.15-0.4c-0.83,0-1.47,0.17-1.95,0.5
			c-0.47,0.33-0.71,0.83-0.71,1.5c0,0.46,0.18,0.86,0.54,1.22c0.36,0.36,0.82,0.68,1.4,0.96c0.57,0.28,1.16,0.54,1.78,0.76
			c0.56,0.21,1.12,0.46,1.67,0.75c0.55,0.29,1.05,0.65,1.49,1.08c0.44,0.43,0.79,0.97,1.05,1.61c0.26,0.64,0.39,1.43,0.39,2.36
			c0,0.98-0.25,1.9-0.76,2.74c-0.51,0.84-1.26,1.52-2.24,2.04c-0.98,0.52-2.19,0.78-3.63,0.78c-0.74,0-1.49-0.07-2.25-0.22
			c-0.76-0.15-1.51-0.38-2.25-0.68c-0.74-0.31-1.45-0.7-2.13-1.17l1.69-2.98c0.46,0.33,0.95,0.63,1.49,0.88
			c0.53,0.26,1.08,0.45,1.62,0.59c0.54,0.14,1.04,0.21,1.5,0.21s0.92-0.07,1.38-0.2c0.46-0.13,0.85-0.36,1.16-0.67
			c0.31-0.32,0.46-0.75,0.46-1.32c0-0.39-0.13-0.74-0.38-1.05c-0.25-0.32-0.6-0.61-1.03-0.87c-0.43-0.26-0.9-0.49-1.41-0.68
			c-0.6-0.23-1.21-0.49-1.84-0.79c-0.63-0.3-1.22-0.66-1.78-1.09c-0.55-0.43-1-0.97-1.34-1.61c-0.34-0.64-0.51-1.43-0.51-2.36
			c0-1.12,0.25-2.1,0.75-2.92c0.5-0.83,1.21-1.48,2.12-1.96c0.91-0.48,1.97-0.75,3.16-0.8c1.56,0,2.83,0.18,3.81,0.55
			c0.97,0.37,1.85,0.81,2.62,1.32L321.35,362.8z"/>
		<path class="st6" d="M334.91,377.49v-20.17h0.03l10.77,15.27l-1.63-0.37l10.75-14.91h0.05v20.17h-3.82v-11.56l0.24,1.98
			l-6.56,9.32h-0.05l-6.74-9.32l0.66-1.82v11.4H334.91z"/>
		<path class="st6" d="M357.69,377.49l8.74-20.15h0.21l8.74,20.15h-4.42l-5.58-14.17l2.77-1.9l-6.69,16.06H357.69z M363.67,370.49
			h5.82l1.34,3.21h-8.35L363.67,370.49z"/>
		<path class="st6" d="M395.56,378.28l-14.69-13.27l1.13,0.63l0.08,11.85h-3.87v-20.15h0.16l14.38,13.22l-0.84-0.37l-0.08-12.09
			h3.85v20.17H395.56z"/>
		<path class="st6" d="M399.48,367.83c0-1.33,0.25-2.6,0.76-3.79c0.51-1.19,1.21-2.25,2.12-3.17s1.95-1.65,3.15-2.17
			c1.19-0.53,2.48-0.79,3.85-0.79c1.35,0,2.62,0.26,3.82,0.79c1.19,0.53,2.25,1.25,3.17,2.17s1.64,1.98,2.16,3.17
			c0.52,1.19,0.78,2.46,0.78,3.79c0,1.37-0.26,2.65-0.78,3.84c-0.52,1.19-1.24,2.24-2.16,3.15c-0.92,0.9-1.98,1.61-3.17,2.12
			c-1.19,0.51-2.47,0.76-3.82,0.76c-1.37,0-2.65-0.25-3.85-0.76c-1.19-0.51-2.24-1.22-3.15-2.12c-0.9-0.9-1.61-1.95-2.12-3.15
			C399.73,370.48,399.48,369.2,399.48,367.83z M403.43,367.83c0,0.86,0.15,1.66,0.46,2.41c0.31,0.75,0.74,1.4,1.29,1.98
			c0.55,0.57,1.19,1.01,1.92,1.33c0.73,0.32,1.52,0.47,2.38,0.47c0.82,0,1.59-0.16,2.3-0.47c0.71-0.32,1.33-0.76,1.86-1.33
			c0.53-0.57,0.94-1.23,1.24-1.98c0.3-0.75,0.45-1.55,0.45-2.41c0-0.88-0.15-1.69-0.46-2.45s-0.73-1.42-1.26-1.99
			c-0.54-0.57-1.16-1.01-1.88-1.33c-0.72-0.32-1.5-0.47-2.34-0.47c-0.84,0-1.62,0.16-2.34,0.47c-0.72,0.32-1.35,0.76-1.9,1.33
			c-0.54,0.57-0.97,1.23-1.26,1.99C403.58,366.13,403.43,366.95,403.43,367.83z"/>
		<path class="st6" d="M433.45,362.8c-0.74-0.4-1.49-0.74-2.25-1c-0.76-0.26-1.48-0.4-2.15-0.4c-0.82,0-1.47,0.17-1.95,0.5
			c-0.47,0.33-0.71,0.83-0.71,1.5c0,0.46,0.18,0.86,0.54,1.22c0.36,0.36,0.83,0.68,1.4,0.96c0.57,0.28,1.16,0.54,1.78,0.76
			c0.56,0.21,1.12,0.46,1.67,0.75c0.55,0.29,1.05,0.65,1.49,1.08c0.44,0.43,0.79,0.97,1.05,1.61c0.26,0.64,0.39,1.43,0.39,2.36
			c0,0.98-0.25,1.9-0.76,2.74c-0.51,0.84-1.26,1.52-2.24,2.04c-0.98,0.52-2.19,0.78-3.63,0.78c-0.74,0-1.49-0.07-2.25-0.22
			c-0.76-0.15-1.51-0.38-2.25-0.68c-0.74-0.31-1.45-0.7-2.13-1.17l1.69-2.98c0.46,0.33,0.95,0.63,1.49,0.88
			c0.53,0.26,1.08,0.45,1.62,0.59c0.54,0.14,1.04,0.21,1.5,0.21s0.92-0.07,1.38-0.2c0.46-0.13,0.85-0.36,1.16-0.67
			c0.31-0.32,0.46-0.75,0.46-1.32c0-0.39-0.13-0.74-0.38-1.05c-0.25-0.32-0.6-0.61-1.03-0.87c-0.43-0.26-0.9-0.49-1.41-0.68
			c-0.6-0.23-1.21-0.49-1.84-0.79c-0.63-0.3-1.22-0.66-1.78-1.09c-0.55-0.43-1-0.97-1.34-1.61c-0.34-0.64-0.51-1.43-0.51-2.36
			c0-1.12,0.25-2.1,0.75-2.92c0.5-0.83,1.21-1.48,2.12-1.96c0.91-0.48,1.96-0.75,3.16-0.8c1.56,0,2.83,0.18,3.81,0.55
			c0.97,0.37,1.85,0.81,2.62,1.32L433.45,362.8z"/>
	</g>
</g>
</svg>
