<?xml version="1.0" encoding="utf-8"?>
<!-- Generator: Adobe Illustrator 23.0.1, SVG Export Plug-In . SVG Version: 6.00 Build 0)  -->
<svg version="1.1" id="Layer_1" xmlns="http://www.w3.org/2000/svg" xmlns:xlink="http://www.w3.org/1999/xlink" x="0px" y="0px"
	 viewBox="0 0 500 500" style="enable-background:new 0 0 500 500;" xml:space="preserve">
<style type="text/css">
	.st0{fill:#B5E2EA;}
	.st1{fill:#DB3227;}
	.st2{fill:none;stroke:#FFFFFF;stroke-width:0.323;stroke-miterlimit:10;}
	.st3{fill:#EC6544;}
	.st4{fill:#F15B25;}
	.st5{fill:#00B8D4;}
	.st6{fill:#00B3D8;}
	.st7{fill:none;stroke:#FFFFFF;stroke-width:0.7338;stroke-miterlimit:10;}
	.st8{fill:#72BF44;}
	.st9{fill:#8BC751;}
	.st10{fill:#5CA038;}
	.st11{fill:#D0E4A4;}
	.st12{fill:none;stroke:#FFFFFF;stroke-width:0.4089;stroke-miterlimit:10;}
</style>
<g>
	<path d="M297.78,263.36v-18.09c0-7.53-6.12-13.65-13.65-13.65h-47.54c-7.53,0-13.65,6.12-13.65,13.65v18.09
		c0,7.53,6.12,13.65,13.65,13.65h47.54C291.66,277.01,297.78,270.89,297.78,263.36z"/>
	<path d="M151.96,231.62c-7.53,0-13.65,6.12-13.65,13.65v18.09c0,7.53,6.12,13.65,13.65,13.65h47.54c7.53,0,13.65-6.12,13.65-13.65
		v-18.09c0-7.53-6.12-13.65-13.65-13.65H151.96z"/>
	<path d="M114.87,231.62H67.33c-7.53,0-13.65,6.12-13.65,13.65v18.09c0,7.53,6.12,13.65,13.65,13.65h47.54
		c7.53,0,13.65-6.12,13.65-13.65v-18.09C128.52,237.74,122.4,231.62,114.87,231.62z"/>
	<path d="M213.16,157.91v-18.09c0-7.53-6.12-13.65-13.65-13.65h-47.54c-7.53,0-13.65,6.12-13.65,13.65v18.09
		c0,7.53,6.12,13.65,13.65,13.65h47.54C207.03,171.56,213.16,165.43,213.16,157.91z"/>
	<path d="M255.47,210.63v-18.09c0-7.53-6.12-13.65-13.65-13.65h-47.54c-7.53,0-13.65,6.12-13.65,13.65v18.09
		c0,7.53,6.12,13.65,13.65,13.65h47.54C249.35,224.28,255.47,218.16,255.47,210.63z"/>
	<path d="M157.19,178.89h-47.54c-7.53,0-13.65,6.12-13.65,13.65v18.09c0,7.53,6.12,13.65,13.65,13.65h47.54
		c7.53,0,13.65-6.12,13.65-13.65v-18.09C170.84,185.02,164.72,178.89,157.19,178.89z"/>
	<path d="M40.95,303.14v15.43c0,7.18,7.26,12.81,16.52,12.81h26.4c-0.02,0.56-0.04,1.13-0.04,1.69c0,22.47,18.28,40.76,40.75,40.76
		c22.47,0,40.76-18.28,40.76-40.76c0-0.57-0.02-1.13-0.04-1.69h0.86c-0.02,0.56-0.04,1.13-0.04,1.69
		c0,22.47,18.28,40.76,40.75,40.76c22.47,0,40.76-18.28,40.76-40.76c0-0.57-0.02-1.13-0.04-1.69h89.18
		c-0.02,0.56-0.04,1.13-0.04,1.69c0,22.47,18.28,40.76,40.75,40.76c22.47,0,40.75-18.28,40.75-40.76c0-0.57-0.02-1.13-0.04-1.69
		h18.81c12.17,0,22.06-9.9,22.06-22.06v-33.27c0-18.06-47.8-107.03-53.25-117.11c-4.11-7.94-9.73-15.35-22.68-15.35H339.8
		c-0.07,0-4.17,0.05-9.19,0.05h-7.07c-6.27,0-11.74,4.26-13.3,10.35l-0.14,0.55v134.15c-0.02,0.13-0.09,0.33-0.24,0.5
		c-0.49,0.55-1.97,1.14-4.66,1.14H57.47C48.2,290.33,40.95,295.96,40.95,303.14z M357.93,333.08c0-10.79,8.75-19.54,19.54-19.54
		c10.79,0,19.54,8.75,19.54,19.54s-8.75,19.54-19.54,19.54C366.68,352.62,357.93,343.87,357.93,333.08z M335.62,166.15
		c0.3-0.32,1.23-1.29,4.18-1.29h31.94c7.69,0,13.53,0.81,18.66,11.28c2.66,5.44,14.25,33.55,21.82,55.73
		c1.02,2.99,0.89,4.75,0.46,5.35c-0.29,0.41-1.32,0.85-3.32,0.85h-65.77c-5.22,0-9.46-4.24-9.46-9.46v-41.9
		c0-1.88-0.1-3.89-0.2-5.84C333.64,175.41,333.29,168.6,335.62,166.15z M187.33,333.08c0-10.79,8.75-19.54,19.54-19.54
		c10.79,0,19.54,8.75,19.54,19.54s-8.75,19.54-19.54,19.54S187.33,343.87,187.33,333.08z M105.04,333.08
		c0-10.79,8.75-19.54,19.54-19.54s19.54,8.75,19.54,19.54s-8.75,19.54-19.54,19.54S105.04,343.87,105.04,333.08z"/>
</g>
</svg>
