<?xml version="1.0" encoding="utf-8"?>
<!-- Generator: Adobe Illustrator 23.0.1, SVG Export Plug-In . SVG Version: 6.00 Build 0)  -->
<svg version="1.1" id="Layer_1" xmlns="http://www.w3.org/2000/svg" xmlns:xlink="http://www.w3.org/1999/xlink" x="0px" y="0px"
	 viewBox="0 0 700 450" style="enable-background:new 0 0 700 450;" xml:space="preserve">
<style type="text/css">
	.st0{clip-path:url(#SVGID_2_);}
	.st1{fill:#F7941D;}
	.st2{fill:#00B3D8;}
	.st3{fill:#B6E3F0;}
	.st4{fill:#B5E2EA;}
	.st5{fill:#DB3227;}
	.st6{fill:none;stroke:#FFFFFF;stroke-width:0.3466;stroke-miterlimit:10;}
	.st7{fill:#EC6544;}
	.st8{fill:#F15B25;}
	.st9{fill:#00B8D4;}
	.st10{fill:#2B2C2B;}
	.st11{fill:#EE3776;}
	.st12{fill:#CF2663;}
	.st13{fill:#724765;}
	.st14{fill:#F2F2F2;}
	.st15{fill:#F7BA78;}
	.st16{fill:#F9C1C7;}
	.st17{fill:#4B90B4;}
	.st18{fill:#CF395F;}
	.st19{fill:#241F3C;}
	.st20{fill:#3C3764;}
	.st21{fill:#4CB3BA;}
	.st22{fill:#4C388B;}
	.st23{fill:#E08176;}
	.st24{clip-path:url(#XMLID_19_);fill:#162D54;}
	.st25{opacity:0.28;clip-path:url(#XMLID_19_);fill:#E08176;}
	.st26{opacity:0.53;clip-path:url(#XMLID_20_);fill:#B68785;}
	.st27{clip-path:url(#XMLID_21_);fill:#162D54;}
	.st28{opacity:0.28;clip-path:url(#XMLID_21_);fill:#E08176;}
	.st29{opacity:0.23;clip-path:url(#XMLID_24_);fill:#F7A7AA;}
	.st30{fill:#55344B;}
	.st31{clip-path:url(#XMLID_26_);fill:#162D54;}
	.st32{opacity:0.28;clip-path:url(#XMLID_26_);fill:#E08176;}
	.st33{opacity:0.53;clip-path:url(#XMLID_27_);fill:#B68785;}
	.st34{clip-path:url(#XMLID_28_);fill:#162D54;}
	.st35{opacity:0.28;clip-path:url(#XMLID_28_);fill:#E08176;}
	.st36{opacity:0.29;clip-path:url(#XMLID_30_);fill:#8B6F4D;}
	.st37{fill:#755438;}
	.st38{fill:#606161;}
	.st39{clip-path:url(#XMLID_32_);}
	.st40{fill:#F6F6FB;}
	.st41{clip-path:url(#XMLID_33_);fill:#4B90B4;}
	.st42{fill:#FAD475;}
	.st43{fill:#F7A8AB;}
	.st44{fill:#F9C1C6;}
	.st45{fill:#482D40;}
	.st46{opacity:0.35;clip-path:url(#XMLID_35_);fill:#4B90B4;}
	.st47{fill:#90C1E8;}
	.st48{opacity:0.29;clip-path:url(#XMLID_40_);fill:#8B6F4D;}
	.st49{fill:#491D54;}
	.st50{fill:#F8B979;}
	.st51{fill:#643B5A;}
	.st52{fill:#F6BA78;}
	.st53{opacity:0.29;clip-path:url(#XMLID_42_);fill:#8B6F4D;}
	.st54{fill:#BE2956;}
	.st55{clip-path:url(#XMLID_43_);fill:#724765;}
	.st56{opacity:0.19;clip-path:url(#XMLID_43_);fill:#724765;}
	.st57{clip-path:url(#XMLID_44_);fill:#724765;}
	.st58{clip-path:url(#XMLID_45_);fill:#F9C1C7;}
	.st59{fill:#347691;}
	.st60{fill:#FABB53;}
	.st61{fill:#51354B;}
	.st62{fill:#946F8D;}
	.st63{fill:#FFFFFF;}
	.st64{fill:#D63927;}
	.st65{clip-path:url(#SVGID_4_);fill:#72BF44;}
	.st66{clip-path:url(#SVGID_4_);}
	.st67{fill-rule:evenodd;clip-rule:evenodd;fill:#5CA038;}
	.st68{fill:#5CA038;}
	.st69{fill:#06668A;}
	.st70{fill:#F3754A;}
	.st71{fill:#0B183E;}
	.st72{fill:#66B3C6;}
	.st73{opacity:0.32;fill:#06668A;}
	.st74{opacity:0.5;}
	.st75{opacity:0.68;fill:#F47E4F;}
	.st76{fill:#F7EEE7;}
	.st77{fill:none;stroke:#FFFFFF;stroke-width:0.5357;stroke-miterlimit:10;}
	.st78{fill:#72BF44;}
	.st79{fill:#8BC751;}
	.st80{fill:#D0E4A4;}
	.st81{fill:#203064;}
	.st82{fill:#F58B6E;}
	.st83{fill:#F58662;}
	.st84{clip-path:url(#SVGID_6_);fill:#D63927;}
	.st85{clip-path:url(#SVGID_6_);fill:#F15D2C;}
	.st86{clip-path:url(#SVGID_6_);}
	.st87{fill:#BACAD3;}
	.st88{fill:url(#SVGID_7_);}
	.st89{fill:url(#SVGID_8_);}
	.st90{fill:url(#SVGID_9_);}
	.st91{fill:url(#SVGID_10_);}
	.st92{fill:url(#SVGID_11_);}
	.st93{fill:url(#SVGID_12_);}
	.st94{fill:url(#SVGID_13_);}
	.st95{fill:url(#SVGID_14_);}
	.st96{fill:url(#SVGID_15_);}
	.st97{fill:url(#SVGID_16_);}
	.st98{fill:url(#SVGID_17_);}
	.st99{fill:url(#SVGID_18_);}
	.st100{fill:url(#SVGID_19_);}
	.st101{fill:url(#SVGID_20_);}
	.st102{fill:url(#SVGID_21_);}
	.st103{fill:url(#SVGID_22_);}
</style>
<g>
	<defs>
		<rect id="SVGID_3_" width="700" height="450"/>
	</defs>
	<clipPath id="SVGID_2_">
		<use xlink:href="#SVGID_3_"  style="overflow:visible;"/>
	</clipPath>
	<rect style="clip-path:url(#SVGID_2_);fill:#72BF44;" width="700" height="450"/>
	<g class="st0">
		<g>
			<g>
				<g>
					<g>
						<path class="st67" d="M126.24-100.38c-5.81,4.94-13.31,11.13-19.07,20.76c-5.85,9.5-9.35,21.43-10.49,32.44
							c-0.59,5.3-0.68,11.08,0.22,16.88c0.79,5.34,2.01,9.74,3.66,13.76c1.64,4.02,3.72,7.4,6.21,10.7
							c2.25,3.25,5.91,6.69,4.92,14.16c11-7.07,8.89-23.9,7.18-36.32c-2.15-13.22-3.46-26.02-2.77-37.52
							c0.99,11.63,3.66,23.85,6.88,36.9c1.46,6.6,2.88,13.57,2.61,21.11c0,7.3-2.85,16.32-10.34,21.25
							c8.65,1.18,18.24-6.02,22.34-13.65c4.48-7.64,6-15.33,6.38-21.97c0.35-6.67-0.58-12.64-1.83-17.46
							c-1.2-4.35-2.7-8.67-4.63-13.18c-3.71-8.61-8.34-15.78-10.99-23.71C123.74-84.07,123.49-93.06,126.24-100.38z"/>
					</g>
				</g>
				<g>
					<g>
						<path class="st67" d="M223.18,59.17c-15.91-3.99-19.83-22.24-31.74-37.86c-6.19-7.75-15.26-16.77-31.54-19.68
							c-8.02-1.3-17.62,0.14-24.67,4.79c-7.15,4.57-11.32,11.57-12.95,18.99c11.99-9.59,29.79-9.65,40.75-2.01
							c11.38,6.81,19.6,15.64,27.99,22.78c-9.4-5.94-18.8-13.91-29.96-19.32c-11.1-5.95-24.55-4.97-35.08,3.53
							c15.26,1.96,19.3,8.35,22.1,11.28c3.5,3.25,10.43,6.82,19.13,10.58C184.21,60.05,209.24,64.55,223.18,59.17z"/>
					</g>
				</g>
				<g>
					<g>
						<path class="st67" d="M253.82,22.71c-9.94-0.67-19.53-8.83-27.12-15.38c-3.98-3.3-9.26-7-16.96-8.73
							c-7.29-1.74-18.6-1-25.48,6.84c20.63-1.1,32.98,13.6,46.87,16.68c-14.48-1.37-29.03-14.6-46.26-12.71
							c7.15,5.84,9.55,10.69,14.39,14.07c4.56,3.44,10.48,6.09,17.86,7.4C232.33,33.46,245.59,26.75,253.82,22.71z"/>
					</g>
				</g>
				<g>
					<g>
						<path class="st67" d="M255.41-2.65c-1.47-2.29-3.12-5.48-6.61-7.96c-3.42-2.5-8.14-3.78-12.19-4.06
							c-4.12-0.29-7.61,0.14-10.16,1c-2.57,0.75-4.53,2.85-10.19,3.25c7.93,7.38,19.15,1.66,27.15,2.74
							c-7.83-0.09-18.65,7.13-28.68-0.96c0.52,6.01,6.89,10.36,12.06,10.8c5.25,0.67,9.13-0.74,12.1-2.1
							C244.23-3.01,249.8-5.95,255.41-2.65z"/>
					</g>
				</g>
			</g>
			<g>
				<path class="st68" d="M249.28,584.87c-0.87-14.57-2.11-28.8-1.26-43.48c1.67-28.33,8.45-57.56,21.93-82.67
					c28.26-52.67,103.28-78.8,107.89-144.42c1.89-26.85-13.72-50.69-27.81-72.1c-17.88-27.19-33.46-55.53-36.7-88.53
					c-3.16-32.3,7.82-64,34.32-83.64c17.88-13.26,40.66-18.72,62.66-18.15c21.51,0.56,43.44,7.69,59.38,22.49
					c17.34,16.1,23.87,41.46,19.18,64.35c-5.75,28.08-30.66,51.48-57.82,58.77c-29.97,8.05-62.18-13.16-63.85-44.56
					c-0.67-12.55,4.18-24.82,12.67-33.96c1.76-1.89-1.07-4.74-2.81-2.84c-17.21,18.87-17.86,47.63-1.54,67.27
					c16.83,20.25,45.58,20.73,68.13,11.21c23.26-9.83,42.19-32.19,47.37-56.93c4.25-20.29-1.32-42.51-14.43-58.45
					c-26.1-31.73-75.98-34.61-111.98-20.93c-23.01,8.74-40.64,24.91-50.02,47.88c-12.34,30.2-6.36,65.9,4.5,95.57
					c9.83,26.86,27.89,49.08,40.19,74.68c5.72,11.91,9.06,24.69,7.87,37.94c-1.37,15.27-10.02,29.35-19.63,40.85
					c-10.02,11.99-21.68,22.34-33.65,32.33c-12.01,10.02-24.98,19.1-35.93,30.33c-21.22,21.76-33.89,48.54-41.29,77.77
					c-5.83,23.02-8.8,47.81-7.17,71.55c0.41,6.04,1.11,11.99,2.17,17.88c0,0,4.51,4.24,9.24,8.69L249.28,584.87z"/>
			</g>
			<g>
				<g>
					<path class="st68" d="M369.49,98.19c4.56-1.07,6.34,1.47,4.83,5.13c-1.44,3.8-0.05,4.76,2.58,4.79
						c-2.57-9.08,4.3-19.14,10.29-21.03c5.93-2.25,9.51,0.98,8.78,4.4c6.09-9.09,12.73-11.15,27.93-9.94
						c13.73,1.56,20.97,10.12,23.17,14.55c-6.81-2.16-14.49-3.46-22.74-3.26c-18.4,0.23-37.86,9.56-46.55,23.74
						c-7.3,2.26-14.93,3.41-17.37-1.95C357.82,109.1,364.82,99.21,369.49,98.19z M421.24,94.69c10-0.78,19.27,0.66,27.33,3.26
						c14.49,6.95,19.35,18.71,15.64,29.69c-3.88,11.39-11.95,15.21-15.63,13.68c-2.78-1.19-3.1-3.16-5.21-4.94
						c-2.6,1.27-6.18-0.02-6.96-3.59c-0.83-3.87-0.09-9.23-2.94-11.55c-3.01-2.49-7.99-0.47-8.05,3.46c-0.05,2.86,1.32,5.06,2.8,6.7
						l-0.29-0.77c-0.34-1.53,0.39-2.95,1.61-3.19c1.21-0.26,2.41,0.84,2.64,2.41c0.22,1.53-0.52,2.92-1.62,3.17
						c-0.44,0.09-0.87-0.08-1.26-0.33c-2.14-0.93-4.14-2.47-5.05-6.95c-1.07-5.01,3.17-8.02,7.3-7.69c2.3,0.19,3.82,0.74,5.64,1.94
						c1.53,1,2.66,1.99,4.11,4.27c2.06,3.21,3.11,6.73,4.05,9.49c-0.37-2.87-0.56-6.05-2.32-9.75c-0.78-1.62-2.03-2.85-3.23-3.79
						c3.61-0.05,7.06,1.93,8.77,4.95c1.89,3.17,2.74,9.37-1.06,9.06c-0.28,0.61-0.45,1.2-0.54,1.79c1,2.36,2.24,3.27,4.73,2.89
						c3.09-0.6,7.44-3.59,9.4-9.72c1.89-6.14,1.86-13.3-4.15-19.55c-5.98-6.08-14.32-9.62-26.49-7.71
						c-12.25,2.09-16.18,7.88-19.78,8.8c-3.58,1.29-6.12,1.37-7.72,1.13c3.08,4.29,3.15,8.05-0.2,11.72
						c-2.75,3-8.99,3.39-13.29-2.02c0.88,4.96-1.21,7.35-4.28,7.81c-3.83,0.51-7.67-4.44-6.33-11.96
						C387.59,104.51,404.08,95.88,421.24,94.69z"/>
				</g>
			</g>
			<g>
				<g>
					<g>
						<path class="st67" d="M430.45,256.6c-5.52,7.09-16.43,8.36-26.18,12.27c-9.25,3.7-21.77,12.33-21.3,30.93
							c11.04-13.24,25.07-19.41,34.99-27.31c-8.11,9.32-35.94,24.4-37.07,40.9c6.77-4.82,11.62-5.83,16.55-9.24
							c4.89-3.17,10.14-7.69,15.06-13.12C422.7,280.37,429.93,265.08,430.45,256.6z"/>
					</g>
					<g>
						<path class="st68" d="M426.87,260.59c2.38-3.08,4.23-6.62,5.15-10.5c0.52-2.95,0.63-6.01,0.2-9.03
							c0.66,2.98,0.79,6.07,0.48,9.14c-0.31,4.08-1.68,8.12-3.7,11.78L426.87,260.59z"/>
					</g>
					<path class="st68" d="M435.65,240.69c0.46,2.65-1.1,4.87-3.01,4.85c-1.9-0.02-3.43-1.68-3.79-3.72
						c-0.36-2.05,0.6-4.18,2.45-4.76C433.07,236.48,435.18,238.05,435.65,240.69z"/>
				</g>
			</g>
			<g>
				<g>
					<g>
						<path class="st67" d="M260.17,118.68c4.2,8.23,14.71,10.79,23.9,14.93c8.82,4.06,20.7,12.83,20.33,31.28
							c-11.14-13.06-24.93-19.78-34.21-28.61c7.56,10.36,34.05,26.08,37.48,42.14c-7.48-3.89-12.68-5.6-17.84-9.12
							c-5.14-3.37-10.32-8.11-15.2-13.9C264.25,144.11,258.81,127.04,260.17,118.68z"/>
					</g>
					<g>
						<path class="st68" d="M262.99,123.26c-1.79-3.46-2.89-7.33-3.2-11.33c-0.21-3.03,0.25-6.08,0.76-9.09
							c-0.74,2.96-1.44,5.99-1.46,9.09c-0.31,4.09,0.19,8.32,1.55,12.32L262.99,123.26z"/>
					</g>
					<path class="st68" d="M257.14,102.24c-0.57,2.56,0.65,4.84,2.6,5.06c1.86,0.2,3.67-1.34,4.15-3.46
						c0.55-2.12-0.37-4.34-2.2-4.97C259.9,98.25,257.79,99.73,257.14,102.24z"/>
				</g>
			</g>
			<g>
				<path class="st68" d="M268.23,442.51c23.25-20.28,38.19-45.93,44.23-76.32c5.64-28.37,4.35-59.34-11.69-84.24
					c-15.23-23.66-40.49-40.76-65.14-53.38c-11.97-6.13-24.62-11.31-37.42-15.41c-13.42-4.29-27.33-7-40.92-10.71
					c-18.64-5.1-37.41-11.83-52.26-24.58c-16.22-13.93-23.68-35-25.92-55.75c-4.41-40.77,16.85-84.2,48.21-109.52
					c0.13-0.11-0.05-0.34-0.18-0.24c-24.34,17.68-41.05,42.83-48.32,72.03c-6.9,27.65-3.28,62.44,13.95,85.74
					c16.78,22.7,46.08,31.53,72.15,38.28c13.3,3.45,26.74,6.34,39.69,11c13.79,4.95,26.8,11.98,39.13,19.88
					c16.14,10.33,30.33,23.01,41.69,38.49c10.68,14.56,15.06,32,15.79,49.82c0.82,20.14-2.18,39.56-8,58.83
					c-5.69,18.82-13.74,39.24-26.8,54.23C265.3,441.93,266.96,443.62,268.23,442.51L268.23,442.51z"/>
			</g>
			<g>
				<path class="st68" d="M56.42,420.31c31.98,10.6,70.06,5.09,97.33-13.51c2.23-1.52,0.13-5.17-2.1-3.64
					c-28.87,19.9-69.86,24.02-102.38,10.42L56.42,420.31z"/>
				<path class="st68" d="M5.63,372.55c-3.92-8.38-6.42-17.39-7.85-26.52c-1.7-10.92,1.07-23.01,3.23-33.7
					c4.55-22.45,16.92-42.86,33.22-58.79c27.14-26.53,68.46-37.56,105.49-38.08c10.29-0.15,20.99-0.11,31.14,1.57
					c9.73,1.61,19.19,4.69,28.43,8.1c23.96,8.84,43.55,24.67,64.52,38.69c1.48,0.99,3.14-1.22,1.89-2.43
					c-25-24.09-56.23-40.56-89.98-48.08c-15.22-3.39-29.83-6.19-45.5-6.37c-15.44-0.17-30.94,1.77-45.92,5.47
					C35.68,224.46-6.16,265.9-7.64,317.84c-0.47,16.42,2.88,34.37,8.83,49.68c0.18,0.46,0.37,0.93,0.56,1.39L5.63,372.55z"/>
			</g>
			<g>
				<g>
					<g>
						<path class="st67" d="M68.85,18.55c1.79-4.6,7.64-13.44,17.87-13.84c9.78-0.57,15.43,3.18,21.81,11.36
							c-10.22-0.73-19.9-5.95-28.31-3.89c8.46-1.78,25.64,9.71,37.36,5.2c-2.9,5.19-9.68,7.37-15.16,6.93
							C96.8,24,92.2,21.93,88.49,20.09c-3.75-1.88-6.65-3.54-10.16-3.9C74.86,15.79,71.17,17.03,68.85,18.55z"/>
					</g>
					<g>
						<path class="st68" d="M70.86,15.53c-1.91,1.83-3.78,3.98-4.91,6.38c-1.07,1.71-1.71,3.65-2.31,5.53
							c0.74-1.84,1.52-3.71,2.7-5.29c1.49-2.17,3.45-3.83,5.59-5.34L70.86,15.53z"/>
					</g>
					<path class="st68" d="M65.82,28.06c0.41-1.4,0.08-2.79-1.08-3.36c-1.08-0.53-2.71,0.29-3.19,1.88
						c-0.5,1.59,0.08,3.12,1.29,3.43C64.05,30.32,65.38,29.45,65.82,28.06z"/>
				</g>
			</g>
			<g>
				<g>
					<g>
						<path class="st67" d="M132.08,69.07c3.26-4.14,5.85-13.72,2.97-21.69c-1.2-3.91-3.09-7.23-5.41-9.64
							c-2.3-2.6-5.25-3.54-8.98-7.34c-0.14,10.1,8.41,17.8,10.46,25.74c-1.66-3.87-5.9-9.03-9.54-15.17
							c-4.24-6.01-3.75-15-0.22-19.5c-5.47,1.11-10.27,8.08-9.03,15.16c0.96,6.86,4.7,11.37,7.83,14.67
							C126.71,57.3,132.55,62.65,132.08,69.07z"/>
					</g>
					<g>
						<path class="st68" d="M133.54,65.76c-0.59,2.65-1.3,5.33-2.96,7.46c-1.01,1.75-2.57,3.07-4.03,4.38
							c1.36-1.42,2.8-2.84,3.65-4.61c1.27-2.23,1.53-4.92,1.7-7.39L133.54,65.76z"/>
					</g>
					<path class="st68" d="M125.13,75.85c1.09-0.95,2.49-1.15,3.48-0.34c0.94,0.76,0.8,2.57-0.45,3.66
						c-1.24,1.07-2.87,1.15-3.64,0.17C123.75,78.37,124.02,76.8,125.13,75.85z"/>
				</g>
			</g>
			<g>
				<g>
					<g>
						<g>
							<path class="st67" d="M95.29,341.8c5.07,8.29,12.85,20.69,22.58,29.29c4.52,4.19,8.93,7.47,13.74,9.61
								c4.86,2.29,10.42,2.83,19.21,7.05c-5.79-17.65-23.81-25.38-35.79-33.1c6.67,3.17,18.19,7.28,28.08,15.64
								c10.43,8.13,14.62,22.76,13.6,32.42c7.3-6.85,9.76-19.27,4.52-30.19c-5.06-10.96-15.04-17.47-23.76-20.69
								C119.77,345.99,104.42,347.12,95.29,341.8z"/>
						</g>
						<g>
							<path class="st68" d="M99.18,346.91c-3.62-3.13-6.91-6.64-9.62-10.51c-2.12-2.87-4.03-5.87-5.62-9.02
								c1.83,3.03,3.95,5.85,6.24,8.51c3.23,3.36,6.87,6.22,10.76,8.65L99.18,346.91z"/>
						</g>
						<path class="st68" d="M87.55,325.62c1.24,2.24,0.95,4.95-0.86,6.21c-1.82,1.27-4.67,0.3-6.12-2.29
							c-1.44-2.58-0.8-5.49,1.19-6.4C83.79,322.21,86.3,323.38,87.55,325.62z"/>
					</g>
				</g>
				<g>
					<g>
						<g>
							<path class="st67" d="M199.35,479.92c-9.42-3.47-21.05-15.75-26.15-28.69c-2.69-6.37-4.12-12.56-4.09-18.07
								c-0.32-5.66,2.45-10.15,1.1-19.86c7.59,4.85,10.69,13.94,12.68,22.17c1.98,8.37,3.24,16.55,5.51,23.67
								c-1.49-7.42-1.56-19.58-4.85-32.2c-1.73-6.22-5.21-12.59-10.57-16.49c-5.27-3.97-11.36-5.44-16.23-6.12
								c7.78-6.15,22.41-6.07,31.83,4.43c9.11,10.14,9.98,21.81,9.79,30.43c-0.32,8.95-2.09,16.5-2.56,23.39
								C195.23,469.39,196.25,475.87,199.35,479.92z"/>
						</g>
					</g>
				</g>
				<g>
					<g>
						<g>
							<path class="st67" d="M169.89,301.89c-7.16,7.12-15.88,22.51-15.48,38.2c-0.07,7.63,1.35,14.67,4.24,20.57
								c2.83,6.15,7.58,10.52,13.52,18.86c3.31-19.12-5.83-37.42-5.8-53.1c1.15,7.88,5.53,19.78,8.72,32.89
								c3.77,13.03,1.19,28.74-5.64,37.11c10.77-1.89,19.46-13.38,20.42-25.21c1.32-11.84-2.43-21.85-6.24-29.69
								c-3.93-7.96-8.32-14.4-11.08-21C169.72,314.05,168.79,307.09,169.89,301.89z"/>
						</g>
						<g>
							<path class="st68" d="M166.02,307.59c1.88-4.75,4.35-9.56,8.47-12.72c2.98-2.47,6.62-3.85,10.29-4.65
								c-3.59,1.08-7.07,2.73-9.72,5.3c-3.38,3.53-4.94,8.29-6.02,12.95L166.02,307.59z"/>
						</g>
						<path class="st68" d="M185.63,294.39c-2.47,0.63-5.02-0.26-6.11-2.31c-1.12-2.11,0.66-5.08,3.9-5.92
							c3.21-0.89,5.97,0.75,6.32,3.01C190.11,291.55,188.09,293.68,185.63,294.39z"/>
					</g>
				</g>
				<g>
					<g>
						<g>
							<path class="st67" d="M261.12,370.49c-8.09-4.34-24.28-8.87-38.59-3.18c-3.46,1.22-6.78,2.83-9.67,4.76
								c-2.42,1.61-4.84,3.48-6.82,5.54c-4.23,4.12-6.1,9.24-12.67,16.36c18.32-0.31,30.82-16.19,44.9-20.24
								c-6.88,2.99-15.44,11.11-26.12,17.95c-10.74,7.57-25.71,7.04-34.62,4.23c5.01,8.28,15.21,14.1,27.34,12.28
								c11.94-1.82,20.15-8.83,25.77-14.92c5.21-5.83,9.43-11.44,14.5-15.59C250.09,373.4,256.19,370.97,261.12,370.49z"/>
						</g>
						<g>
							<path class="st68" d="M255.02,368.6c4.71,0.4,9.46,1.33,13.81,3.05c3.39,0.96,6.55,2.65,9.56,4.38
								c-3.14-1.5-6.38-2.93-9.79-3.61c-4.49-1.02-9.07-1.2-13.6-0.89L255.02,368.6z"/>
						</g>
						<path class="st68" d="M276.29,379.39c-2.12-1.28-3.42-3.48-2.57-5.59c0.77-1.96,3.79-2.9,6.38-1.37
							c2.58,1.53,3.63,4.24,2.36,6.02C281.18,380.22,278.41,380.66,276.29,379.39z"/>
					</g>
				</g>
				<g>
					<g>
						<g>
							<path class="st67" d="M135.75,291.76c3.3,7.6-2,16.02-4.54,25.05c-1.29,4.62-2.04,9.77-0.86,15.55
								c1.18,5.55,4.34,12.68,11.56,16.79c-4.17-15.27-0.16-28.69-0.58-40.15c0.92,5.75,0.67,15.2,1,24.84
								c0.04,9.56,2.95,19.89,9.62,22.17c-2.17-7.33,0.73-9.99,0.7-15.12c0.4-4.93,0.07-11.18-1.06-17.74
								C149.72,310.09,142.61,295.74,135.75,291.76z"/>
						</g>
						<g>
							<path class="st68" d="M137.25,296.32c-1.16-3.26-3.3-6.2-6.27-8.22c-2.27-1.52-4.93-2.31-7.59-2.96
								c2.7,0.45,5.46,1.04,7.91,2.42c3.36,1.59,6.22,4.41,8.03,7.79L137.25,296.32z"/>
						</g>
						<path class="st68" d="M124.1,282.11c2.39,0.45,3.84,2.35,3.23,4.03c-0.58,1.56-2.47,2.47-4.3,2.11
							c-1.89-0.26-3.41-1.78-3.34-3.52C119.76,283.03,121.73,281.78,124.1,282.11z"/>
					</g>
				</g>
				<g>
					<g>
						<g>
							<path class="st67" d="M217.4,326.84c-6.37,1.34-15.53,8.45-19.46,17.21c-4.5,9.11-3.92,15.11-1.09,27.19
								c7.14-10.07,7.54-22.7,11.57-31.72c-1.43,4.81-2.19,12.8-4.23,21.08c-1.78,8.35-7.25,16.43-13.04,19.87
								c6.77,1.21,14.17-2.9,17.98-9.02c4-6.09,4.92-12.87,4.96-18.5C213.78,341.88,211.98,332.25,217.4,326.84z"/>
						</g>
						<g>
							<path class="st68" d="M213.49,328.77c2.49-2.19,5.46-3.66,8.52-4.52c2.27-0.79,4.64-1.16,6.99-1.46
								c-2.33,0.48-4.64,1.03-6.8,1.97c-2.84,1.29-5.38,3.12-7.3,5.41L213.49,328.77z"/>
						</g>
						<path class="st68" d="M229.23,325.46c-1.67,0.32-3.33-0.62-3.69-2.02c-0.38-1.48,0.94-2.93,2.91-3.3
							c1.97-0.22,3.64,0.81,3.73,2.3C232.27,323.92,230.95,325.28,229.23,325.46z"/>
					</g>
				</g>
				<g>
					<g>
						<g>
							<path class="st67" d="M227.27,450.64c-2.57-5.43-9.2-9.25-14.56-12.03c-4.58-2.83-11.89-6.55-14.05-19.05
								c8.98,7.13,18.35,11.02,23.42,18.38c-3.08-9.11-22.95-17.11-27.24-26.96c5.58,1.62,9.19,2.26,13.1,4.08
								c3.82,1.77,8.36,4.8,12.15,9.33C228.05,433.51,227.76,445.31,227.27,450.64z"/>
						</g>
						<g>
							<path class="st68" d="M225.53,447.39c0.97,2.5,1.65,5.11,2.19,7.79c0.16,2.04,0.49,4.09,0.45,6.16
								c0.2-2.06,0.03-4.13,0.02-6.21c-0.12-2.75-0.4-5.51-1-8.25L225.53,447.39z"/>
						</g>
					</g>
				</g>
				<g>
					<g>
						<g>
							<path class="st67" d="M248.11,401.63c-4.36-0.97-11.09-1.87-17-0.94c-6.36,0.92-9.85,3.36-15.6,9.61
								c8.39,0.13,15.83-3.93,22.23-5.8c-5.69,2.76-20.45,11.14-29.63,5.92c1.72,4.41,7.07,7.06,11.9,6.92
								c4.92-0.01,9.1-1.95,12.43-4.14C239.1,408.74,243.56,402.95,248.11,401.63z"/>
						</g>
						<g>
							<path class="st68" d="M245.18,401.35c2.16-0.3,4.44-0.34,6.53,0.3c1.59,0.29,3.14,1.06,4.38,2.04
								c-1.32-0.88-2.88-1.51-4.45-1.68c-2.09-0.3-4.2,0.07-6.2,0.67L245.18,401.35z"/>
						</g>
						<path class="st68" d="M254.98,405.14c-0.77-0.74-1.37-1.57-0.97-2.59c0.31-0.87,1.9-1.41,3.03-0.44
							c1.18,0.9,1.52,2.21,0.78,2.92C257.1,405.72,255.81,405.79,254.98,405.14z"/>
					</g>
				</g>
			</g>
			<g>
				<g>
					<path class="st67" d="M87.96,398.11c3.18-3.15,7.89-5.47,12.44-5.12c4.55,0.26,8.83,2.54,13.72,5.08
						c4.89,2.52,10.41,5.55,17.61,6.91c6.79,1.68,17.38-0.33,21.2-7.63c-7.95,5.89-17.85,3.09-24.91,0.2
						c-7.42-2.97-14.07-6.45-20.87-7.66c6.95,0.73,13.94,3.92,21.38,6.54c7.22,2.6,16.32,4.72,23.22-0.6
						c-7.24,1.09-11.32-1.31-16.57-3.35c-5.12-2.15-10.79-4.52-17-5.92c-6.11-1.39-13.2-1.78-19.02,0.74
						C93.32,389.79,90.23,394.37,87.96,398.11z"/>
				</g>
			</g>
			<g>
				<g>
					<path class="st67" d="M149.2,471.23c3.99-1.69,9.11-4.27,11.86-10.23c2.71-5.87,2.36-12.89,1.32-18.96
						c-1.06-6.16-3-11.9-4.29-16.79c-1.22-4.79-2.27-8.69,1.81-15.3c-8.07,4.26-8.93,13.87-6.64,21.35
						c1.88,7.67,4.73,14.78,5.28,21.64c-1.05-6.87-4.28-13.69-6.5-21.42c-2.74-7.27-1.97-18.44,6.8-23.17
						c-8.03,0.16-14.86,10.58-13.64,18.47c0.38,7.84,3.21,13.67,5.49,18.8c2.34,5.12,4.59,9.52,4.73,13.97
						C155.66,464.06,152.79,468.54,149.2,471.23z"/>
				</g>
			</g>
			<g>
				<g>
					<g>
						<path class="st67" d="M124.86,108.25c-0.46,9.6-10.08,15.71-16.99,24.74c-3.49,4.66-6.69,10.38-7.37,18.12
							c-0.86,7.28,1.99,18.09,10.55,22.69c-5.21-18.81,6.76-32.75,11.2-44.67c-1.65,6.52-6.43,16.47-8.8,27.24
							c-3.03,11.03,2.18,21.85,8.84,26.63c-0.89-9.06,0.39-14.04,1.56-17.72c0.99-3.87,2.02-9.68,3.3-16.85
							C130.08,134.42,129.97,115.84,124.86,108.25z"/>
					</g>
					<g>
						<path class="st68" d="M124.1,113.77c0.42-4.01-0.29-8.14-2.18-11.85c-1.47-2.8-3.67-5.13-5.96-7.33
							c2.44,2.02,4.86,4.2,6.58,6.96c2.51,3.48,4,7.83,4.21,12.25L124.1,113.77z"/>
					</g>
					<path class="st68" d="M118.44,91.97c2.11,1.84,2.46,4.57,0.9,5.9c-1.48,1.25-3.9,1.05-5.55-0.39
						c-1.74-1.38-2.36-3.79-1.27-5.48C113.59,90.35,116.29,90.25,118.44,91.97z"/>
				</g>
			</g>
			<g>
				<path class="st68" d="M385.74,439.74c-1.01-8.94-4.14-17.59-9.5-24.87c-13.94-18.93-39.24-19.5-59.09-10.71
					c-24.9,11.02-43.69,34.37-57.76,56.91c-0.01,0.02,0.02,0.03,0.03,0.02c17.47-27.57,44.77-60.06,80.03-61.83
					c15.45-0.78,28.66,8.32,36.4,21.13c4.27,7.06,6.22,15.06,6.33,23.14L385.74,439.74z"/>
				<path class="st68" d="M335.89,492.75c-5.1-0.29-10.23-1.56-15.14-3.97c-10.66-5.22-15.77-15.8-15.75-27.34
					c0.02-11.78,7.34-20.43,18.17-24.26c14.39-5.09,35.65,0.66,31.19,19.54c-2.09,8.83-10.13,13.78-18.9,11.39
					c-9.25-2.52-8.93-12.43-4.72-19.2c1.27-2.04-1.86-3.81-3.18-1.87c-4.74,6.96-6.89,15.33,0.21,21.66
					c5.48,4.89,14.01,4.76,20.1,1.28c6.5-3.71,10.16-13.63,8.77-20.77c-1.35-6.96-6.41-11.32-12.91-13.58
					c-15.02-5.21-34.69,2.57-40.14,17.83c-6.95,19.48,6.46,38.49,25.36,42.85c1.01,0.23,2.03,0.43,3.05,0.58L335.89,492.75z"/>
			</g>
			<g>
				<path class="st68" d="M313.52,395.03c36.62-14.9,53.85-57.13,90.8-71.65c12.77-5.02,38.12,2.17,34.54,19.75
					c-1.5,7.4-10.82,14.97-15.08,5.87c-0.86-1.84-3.83-0.54-3.24,1.35c1.42,4.59,3.09,8.01,8.64,8.42c4.7,0.34,8.75-3.48,11.31-6.94
					c8.63-11.69,0.84-25.42-11.17-30.38c-22.44-9.28-42.08,7.58-57.65,22.29c-18.79,17.78-34.03,40.11-58.27,51.06
					C313.28,394.85,313.38,395.09,313.52,395.03L313.52,395.03z"/>
			</g>
			<g>
				<path class="st68" d="M353.85,367.15c8.61-9.6,17.16-22.04,30.03-26.07c6.21-1.94,15.32-1.35,17.36,5.99
					c0.61,2.21,0.1,5.14-1.92,6.43c-1.56,1-3.98-0.52-5.67-0.66c-0.49-0.04-0.72,0.54-0.53,0.92c2.18,4.34,7.57,2.85,9.52-0.79
					c2.31-4.33-0.11-9.57-3.69-12.24c-6.43-4.79-16.57-0.54-22.42,3.06c-9.27,5.7-15.76,15.2-22.72,23.32
					C353.78,367.14,353.82,367.18,353.85,367.15L353.85,367.15z"/>
			</g>
			<g>
				<path class="st68" d="M330.23,389.62c10.36-12.75,22.94-25.49,37.43-33.46c3.98-2.19,12.41-4.38,12.56,2.54
					c0.11,4.8-3.11,2.87-5.79,3.57c-0.48,0.13-0.65,0.58-0.59,1.03c0.61,4.16,5.93,1.74,7.28-0.53c1.8-3.02,0.78-6.95-1.94-8.96
					c-5.78-4.3-16.19,4.23-20.26,7.16c-11.02,7.96-20.29,18.02-28.78,28.55C330.09,389.59,330.18,389.69,330.23,389.62
					L330.23,389.62z"/>
			</g>
			<g>
				<g>
					<path class="st68" d="M331.94,349.98c-0.72-5.79-3.73-8.88-10.99-11.55c6.98,11.01,2.16,26.9-6.23,39.21
						c10.9-10.41,20.42-22.89,33.5-29.13C340.76,345.77,337.04,346.8,331.94,349.98z"/>
					<path class="st68" d="M330.86,336.95c0.81-2.89,3.93-4.66,7.1-3.92c3.14,0.73,5.03,4.09,4.09,7.44
						c-1.17,3.26-4.57,4.94-7.59,3.76C331.44,343.06,329.83,339.79,330.86,336.95z"/>
					<path class="st68" d="M334.84,325.39c0.35-2.33,2.68-4.05,5.21-3.83c2.52,0.21,4.26,2.57,3.85,5.26
						c-0.36,2.7-2.78,4.39-5.31,3.81C336.18,330.07,334.54,327.73,334.84,325.39z"/>
					<path class="st68" d="M336.95,315.74c0.04-1.72,1.56-3.2,3.39-3.3c1.83-0.1,3.28,1.39,3.23,3.34c-0.05,1.95-1.56,3.42-3.39,3.3
						C338.36,318.95,336.91,317.46,336.95,315.74z"/>
				</g>
			</g>
			<g>
				<g>
					<path class="st68" d="M358.98,389.07c3.38-2.7,5.05-5.16,4.99-10.94c-7.96,7.4-18.34,11.78-27.98,17.22
						c10.3-3.3,22.77-3.62,28.26,4.05C364.19,393.71,362.86,391.01,358.98,389.07z"/>
					<path class="st68" d="M368.11,384.66c2.62,0.21,4.41,2.41,3.98,4.78c-0.42,2.29-2.44,3.96-4.52,3.79
						c-2.11-0.11-3.92-2.01-4.01-4.34C363.47,386.49,365.5,384.52,368.11,384.66z"/>
					<path class="st68" d="M378.1,387.38c1.95,0.63,2.9,2.66,2.16,4.34c-0.75,1.71-2.58,2.59-4.13,2.08
						c-1.59-0.44-2.6-2.26-2.26-4.04C374.23,387.9,376.13,386.83,378.1,387.38z"/>
					<path class="st68" d="M385.25,391.51c1.24,0.76,1.62,2.27,0.84,3.36c-0.77,1.1-2.24,1.47-3.27,0.84
						c-1.02-0.67-1.5-1.98-0.92-3.22C382.45,391.31,384.03,390.74,385.25,391.51z"/>
				</g>
			</g>
			<g>
				<g>
					<path class="st68" d="M75.16,191.28c-7.2,4.57-9.32,10.14-8.32,21.3c9.4-16.07,33.65-18.41,54.23-11.88
						c-18.99-10.71-41-16.94-57.83-29.9C64.24,182.17,67.98,186.65,75.16,191.28z"/>
					<path class="st68" d="M58.94,200.72c-4.24,0.67-8.52-2.29-9.58-6.8c-1.08-4.59,2.06-9.16,7.07-9.95
						c5.03-0.69,9.38,2.73,9.68,7.44C66.41,196.03,63.19,200.14,58.94,200.72z"/>
					<path class="st68" d="M41.44,202.84c-3.26,1.1-6.95-0.78-8.24-4.2c-1.29-3.43,0.64-7.21,4.32-8.45
						c3.74-1.06,7.48,0.95,8.35,4.53C46.72,198.25,44.75,201.91,41.44,202.84z"/>
					<path class="st68" d="M27.36,206.16c-2.31,1.05-5.12-0.04-6.28-2.41c-1.15-2.37-0.06-5.21,2.44-6.34
						c2.49-1.18,5.39,0.11,6.33,2.54C30.83,202.45,29.65,205.07,27.36,206.16z"/>
				</g>
			</g>
			<g>
				<g>
					<path class="st68" d="M10.43,345.72c-1.28-4.75,1.11-9.21,5.45-9.98c4.16-0.74,8.5,1.53,9.42,5.14
						c1.31,3.47-0.67,7.79-4.57,9.69C16.88,352.46,12.13,350.34,10.43,345.72z"/>
					<path class="st68" d="M29.58,374.01c-2.53-2.75-2.42-6.69,0.3-8.84c2.64-2.09,6.56-2,8.65,0.29c2.02,2.39,2.12,5.88-0.05,8.6
						C36.38,376.7,32.01,376.83,29.58,374.01z"/>
					<path class="st68" d="M40.1,375.41l0.53-0.74c2.94,2.35,6.07,4.52,9.41,6.4l-0.42,0.61l-0.08,0.18
						c-3.39-1.74-6.64-3.81-9.72-6.12L40.1,375.41z M21.69,352.45l1.04-0.62c1.93,3.89,4.15,7.58,6.82,11.02l-0.91,0.6l-0.57,0.48
						c-2.84-3.46-5.22-7.19-7.3-11.08L21.69,352.45z M62.38,387.36l0.08-0.3l5.13,2.06L62.38,387.36z M23.41,269.81
						c4.47,6.45,10.41-0.66,22.84-11.53c-21.49,21.4-33.17,49.28-29.2,75.24l-1.48,0.13l-1.4,0.36
						C8.67,304.21,20.94,280.07,23.41,269.81z"/>
					<path class="st68" d="M53.86,389.25c-2.61-1.15-3.65-4.22-2.39-6.57c1.28-2.41,4.08-3.36,6.42-2.33
						c2.32,1.06,3.47,3.87,2.48,6.36C59.38,389.24,56.46,390.43,53.86,389.25z"/>
				</g>
			</g>
			<g>
				<path class="st68" d="M235.24,230.42c-18.7-8.87-38.13-16.35-56.43-26.08c-19.49-10.35-37.2-23.81-39.85-47.28
					c-1.12-9.89,1.96-20.49,10.43-26.21c6.94-4.68,17.1-6.57,24.76-2.68c7.22,3.66,9.18,15.79,1.75,20.12
					c-5.91,3.44-13.74-0.8-12.2-7.8c0.6-2.69-3.54-3.81-4.14-1.11c-3.49,15.63,19.79,19.35,23.99,5.1
					c2.44-8.31-3.02-16.87-10.69-19.66c-8.09-2.94-19.08,0.3-25.6,5.43c-20.53,16.13-7.25,48.51,9.38,61.89
					c22.73,18.28,51.88,27.7,78.59,38.36C235.26,230.52,235.29,230.44,235.24,230.42L235.24,230.42z"/>
			</g>
			<g>
				<path class="st68" d="M226.07,223.98c-16.27-9.65-40.59-14.94-49.54-33.37c-4.34-8.94-0.72-23.2,10.88-22.86
					c8.66,0.25,12.87,8.09,6.96,14.56c-1.12,1.23,0.35,3.44,1.84,2.41c7.66-5.28,5.66-13.82-2.43-17.71
					c-8.58-4.12-17.07,0.62-19.83,9.23c-8.83,27.57,34.64,39.65,52.1,47.75C226.08,224.02,226.09,223.99,226.07,223.98
					L226.07,223.98z"/>
			</g>
			<g>
				<g>
					<path class="st68" d="M235.54,202.68c1.55,2.3,1.01,5.66-1.37,7.55c-2.41,1.92-5.99,1.35-7.86-1.43
						c-1.85-2.8-0.95-6.4,1.77-7.81C230.8,199.59,234.02,200.38,235.54,202.68z"/>
					<path class="st68" d="M227.44,184.91c0.09,2.03-1.3,4.13-3.72,4.71c-2.29,0.56-4.85-1.14-5.01-3.95
						c-0.34-2.8,1.94-4.96,4.28-4.76C225.47,181.1,227.17,182.89,227.44,184.91z"/>
					<path class="st68" d="M223.11,179.42l-0.65-0.03c0.36-2.74,0.95-5.48,2.07-8.03l0.47,0.24l0.13,0.04
						c-0.98,2.49-1.46,5.17-1.73,7.83L223.11,179.42z M227.37,199.68l-0.74,0.44c-1.33-2.88-2.59-5.8-3.31-8.91l0.76-0.14l0.5-0.16
						c0.78,2.99,2.09,5.78,3.44,8.48L227.37,199.68z M229.64,162.86l-0.19-0.11l2.52-3.04L229.64,162.86z M271.15,237.51
						c-4.72,2.64-0.74,7.72,8.33,16.1c-17.67-14.22-33.41-26.6-45.24-41.62l0.87-0.58l0.74-0.7
						C249.27,226.06,264.37,234.93,271.15,237.51z"/>
					<path class="st68" d="M230.1,168.77c-0.75,1.52-2.83,2.14-4.57,1.43c-1.8-0.74-2.44-2.87-1.49-4.77
						c1.04-1.84,3.3-2.34,4.85-1.27C230.49,165.25,230.94,167.28,230.1,168.77z"/>
				</g>
			</g>
			<g>
				<path class="st68" d="M77.86,126.81c-3.33-15.98-2.5-32.53-6.34-48.4c-3.16-13.09-12.82-25.74-27.71-23.59
					c-12.47,1.8-23.03,15.22-12.86,26.38c9.74,10.69,25.35-2.44,17.48-14.16c-0.31-0.46-1.12-0.19-0.94,0.39
					c0.98,3.02,1.35,6.89,0.8,9.96c-1.03,5.75-8.49,5.52-12.16,3.72c-6.98-3.41-7.45-12.33-3.01-17.91
					c7.82-9.84,22.87-6.31,30.23,1.64c15.53,16.78,6.56,42.46,14.42,61.99C77.79,126.88,77.87,126.87,77.86,126.81L77.86,126.81z"/>
			</g>
			<g>
				<path class="st68" d="M80.25,141.39c-1.04-9.07-2.53-18.34-4.51-27.26c-1.91-8.56-4.99-17.08-12.34-22.35
					c-6.4-4.59-13.73-3.01-16.23,4.69c-2.12,6.55,5.66,13.08,10.68,7.44c0.64-0.72,0.01-1.63-0.87-1.51
					c-11.28,1.58-8.89-12.65,0.61-11.27c3.05,0.44,5.87,2.64,8.14,4.56c4.53,3.83,6.82,9.9,8.46,15.4
					c2.94,9.84,2.63,20.66,5.99,30.3C80.21,141.43,80.26,141.43,80.25,141.39L80.25,141.39z"/>
			</g>
			<g>
				<path class="st68" d="M77.35,120.13c-2.19-6.7-1.69-13.49-1.81-20.41c-0.12-6.42-0.55-12.82-1.32-19.19
					c-1.01-8.37-2.58-16.53-5.08-24.6C65.34,43.6,52.58,22.89,36.73,29.51c-0.99,0.42-1.26,1.99,0.01,2.29
					c8.07,1.87,14.22,2.45,20.21,8.92c5.89,6.36,9.25,15.22,11.68,23.39c2.3,7.72,3.78,15.64,4.8,23.62
					c1.38,10.73,0.91,21.97,3.79,32.44C77.25,120.25,77.38,120.21,77.35,120.13L77.35,120.13z"/>
			</g>
			<g>
				<path class="st68" d="M308.72,409.57c15.89-7.56,33.45-6.36,48.29,3.42c6.89,4.54,11.15,11.5,11.99,19.67
					c0.78,7.58-3.19,14.66-2.64,21.94c0.14,1.82,2.26,2.31,3.3,0.88c4.31-5.94,4.6-17.81,3.33-24.82
					c-1.5-8.33-5.98-14.65-12.73-19.63c-12.91-9.51-38.65-12.63-51.62-1.57C308.56,409.51,308.65,409.61,308.72,409.57
					L308.72,409.57z"/>
			</g>
			<g>
				<g>
					<path class="st68" d="M299.75,115.92c-3.61-3.74-7.31-4.49-13.96-2.68c10.81,4.62,15.69,18.32,17.02,31.53
						c1.5-13.26,1.64-27.27,7.92-38.3C303.93,108.33,301.68,110.96,299.75,115.92z"/>
					<path class="st68" d="M292.17,106.99c-0.89-2.61,0.6-5.52,3.31-6.49c2.71-0.97,5.69,0.55,6.66,3.4c0.83,2.9-0.8,5.85-3.58,6.57
						C295.77,111.2,292.93,109.63,292.17,106.99z"/>
					<path class="st68" d="M289.48,96.12c-0.81-2.03,0.22-4.41,2.28-5.29c2.08-0.9,4.45,0.13,5.3,2.29c0.86,2.16-0.16,4.53-2.29,5.3
						C292.67,99.18,290.29,98.15,289.48,96.12z"/>
					<path class="st68" d="M286.97,87.34c-0.65-1.46,0-3.2,1.47-3.91c1.47-0.7,3.2-0.04,3.88,1.46c0.68,1.51,0.02,3.26-1.46,3.91
						C289.37,89.46,287.63,88.8,286.97,87.34z"/>
				</g>
			</g>
			<g>
				<g>
					<path class="st68" d="M378.81,256.64c-2.31-5.54-4.48-8.61-12.08-10.93c6.46,13.13,7.14,28.95,12.27,43.11
						c-2.1-14.74,3.33-30.71,15.35-34.75C387.07,251.85,382.7,252.39,378.81,256.64z"/>
					<path class="st68" d="M376.73,243.05c1.39-3.22,4.93-4.67,7.82-3.26c2.89,1.41,4.27,4.7,3.09,7.36
						c-0.86,2.8-4.08,4.37-7.18,3.51C377.36,249.79,375.68,246.39,376.73,243.05z"/>
					<path class="st68" d="M383.94,231.27c1.43-2.32,4.24-3,6.28-1.52c2.04,1.47,2.73,4.26,1.53,6.22
						c-1.23,1.94-4.01,2.65-6.19,1.57C383.23,236.39,382.49,233.58,383.94,231.27z"/>
					<path class="st68" d="M391.36,223.15c1.25-1.48,3.3-1.64,4.58-0.36c1.28,1.29,1.45,3.38,0.38,4.67
						c-1.08,1.29-3.14,1.45-4.58,0.36C390.29,226.73,390.12,224.64,391.36,223.15z"/>
				</g>
			</g>
			<g>
				<path class="st68" d="M298.73,367.5c4.32-19.03,4.77-39.38-1.87-57.94c-5.45-15.22-18.84-36.62-37.27-36.15
					c-13.71,0.35-21.46,18.43-10.81,27.8c7.83,6.89,25.01,3.45,19.96-9.3c-0.89-2.27-4.33-1.46-3.73,1.02
					c1.4,5.77-1.78,8.24-7.34,8.07c-7.05-0.21-10.95-6.13-11.27-12.67c-0.41-8.25,7.47-13.07,14.77-13.3
					c8.06-0.25,15.53,6,20.64,11.53c19.94,21.61,21.95,53.34,16.16,80.75C297.87,367.78,298.62,367.99,298.73,367.5L298.73,367.5z"
					/>
			</g>
			<g>
				<path class="st68" d="M300.52,360.9c1.17-11.24,2.28-22.56-1.41-33.46c-2.17-6.41-7.51-14.42-14.09-16.94
					c-4.93-1.88-12.14,0.13-11.88,6.65c0.24,6.24,5.28,9.64,10.91,6.72c1.66-0.86,0.16-3.48-1.46-2.52
					c-5.72,3.42-9.98-3.61-6.23-8.36c2.98-3.77,7.75-1.59,10.74,0.28c4.04,2.53,7.32,6.7,9.7,10.74c6.47,10.99,4.9,24.81,3.69,36.89
					C300.49,360.92,300.52,360.92,300.52,360.9L300.52,360.9z"/>
			</g>
			<g>
				<path class="st68" d="M296.56,385.22c4.37-14.73,10.66-37.42-5.2-47.72c-5.05-3.28-11.32-3.84-14.96,1.51
					c-3.86,5.69,3.63,15.64,9.73,11.21c1.23-0.89,0.74-2.55-0.74-2.71c-5.73-0.63-9.69-6.66-4.12-10.59
					c2.71-1.92,7.09,0.24,9.52,1.54c5.37,2.88,8.3,8.11,9.65,13.87c2.44,10.42-0.21,23.03-4.02,32.86
					C296.4,385.26,296.53,385.3,296.56,385.22L296.56,385.22z"/>
			</g>
		</g>
	</g>
	<g class="st0">
		<polygon class="st69" points="247.93,318.46 97.13,325.02 45.62,210.75 103.69,194.83 		"/>
		<g>
			<path class="st72" d="M87.79,406.91c0,0,27.73,130.64,28.78,146.99c1.04,16.35-90.93,80.15-90.93,80.15s10.63,33.56,25.34,38.92
				c5.13,1.87,109.91-77.67,114.96-91.82c5.79-16.22,17.3-129.23,17.3-129.23s45.82,60.21,44.81,73.29
				c-1.58,20.52-57.16,133.62-57.16,133.62s9.74,18.34,39.24,3.36c0,0,78.46-110.39,88.3-124.94
				C321.72,502.83,197.17,363,197.17,363L87.79,406.91z"/>
			<path class="st73" d="M247.49,520.68c-1.4-21.94-61.88-95.1-61.88-95.1l-2.38,26.34c0,0,45.82,60.21,44.81,73.29
				c-1.58,20.52-57.16,133.62-57.16,133.62s2.22,4.17,7.74,6.91C207.25,632.84,248.75,540.49,247.49,520.68z"/>
			<g class="st74">
				<path class="st69" d="M141.76,410.43c-1.14-7.02-3.02-14.74-5.49-22.98l-48.48,19.46c0,0,3.7,17.43,8.45,40.35
					c10.45,4.73,20.45,7.65,25.93,6.2c9.49-2.52,21.23-17.93,19.63-43.04C141.8,410.42,141.77,410.42,141.76,410.43z"/>
			</g>
			<path class="st69" d="M135.54,392.4C125.09,329.5,48.48,206.14,22.01,164.94c-11.15,1.49-20.8,5.85-25.81,15.16
				c-17.12,31.87,14.33,160.53,37.89,197.33c9,14.06,19.15,24.51,28.26,32.04c13.18,10.9,43.19,25.7,54.21,22.86
				c9.15-2.36,20.49-16.67,19.01-39.96C135.57,392.4,135.55,392.4,135.54,392.4z"/>
			<path class="st63" d="M215.07,372.75c-0.29-0.45-108.85-190.7-130.31-198.29c-0.42-0.16-1.57-0.55-2.21-0.77
				c-14.98-5.03-34.48-9.38-50.15-9.38c-6.28-0.02-10.08,0.61-10.39,0.63c26.47,41.2,103.08,164.56,113.53,227.46
				C159.14,378.94,188.16,367.33,215.07,372.75z"/>
			<polygon class="st70" points="61.88,118.95 80.08,180.96 23.3,164.78 31.43,121.1 			"/>
			<path class="st75" d="M61.88,118.95l-30.46,2.15l-1.89,10.15c9.28,8.28,20.2,14.73,28.86,16.18c3.44,0.57,7.5,0.36,11.72-0.42
				L61.88,118.95z"/>
			<g class="st74">
				<path class="st76" d="M87.03,274.71c17.1,31.84,32.9,64.81,41.91,92.15c47.33,4.53,59.16-0.62,78.83-6.77
					c-10.99-18.97-18.83-32.13-21.84-37.25L87.03,274.71z"/>
			</g>
			<g>
				<g>
					<path class="st4" d="M308.7,118.52c0,0-4.69-19.81-25.1-22.84c-20.41-3.03-110.06-13.69-110.06-13.69s-6.2-1.03-2.67,5.76
						c0,0,11.05,21.56,29.39,25.47c17.69,3.77,45.17,6.85,45.17,6.85l-44.22-1.56c0,0-8.14-0.13-2.15,6.54
						c5.88,6.55,11.12,13.65,20.95,15.83c7.55,1.67,31.29,1.8,31.29,1.8l-28.41,2.46c0,0-4.17-0.01-0.34,5.34
						c4.44,6.19,13.06,17.85,33.42,14c19.96-3.77,47.25-12.8,52.18-10.6c4.93,2.2,8,10.13,8,10.13s2.81,3.29,0.18-8.57L308.7,118.52
						z"/>
					<g>
						<g>
							<g>
								<g>
									<polygon class="st78" points="183.84,321.39 292.72,350.54 271.63,237.36 162.74,208.2 									"/>
								</g>
								<g>
									<polygon class="st79" points="162.74,208.2 271.63,237.36 362.7,170.94 254.05,143.04 									"/>
								</g>
								<path class="st9" d="M318.27,155.91c-4.47-1.15-8.95-2.3-13.42-3.45c-3.3-0.85-7.25-2.77-10.42-1.11
									c-4.69,2.46-9.06,7.06-13.22,10.3c-19.01,14.81-38.03,29.61-57.04,44.42c-5.26,4.1-10.53,8.2-15.79,12.3
									c-0.96,0.75-1.38,2.14-1.16,3.31c2.59,13.88,5.17,27.75,7.76,41.63c0.21,1.15,1.1,2.34,2.27,2.67
									c7.53,2.1,15.06,4.21,22.59,6.31c2.52,0.7,5.17-1.19,4.65-3.96c-2.48-13.28-4.95-26.56-7.43-39.84
									c27.44-22.2,54.88-44.4,82.32-66.6c1.09-0.88,1.4-2,1.21-3.03C320.63,157.56,319.95,156.34,318.27,155.91z"/>
								<g>
									<polygon class="st68" points="362.7,170.94 271.63,237.36 292.72,350.54 383.8,284.12 									"/>
								</g>
							</g>
						</g>
					</g>
					<path class="st4" d="M238.07,213.05c0,0-3.62-25.8-29.27-32.08c-25.64-6.28-138.57-30.51-138.57-30.51s-7.77-2.05-4.09,7.02
						c0,0,11.52,28.78,34.41,35.94c22.09,6.91,56.72,14.1,56.72,14.1l-56.15-7.24c0,0-10.36-1.14-3.52,8.07
						c6.71,9.04,12.54,18.71,24.8,22.66c9.42,3.03,39.65,6.01,39.65,6.01l-36.48-0.24c0,0-5.32-0.51-1.07,6.76
						c4.92,8.42,14.52,24.28,40.91,21.81c25.87-2.43,61.72-10.69,67.73-7.3c6.02,3.39,8.99,13.85,8.99,13.85s3.19,4.53,1.25-10.89
						L238.07,213.05z"/>
				</g>
				<g>
					<path class="st80" d="M294.62,311.8c1.02-0.21,1.99-0.34,2.97-0.63c1.58-0.46,3.16-1.37,4.72-2.57
						c9.99-7.67,17.46-13.38,27.45-21.05c0.73-0.56,0.73-0.56,0.89,0.3c1.09,5.83,2.17,11.67,3.27,17.5c0.1,0.53,0,0.79-0.44,1.13
						c-7.1,5.47-11.66,9.06-18.77,14.47c-2.47,1.88-4.87,2.33-7.13,1.94c-1.87-0.31-3.43-1.28-4.79-2.68
						c-2.56-2.65-5.12-5.31-7.67-7.96C294.96,312.1,294.79,311.96,294.62,311.8z"/>
					<path class="st80" d="M328.98,208.31c-0.54,0.98-1.01,1.78-1.44,2.6c-1.57,2.98-2.48,6.1-3.19,9.29
						c-1.77,7.98-3.58,15.97-5.37,23.95c-1.27,5.66-1.77,7.7-3.04,13.36c-0.12,0.54-0.25,1.08-0.4,1.67
						c-0.88,0.04-1.71,0.09-2.55,0.13c-4.1,0.18-8.2,0.36-12.3,0.56c-0.36,0.02-0.46-0.08-0.33-0.66c1.93-8.65,3.07-13.68,5-22.33
						c0.44-1.98,0.83-3.98,1.42-5.95c1.13-3.78,3.04-6.99,5.43-9.76c1.51-1.75,3.13-3.12,4.8-4.31c3.56-2.53,7.11-5.09,10.67-7.64
						C328.08,208.95,328.47,208.67,328.98,208.31z"/>
					<path class="st80" d="M367.61,273.18c-0.41-2.48-1.19-4.54-2.39-6.1c-0.89-1.17-1.92-2.14-2.92-3.15
						c-2.9-2.93-5.82-5.83-8.73-8.76c-3.32-3.34-5.27-5.4-8.59-8.74c-0.24-0.24-0.26-0.41,0.03-0.89
						c3.8-6.27,7.59-12.56,11.37-18.85c0.24-0.41,0.36-0.38,0.53-0.2c1.41,1.41,1.46,1.51,2.88,2.92
						c3.42,3.39,6.86,6.75,10.27,10.17c1.61,1.61,2.39,4.1,2.65,7.09c0.26,2.97-0.16,6.14-0.95,9.43c-1.34,5.54-2.67,11.08-4,16.62
						C367.72,272.88,367.66,273.03,367.61,273.18z"/>
					<path class="st80" d="M350.88,209.44c-0.11,0.71-0.19,1.31-0.29,1.92c-1.08,6.92-2.17,13.85-3.23,20.76
						c-0.11,0.69-0.36,0.84-0.75,1.07c-3.69,2.19-7.38,4.4-11.06,6.6c-1.66,0.99-3.32,1.98-5.06,3.01c0.09-0.22,0.13-0.35,0.19-0.46
						c1.15-1.98,2.3-3.96,3.47-5.91c0.31-0.51,0.26-0.69,0-0.93c-2.97-2.79-5.92-5.61-8.89-8.4c-0.22-0.21-0.26-0.45-0.19-0.9
						c0.53-3.31,1.22-6.62,2.28-9.95c0.67-2.11,1.46-4.18,2.66-6.03c1.21-1.87,2.61-2.95,4.12-3.35c1.83-0.49,3.33,0,4.56,1.2
						c2.52,2.47,5.03,4.98,7.53,7.49c0.26,0.26,0.41,0.26,0.75-0.26c1.21-1.89,2.45-3.74,3.67-5.61
						C350.69,209.63,350.75,209.59,350.88,209.44z"/>
					<path class="st80" d="M316.78,281.5c-1.72,0.17-3.32,0.35-4.9,0.48c-0.35,0.03-0.48,0.16-0.59,0.69
						c-1.22,6.11-2.46,12.22-3.69,18.34c-0.09,0.44-0.24,0.72-0.55,1c-2.62,2.4-5.3,4.48-8.07,5.84c-0.94,0.46-1.92,0.79-2.83,0.92
						c-2.06,0.31-3.26-1.01-3.81-3.39c-0.49-2.14-0.18-4.58,0.38-7.13c1.07-4.91,2.1-9.81,3.16-14.72c0.1-0.48-0.04-0.54-0.29-0.54
						c-1.42-0.03-2.85-0.07-4.27-0.11c-0.11,0-0.22-0.03-0.44-0.06c0.62-0.57,1.11-1.04,1.62-1.5c2.24-2.04,4.48-4.08,6.72-6.12
						c2.45-2.24,4.9-4.48,7.36-6.7c0.13-0.12,0.4-0.14,0.48-0.03c1.91,2.52,3.8,5.07,5.7,7.62c1.23,1.65,2.47,3.3,3.7,4.95
						C316.54,281.15,316.62,281.27,316.78,281.5z"/>
					<path class="st80" d="M349.01,301.35c-0.3-0.21-0.55-0.38-0.8-0.56c-3.78-2.76-7.55-5.53-11.33-8.28
						c-0.22-0.16-0.23-0.35-0.11-0.75c1.97-6.54,3.93-13.09,5.9-19.63c0.3-1,0.59-2,0.89-3c0.02-0.07,0.08-0.14,0.18-0.32
						c0.06,0.31,0.1,0.54,0.14,0.77c0.34,1.75,0.7,3.49,1.03,5.26c0.07,0.39,0.21,0.38,0.5,0.15c4.3-3.34,8.6-6.66,12.9-9.97
						c0.17-0.13,0.44-0.22,0.56-0.13c2.01,1.45,3.86,3.16,5.25,5.58c0.43,0.75,0.79,1.61,1.08,2.52c0.8,2.51,0.25,5.31-1.34,8.22
						c-1.05,1.91-2.35,3.42-3.81,4.53c-3.8,2.9-7.6,5.76-11.4,8.62c-0.3,0.23-0.34,0.4-0.29,0.74c0.24,1.94,0.47,3.9,0.69,5.86
						C349.06,301.05,349.03,301.16,349.01,301.35z"/>
				</g>
			</g>
			<g>
				<path class="st81" d="M95.8,366.04c7.18,1.28,19.19,1.38,33.14,0.81c-9.01-27.34-24.82-60.31-41.91-92.15l-94.76-46.12
					c0.03,0.23,0.06,0.46,0.09,0.68c4.96,39.21,23.87,75.31,53.22,101.78C65.44,348.97,84.9,364.09,95.8,366.04z"/>
			</g>
			<path class="st82" d="M221.43,316.93c1.49,0.02,27.13,8.01,46.2,0.4c9.08-3.63,17.48-5.95,14.28,2.8
				c-3.2,8.76-20.54,6.23-22.77,8.77c-2.23,2.54,30.83,17.97,39.65,18.9c8.82,0.93-5.01,9.34-8.42,9.55
				c-3.41,0.22-0.59,1.41-3.78,5.03c-3.19,3.62-11.49,3.34-15.45,4.4c-12.93,3.47-49.27-18.37-54.84-23.27
				C210.71,338.61,221.43,316.93,221.43,316.93z"/>
			<path class="st69" d="M23.3,164.78c0,0,14.84,14.7,23.81,30.55c9.05,16,58.64,94.32,63.55,94.01
				c4.91-0.31,116.81,28.4,116.81,28.4s-6.66,16.33-5.53,34.05c0,0-119.08-11.57-127.94-11s-20.07-14.45-29.5-22.75
				c-9.42-8.29-56-45.56-70.74-76.15C-20.96,211.3-17.33,160.53,23.3,164.78z"/>
			<path class="st83" d="M35.37,59.91c0,0,9.52-0.52,21.6,6.34c12.08,6.86,24.02,27.37,24.02,27.37s6.17,13.11,7.36,20.97
				c1.2,7.86-25.93,22.41-39.92,21.5c-13.98-0.91-33.15-15.44-38.69-29.46C4.22,92.61,29.14,59.51,35.37,59.91z"/>
			<path class="st75" d="M61.28,69.24c-1.42-1.15-2.87-2.17-4.31-2.99c-12.08-6.86-21.6-6.34-21.6-6.34
				c-2.95-0.19-10.1,7.14-16.22,16.4l4.76-0.62c0,0,16.26,3.37,31.68-3.35C57.66,71.45,59.55,70.39,61.28,69.24z"/>
			<path class="st71" d="M23.91,75.7c0,0,6.1,11.38,10.66,27.51c4.55,16.13,3.81,32.79,3.81,32.79
				c-11.22,6.7-29.92,7.32-47.13-12.29c-17.22-19.61-0.28-37.63,3.55-40.99c3.83-3.36-2.52-4.1-0.22-12.44
				c2.3-8.34,7.6-3.52,12.65-9.53c5.05-6.01-9.9-16.96-0.42-26.86c9.48-9.9,23.75,7.17,23.75,7.17s4.43-18.09,15.23-8.63
				c10.8,9.46,11.67,16.55,4.08,28.08C42.28,72.02,23.91,75.7,23.91,75.7z"/>
			<path class="st83" d="M34.16,95.67c0,0-12.97-5.28-12.29,5.37c0.68,10.65,5.35,16.08,11.41,13.02
				C39.34,111,34.16,95.67,34.16,95.67z"/>
		</g>
	</g>
	<g class="st0">
		<g>
			<path class="st63" d="M417.84,98.95l-7-13.09h4.62l4.91,9.87l-1.11,0.08l4.83-9.94h4.62l-7.13,13.09v5.91h-3.74V98.95z"/>
			<path class="st63" d="M428.54,97.37h4.86v3.15h-4.86V97.37z"/>
			<path class="st63" d="M453.32,102.95c-0.22,0.24-0.58,0.49-1.06,0.74c-0.48,0.25-1.04,0.48-1.67,0.68
				c-0.63,0.21-1.27,0.37-1.92,0.5c-0.66,0.13-1.27,0.19-1.86,0.19c-1.55,0-2.94-0.23-4.18-0.68c-1.24-0.46-2.3-1.09-3.18-1.91
				c-0.88-0.82-1.55-1.79-2.01-2.91c-0.46-1.12-0.7-2.34-0.7-3.67c0-1.74,0.26-3.25,0.79-4.53c0.53-1.28,1.24-2.35,2.14-3.2
				c0.9-0.85,1.95-1.49,3.13-1.9c1.18-0.41,2.42-0.62,3.71-0.62c1.22,0,2.34,0.13,3.36,0.4s1.88,0.6,2.58,0.99l-1.21,3.49
				c-0.31-0.17-0.72-0.34-1.24-0.52s-1.04-0.31-1.58-0.43c-0.53-0.11-1.01-0.17-1.42-0.17c-1.03,0-1.95,0.13-2.74,0.39
				c-0.79,0.26-1.46,0.65-2,1.16c-0.54,0.52-0.95,1.16-1.23,1.92c-0.28,0.77-0.41,1.66-0.41,2.67c0,0.9,0.16,1.7,0.46,2.41
				c0.31,0.71,0.75,1.32,1.3,1.82c0.56,0.5,1.22,0.88,1.99,1.14c0.77,0.26,1.61,0.39,2.54,0.39c0.53,0,1.02-0.04,1.47-0.12
				c0.45-0.08,0.83-0.2,1.14-0.37v-2.3h-3.28v-3.62h7.08V102.95z"/>
			<path class="st63" d="M454.94,104.86l8.58-19.76h0.21l8.57,19.76h-4.34l-5.47-13.89l2.71-1.86l-6.56,15.75H454.94z M460.8,97.99
				h5.71l1.32,3.15h-8.19L460.8,97.99z"/>
			<path class="st63" d="M488.39,98.95l-7-13.09h4.62l4.91,9.87l-1.11,0.08l4.83-9.94h4.62l-7.13,13.09v5.91h-3.74V98.95z"/>
			<path class="st63" d="M516.25,85.86c1.19,0,2.25,0.15,3.18,0.45c0.93,0.3,1.71,0.73,2.34,1.29c0.63,0.56,1.11,1.23,1.43,2.01
				c0.33,0.78,0.49,1.67,0.49,2.65c0,0.77-0.12,1.55-0.35,2.32c-0.23,0.77-0.61,1.48-1.14,2.12c-0.53,0.64-1.22,1.15-2.08,1.54
				c-0.86,0.39-1.93,0.58-3.2,0.58h-2.69v6.04h-3.75V85.86H516.25z M516.9,95.2c0.57,0,1.04-0.09,1.42-0.28
				c0.38-0.19,0.67-0.43,0.89-0.72c0.21-0.29,0.37-0.6,0.46-0.92c0.09-0.32,0.14-0.62,0.14-0.89c0-0.21-0.03-0.47-0.09-0.79
				c-0.06-0.32-0.19-0.64-0.37-0.97c-0.19-0.33-0.48-0.6-0.87-0.83c-0.39-0.22-0.91-0.34-1.56-0.34h-2.69v5.73H516.9z M520.41,97.53
				l4.7,7.33h-4.36l-4.8-7.23L520.41,97.53z"/>
			<path class="st63" d="M527.47,85.86h12.97v3.62h-9.22v4.05h8.16v3.62h-8.16v4.11h9.58v3.62h-13.33V85.86z"/>
			<path class="st63" d="M557.98,103.29c-0.21,0.17-0.59,0.4-1.15,0.7s-1.24,0.55-2.05,0.77c-0.81,0.22-1.7,0.33-2.69,0.31
				c-1.5-0.03-2.84-0.31-4.02-0.81c-1.18-0.51-2.18-1.2-3-2.08c-0.82-0.88-1.44-1.89-1.87-3.02c-0.43-1.14-0.65-2.35-0.65-3.64
				c0-1.45,0.22-2.77,0.66-3.98c0.44-1.21,1.07-2.25,1.88-3.13c0.82-0.88,1.79-1.56,2.93-2.04s2.39-0.72,3.77-0.72
				c1.27,0,2.4,0.17,3.38,0.52s1.78,0.71,2.4,1.11l-1.47,3.54c-0.43-0.33-1-0.67-1.72-1.02c-0.71-0.35-1.54-0.53-2.47-0.53
				c-0.72,0-1.42,0.15-2.08,0.45c-0.66,0.3-1.25,0.73-1.76,1.28c-0.51,0.55-0.91,1.19-1.2,1.92c-0.29,0.73-0.44,1.53-0.44,2.39
				c0,0.91,0.13,1.75,0.4,2.5c0.27,0.76,0.65,1.41,1.15,1.95c0.5,0.54,1.1,0.96,1.79,1.25c0.7,0.29,1.48,0.44,2.36,0.44
				c1.02,0,1.89-0.16,2.61-0.49c0.72-0.33,1.27-0.67,1.65-1.03L557.98,103.29z"/>
			<path class="st63" d="M560.97,85.86h3.75v19.01h-3.75V85.86z"/>
			<path class="st63" d="M583.76,103.29c-0.21,0.17-0.59,0.4-1.15,0.7s-1.24,0.55-2.05,0.77c-0.81,0.22-1.7,0.33-2.69,0.31
				c-1.5-0.03-2.84-0.31-4.02-0.81c-1.18-0.51-2.18-1.2-3-2.08c-0.82-0.88-1.44-1.89-1.87-3.02c-0.43-1.14-0.65-2.35-0.65-3.64
				c0-1.45,0.22-2.77,0.66-3.98c0.44-1.21,1.07-2.25,1.88-3.13c0.82-0.88,1.79-1.56,2.93-2.04s2.39-0.72,3.77-0.72
				c1.27,0,2.4,0.17,3.38,0.52s1.78,0.71,2.4,1.11l-1.47,3.54c-0.43-0.33-1-0.67-1.72-1.02c-0.71-0.35-1.54-0.53-2.47-0.53
				c-0.72,0-1.42,0.15-2.08,0.45c-0.66,0.3-1.25,0.73-1.76,1.28c-0.51,0.55-0.91,1.19-1.2,1.92c-0.29,0.73-0.44,1.53-0.44,2.39
				c0,0.91,0.13,1.75,0.4,2.5c0.27,0.76,0.65,1.41,1.15,1.95c0.5,0.54,1.1,0.96,1.79,1.25c0.7,0.29,1.48,0.44,2.36,0.44
				c1.02,0,1.89-0.16,2.61-0.49c0.72-0.33,1.27-0.67,1.65-1.03L583.76,103.29z"/>
			<path class="st63" d="M586.75,85.86h3.75v15.39h8.94v3.62h-12.68V85.86z"/>
			<path class="st63" d="M601.44,104.86l8.58-19.76h0.21l8.57,19.76h-4.34l-5.47-13.89l2.71-1.86l-6.56,15.75H601.44z M607.31,97.99
				h5.71l1.32,3.15h-8.19L607.31,97.99z"/>
			<path class="st63" d="M387.88,152.76c0.38,0.34,0.57,0.78,0.57,1.33c0,0.53-0.19,0.98-0.58,1.34c-0.39,0.36-0.88,0.54-1.48,0.54
				c-0.6,0-1.11-0.18-1.51-0.54c-0.4-0.36-0.61-0.81-0.61-1.34c0-0.55,0.2-0.99,0.59-1.33s0.9-0.5,1.52-0.5
				C387,152.26,387.5,152.42,387.88,152.76z M384.68,157.76h3.23v14.62h-3.23V157.76z"/>
			<path class="st63" d="M397.44,147.84c1.19,0,2.25,0.15,3.18,0.45c0.93,0.3,1.71,0.73,2.34,1.29c0.63,0.56,1.11,1.23,1.43,2.01
				c0.33,0.78,0.49,1.67,0.49,2.65c0,0.77-0.12,1.55-0.35,2.32c-0.23,0.77-0.61,1.48-1.14,2.12c-0.53,0.64-1.22,1.15-2.08,1.54
				c-0.86,0.39-1.93,0.58-3.2,0.58h-2.69v6.04h-3.75v-19.01H397.44z M398.09,157.19c0.57,0,1.04-0.09,1.42-0.28
				c0.38-0.19,0.67-0.43,0.89-0.72c0.21-0.29,0.37-0.6,0.46-0.92c0.09-0.32,0.14-0.62,0.14-0.89c0-0.21-0.03-0.47-0.09-0.79
				c-0.06-0.32-0.19-0.64-0.37-0.97c-0.19-0.33-0.48-0.6-0.87-0.83c-0.39-0.22-0.91-0.34-1.56-0.34h-2.69v5.73H398.09z
				 M401.6,159.51l4.7,7.33h-4.36l-4.8-7.23L401.6,159.51z"/>
			<path class="st63" d="M408.66,147.84h12.97v3.62h-9.22v4.05h8.16v3.62h-8.16v4.11h9.58v3.62h-13.33V147.84z"/>
			<path class="st63" d="M425.04,166.85v-19.01h5.68c1.91,0,3.54,0.28,4.88,0.85c1.34,0.57,2.42,1.33,3.24,2.27
				c0.82,0.95,1.42,2.01,1.79,3.18s0.57,2.35,0.57,3.54c0,1.41-0.25,2.68-0.76,3.81c-0.51,1.13-1.2,2.09-2.08,2.89
				c-0.88,0.8-1.89,1.41-3.05,1.83c-1.15,0.42-2.38,0.63-3.67,0.63H425.04z M428.78,163.23H431c0.95,0,1.81-0.12,2.58-0.37
				c0.78-0.25,1.44-0.62,2-1.1c0.56-0.48,0.99-1.09,1.29-1.82c0.3-0.73,0.45-1.57,0.45-2.52c0-1.24-0.2-2.25-0.61-3.03
				c-0.4-0.78-0.9-1.39-1.5-1.82c-0.59-0.43-1.2-0.73-1.82-0.89c-0.62-0.16-1.15-0.25-1.58-0.25h-3.05V163.23z"/>
			<path class="st63" d="M448.1,159.82c0,0.6,0.18,1.18,0.54,1.73c0.36,0.55,0.84,1,1.43,1.34c0.59,0.34,1.24,0.52,1.95,0.52
				c0.78,0,1.46-0.17,2.07-0.52c0.6-0.34,1.08-0.79,1.43-1.34c0.35-0.55,0.53-1.13,0.53-1.73v-11.98h3.69v12.06
				c0,1.39-0.34,2.63-1.03,3.71c-0.69,1.08-1.62,1.92-2.79,2.53c-1.17,0.61-2.47,0.92-3.9,0.92c-1.41,0-2.7-0.31-3.86-0.92
				c-1.16-0.61-2.09-1.45-2.78-2.53c-0.69-1.08-1.03-2.31-1.03-3.71v-12.06h3.74V159.82z"/>
			<path class="st63" d="M478.32,165.27c-0.21,0.17-0.59,0.4-1.15,0.7s-1.24,0.55-2.05,0.77c-0.81,0.22-1.7,0.33-2.69,0.31
				c-1.5-0.03-2.84-0.31-4.02-0.81c-1.18-0.51-2.18-1.2-3-2.08c-0.82-0.88-1.44-1.89-1.87-3.02c-0.43-1.14-0.65-2.35-0.65-3.64
				c0-1.45,0.22-2.77,0.66-3.98c0.44-1.21,1.07-2.25,1.88-3.13c0.82-0.88,1.79-1.56,2.93-2.04s2.39-0.72,3.77-0.72
				c1.27,0,2.4,0.17,3.38,0.52s1.78,0.71,2.4,1.11l-1.47,3.54c-0.43-0.33-1-0.67-1.72-1.02c-0.71-0.35-1.54-0.53-2.47-0.53
				c-0.72,0-1.42,0.15-2.08,0.45c-0.66,0.3-1.25,0.73-1.76,1.28c-0.51,0.55-0.91,1.19-1.2,1.92c-0.29,0.73-0.44,1.53-0.44,2.39
				c0,0.91,0.13,1.75,0.4,2.5c0.27,0.76,0.65,1.41,1.15,1.95c0.5,0.54,1.1,0.96,1.79,1.25c0.7,0.29,1.48,0.44,2.36,0.44
				c1.02,0,1.89-0.16,2.61-0.49c0.72-0.33,1.27-0.67,1.65-1.03L478.32,165.27z"/>
			<path class="st63" d="M481.31,147.84h12.97v3.62h-9.22v4.05h8.16v3.62h-8.16v4.11h9.58v3.62h-13.33V147.84z"/>
			<path class="st63" d="M500.81,164.58c-0.38,0.91-0.76,1.82-1.14,2.71s-0.76,1.8-1.14,2.71h-2.89c0.34-0.91,0.68-1.82,1.02-2.71
				s0.68-1.8,1.02-2.71H500.81z"/>
			<path class="st63" d="M517.86,147.84c1.19,0,2.25,0.15,3.18,0.45c0.93,0.3,1.71,0.73,2.34,1.29c0.63,0.56,1.11,1.23,1.43,2.01
				c0.33,0.78,0.49,1.67,0.49,2.65c0,0.77-0.12,1.55-0.35,2.32c-0.23,0.77-0.61,1.48-1.14,2.12c-0.53,0.64-1.22,1.15-2.08,1.54
				c-0.86,0.39-1.93,0.58-3.2,0.58h-2.69v6.04h-3.75v-19.01H517.86z M518.5,157.19c0.57,0,1.04-0.09,1.42-0.28
				c0.38-0.19,0.67-0.43,0.89-0.72c0.21-0.29,0.37-0.6,0.46-0.92c0.09-0.32,0.14-0.62,0.14-0.89c0-0.21-0.03-0.47-0.09-0.79
				c-0.06-0.32-0.19-0.64-0.37-0.97c-0.19-0.33-0.48-0.6-0.87-0.83c-0.39-0.22-0.91-0.34-1.56-0.34h-2.69v5.73H518.5z
				 M522.01,159.51l4.7,7.33h-4.36l-4.8-7.23L522.01,159.51z"/>
			<path class="st63" d="M529.08,147.84h12.97v3.62h-9.22v4.05h8.16v3.62h-8.16v4.11h9.58v3.62h-13.33V147.84z"/>
			<path class="st63" d="M548.64,159.82c0,0.6,0.18,1.18,0.54,1.73c0.36,0.55,0.84,1,1.43,1.34c0.59,0.34,1.24,0.52,1.95,0.52
				c0.78,0,1.46-0.17,2.07-0.52c0.6-0.34,1.08-0.79,1.43-1.34c0.35-0.55,0.53-1.13,0.53-1.73v-11.98h3.69v12.06
				c0,1.39-0.34,2.63-1.03,3.71c-0.69,1.08-1.62,1.92-2.79,2.53c-1.17,0.61-2.47,0.92-3.9,0.92c-1.41,0-2.7-0.31-3.86-0.92
				c-1.16-0.61-2.09-1.45-2.78-2.53c-0.69-1.08-1.03-2.31-1.03-3.71v-12.06h3.74V159.82z"/>
			<path class="st63" d="M562.96,147.84h12.81v3.62h-4.62v15.39h-3.75v-15.39h-4.44V147.84z"/>
			<path class="st63" d="M578.81,147.84h3.75v19.01h-3.75V147.84z"/>
			<path class="st63" d="M587.29,147.84h3.75v15.39h8.94v3.62h-12.68V147.84z"/>
			<path class="st63" d="M603.39,147.84h3.75v19.01h-3.75V147.84z"/>
			<path class="st63" d="M610.19,166.85c0.58-0.93,1.12-1.78,1.61-2.56c0.49-0.77,1.04-1.65,1.65-2.63
				c0.61-0.98,1.24-1.99,1.88-3.02s1.27-2.04,1.89-3.02c0.61-0.98,1.16-1.86,1.65-2.63c0.49-0.77,1.03-1.63,1.61-2.56l0.41,1.03
				h-6.84c-0.36,0-0.74-0.08-1.12-0.25c-0.39-0.16-0.71-0.39-0.98-0.67c-0.27-0.28-0.4-0.6-0.4-0.94v-2.71h3.43v0.36
				c0,0.38,0.06,0.57,0.18,0.58c0.12,0.01,0.34,0.01,0.65,0.01h10.56l-10.02,15.81l-0.21-0.41h10.2v3.62H610.19z"/>
			<path class="st63" d="M628.15,166.85l8.58-19.76h0.21l8.57,19.76h-4.34l-5.47-13.89l2.71-1.86l-6.56,15.75H628.15z
				 M634.01,159.98h5.71l1.32,3.15h-8.19L634.01,159.98z"/>
			<path class="st63" d="M450.61,191.93l-7-13.09h4.62l4.91,9.87l-1.11,0.08l4.83-9.94h4.62l-7.13,13.09v5.91h-3.74V191.93z"/>
			<path class="st63" d="M478.47,178.83c1.19,0,2.25,0.15,3.18,0.45c0.93,0.3,1.71,0.73,2.34,1.29c0.63,0.56,1.11,1.23,1.43,2.01
				c0.33,0.78,0.49,1.67,0.49,2.65c0,0.77-0.12,1.55-0.35,2.32c-0.23,0.77-0.61,1.48-1.14,2.12c-0.53,0.64-1.22,1.15-2.08,1.54
				c-0.86,0.39-1.93,0.58-3.2,0.58h-2.69v6.04h-3.75v-19.01H478.47z M479.12,188.18c0.57,0,1.04-0.09,1.42-0.28
				c0.38-0.19,0.67-0.43,0.89-0.72c0.21-0.29,0.37-0.6,0.46-0.92c0.09-0.32,0.14-0.62,0.14-0.89c0-0.21-0.03-0.47-0.09-0.79
				c-0.06-0.32-0.19-0.64-0.37-0.97c-0.19-0.33-0.48-0.6-0.87-0.83c-0.39-0.22-0.91-0.34-1.56-0.34h-2.69v5.73H479.12z
				 M482.63,190.5l4.7,7.33h-4.36l-4.8-7.23L482.63,190.5z"/>
			<path class="st63" d="M489.69,178.83h12.97v3.62h-9.22v4.05h8.16v3.62h-8.16v4.11h9.58v3.62h-13.33V178.83z"/>
			<path class="st63" d="M520.21,196.26c-0.21,0.17-0.59,0.4-1.15,0.7s-1.24,0.55-2.05,0.77c-0.81,0.22-1.7,0.33-2.69,0.31
				c-1.5-0.03-2.84-0.31-4.02-0.81c-1.18-0.51-2.18-1.2-3-2.08c-0.82-0.88-1.44-1.89-1.87-3.02c-0.43-1.14-0.65-2.35-0.65-3.64
				c0-1.45,0.22-2.77,0.66-3.98c0.44-1.21,1.07-2.25,1.88-3.13c0.82-0.88,1.79-1.56,2.93-2.04s2.39-0.72,3.77-0.72
				c1.27,0,2.4,0.17,3.38,0.52s1.78,0.71,2.4,1.11l-1.47,3.54c-0.43-0.33-1-0.67-1.72-1.02c-0.71-0.35-1.54-0.53-2.47-0.53
				c-0.72,0-1.42,0.15-2.08,0.45c-0.66,0.3-1.25,0.73-1.76,1.28c-0.51,0.55-0.91,1.19-1.2,1.92c-0.29,0.73-0.44,1.53-0.44,2.39
				c0,0.91,0.13,1.75,0.4,2.5c0.27,0.76,0.65,1.41,1.15,1.95c0.5,0.54,1.1,0.96,1.79,1.25c0.7,0.29,1.48,0.44,2.36,0.44
				c1.02,0,1.89-0.16,2.61-0.49c0.72-0.33,1.27-0.67,1.65-1.03L520.21,196.26z"/>
			<path class="st63" d="M523.19,178.83h3.75v19.01h-3.75V178.83z"/>
			<path class="st63" d="M545.98,196.26c-0.21,0.17-0.59,0.4-1.15,0.7s-1.24,0.55-2.05,0.77c-0.81,0.22-1.7,0.33-2.69,0.31
				c-1.5-0.03-2.84-0.31-4.02-0.81c-1.18-0.51-2.18-1.2-3-2.08c-0.82-0.88-1.44-1.89-1.87-3.02c-0.43-1.14-0.65-2.35-0.65-3.64
				c0-1.45,0.22-2.77,0.66-3.98c0.44-1.21,1.07-2.25,1.88-3.13c0.82-0.88,1.79-1.56,2.93-2.04s2.39-0.72,3.77-0.72
				c1.27,0,2.4,0.17,3.38,0.52s1.78,0.71,2.4,1.11l-1.47,3.54c-0.43-0.33-1-0.67-1.72-1.02c-0.71-0.35-1.54-0.53-2.47-0.53
				c-0.72,0-1.42,0.15-2.08,0.45c-0.66,0.3-1.25,0.73-1.76,1.28c-0.51,0.55-0.91,1.19-1.2,1.92c-0.29,0.73-0.44,1.53-0.44,2.39
				c0,0.91,0.13,1.75,0.4,2.5c0.27,0.76,0.65,1.41,1.15,1.95c0.5,0.54,1.1,0.96,1.79,1.25c0.7,0.29,1.48,0.44,2.36,0.44
				c1.02,0,1.89-0.16,2.61-0.49c0.72-0.33,1.27-0.67,1.65-1.03L545.98,196.26z"/>
			<path class="st63" d="M548.97,178.83h3.75v15.39h8.94v3.62h-12.68V178.83z"/>
			<path class="st63" d="M563.66,197.84l8.58-19.76h0.21l8.57,19.76h-4.34l-5.47-13.89l2.71-1.86l-6.56,15.75H563.66z
				 M569.53,190.97h5.71l1.32,3.15h-8.19L569.53,190.97z"/>
			<path class="st63" d="M583.76,198.2c-0.62,0-1.13-0.17-1.52-0.5s-0.59-0.78-0.59-1.33c0-0.53,0.2-0.98,0.61-1.34
				c0.4-0.36,0.91-0.54,1.51-0.54c0.6,0,1.1,0.18,1.48,0.54c0.39,0.36,0.58,0.81,0.58,1.34c0,0.55-0.19,0.99-0.57,1.33
				S584.38,198.2,583.76,198.2z M582.06,178.08h3.23v14.62h-3.23V178.08z"/>
			<path class="st63" d="M413.86,240.82h12.81v3.62h-4.62v15.39h-3.75v-15.39h-4.44V240.82z"/>
			<path class="st63" d="M430.54,248.54l0.34,3.1l-0.08-0.46c0.33-0.67,0.77-1.24,1.34-1.72s1.13-0.84,1.69-1.1
				c0.56-0.26,0.99-0.39,1.28-0.39l-0.18,3.62c-0.84-0.1-1.57,0.03-2.17,0.41c-0.6,0.38-1.07,0.88-1.39,1.5
				c-0.33,0.62-0.49,1.26-0.49,1.91v4.42h-3.59v-11.29H430.54z"/>
			<path class="st63" d="M441.68,260.13c-1.05,0-2-0.21-2.85-0.63c-0.85-0.42-1.53-1.07-2.03-1.95c-0.5-0.88-0.75-2-0.75-3.36
				c0-1.27,0.26-2.38,0.77-3.31s1.2-1.65,2.04-2.16c0.84-0.51,1.74-0.76,2.69-0.76c1.12,0,1.97,0.19,2.54,0.56
				c0.58,0.37,1.05,0.78,1.43,1.23l-0.16,0.44l0.34-1.65h3.36v11.29h-3.62v-2.45l0.28,0.77c-0.03,0-0.14,0.1-0.31,0.3
				c-0.17,0.2-0.43,0.43-0.76,0.7c-0.34,0.27-0.75,0.5-1.24,0.7C442.93,260.03,442.35,260.13,441.68,260.13z M442.71,257.19
				c0.43,0,0.82-0.06,1.16-0.19c0.34-0.13,0.65-0.32,0.9-0.57c0.26-0.25,0.48-0.56,0.67-0.94v-2.76c-0.14-0.38-0.34-0.7-0.62-0.97
				c-0.28-0.27-0.6-0.47-0.98-0.62c-0.38-0.15-0.8-0.22-1.27-0.22c-0.52,0-0.99,0.13-1.43,0.4c-0.44,0.27-0.79,0.63-1.05,1.1
				c-0.26,0.46-0.39,1-0.39,1.6c0,0.6,0.14,1.15,0.41,1.63c0.27,0.48,0.64,0.86,1.1,1.14S442.18,257.19,442.71,257.19z"/>
			<path class="st63" d="M457.95,260.13c-1.38,0-2.54-0.26-3.5-0.77c-0.96-0.52-1.68-1.23-2.18-2.14c-0.5-0.91-0.75-1.96-0.75-3.15
				c0-1.14,0.29-2.16,0.88-3.07s1.37-1.64,2.35-2.18s2.07-0.81,3.28-0.81c1.62,0,2.95,0.47,3.99,1.41s1.72,2.29,2.03,4.07
				l-8.78,2.79l-0.8-1.96l6.35-2.14l-0.75,0.34c-0.14-0.45-0.38-0.84-0.74-1.17c-0.35-0.34-0.88-0.5-1.59-0.5
				c-0.53,0-1,0.13-1.41,0.37c-0.4,0.25-0.71,0.6-0.93,1.06c-0.22,0.46-0.32,0.99-0.32,1.61c0,0.71,0.13,1.3,0.39,1.77
				c0.26,0.47,0.61,0.83,1.06,1.07c0.45,0.24,0.95,0.36,1.5,0.36c0.4,0,0.78-0.07,1.15-0.21c0.37-0.14,0.74-0.32,1.1-0.54l1.6,2.69
				c-0.6,0.34-1.25,0.62-1.95,0.83S458.57,260.13,457.95,260.13z"/>
			<path class="st63" d="M476.13,243.58h3.62v4.91h2.74v2.81h-2.74v8.52h-3.62v-8.52h-1.76v-2.81h1.76V243.58z"/>
			<path class="st63" d="M488.61,260.37c-1.02,0-1.87-0.31-2.56-0.94s-1.05-1.44-1.08-2.44v-8.45h3.62v7.1
				c0.03,0.5,0.16,0.9,0.39,1.2s0.6,0.45,1.14,0.45c0.53,0,0.99-0.18,1.38-0.54c0.39-0.36,0.69-0.86,0.9-1.49
				c0.22-0.63,0.32-1.34,0.32-2.13v-4.6h3.62v11.29h-3.28l-0.28-2.07l0.05,0.23c-0.26,0.46-0.59,0.88-0.98,1.24
				c-0.4,0.36-0.87,0.64-1.41,0.84C489.88,260.27,489.28,260.37,488.61,260.37z"/>
			<path class="st63" d="M503.1,260.06c-0.93,0-1.79-0.16-2.6-0.49s-1.48-0.78-2.03-1.37l1.5-1.99c0.55,0.5,1.06,0.86,1.54,1.07
				c0.47,0.22,0.9,0.32,1.28,0.32c0.29,0,0.56-0.03,0.79-0.09c0.23-0.06,0.42-0.15,0.55-0.28c0.14-0.13,0.21-0.3,0.21-0.5
				c0-0.29-0.12-0.52-0.35-0.7c-0.23-0.17-0.53-0.31-0.89-0.43c-0.36-0.11-0.75-0.23-1.16-0.35c-1.03-0.33-1.78-0.8-2.23-1.43
				c-0.46-0.63-0.68-1.31-0.68-2.05c0-0.57,0.15-1.14,0.45-1.72c0.3-0.58,0.78-1.06,1.45-1.45c0.66-0.39,1.52-0.58,2.57-0.58
				c0.95,0,1.75,0.09,2.4,0.28s1.27,0.5,1.86,0.93l-1.37,2.12c-0.33-0.26-0.69-0.48-1.1-0.66c-0.4-0.18-0.78-0.28-1.12-0.3
				c-0.31-0.02-0.57,0.02-0.79,0.1c-0.21,0.09-0.38,0.2-0.5,0.34c-0.12,0.14-0.18,0.28-0.18,0.44c-0.02,0.33,0.11,0.59,0.38,0.77
				c0.27,0.19,0.61,0.34,1.02,0.44c0.41,0.1,0.82,0.22,1.21,0.36c0.55,0.17,1.02,0.4,1.42,0.7c0.4,0.29,0.7,0.64,0.92,1.05
				c0.21,0.4,0.32,0.89,0.32,1.46c0,0.69-0.18,1.34-0.53,1.95c-0.35,0.61-0.89,1.11-1.6,1.48
				C505.11,259.87,504.2,260.06,503.1,260.06z"/>
			<path class="st63" d="M528.95,258.82c-0.5,0.4-1.12,0.71-1.87,0.96c-0.75,0.24-1.48,0.36-2.21,0.36c-1.29,0-2.42-0.24-3.37-0.71
				c-0.96-0.47-1.7-1.15-2.22-2.04c-0.53-0.89-0.79-1.96-0.79-3.22c0-1.26,0.28-2.33,0.85-3.22c0.57-0.89,1.31-1.56,2.23-2.03
				s1.89-0.7,2.91-0.7c1.02,0,1.9,0.14,2.65,0.41c0.75,0.28,1.39,0.64,1.92,1.08l-1.76,2.32c-0.24-0.19-0.57-0.38-0.99-0.58
				c-0.42-0.2-0.92-0.3-1.49-0.3c-0.5,0-0.96,0.13-1.37,0.39s-0.74,0.61-0.98,1.06c-0.24,0.45-0.36,0.96-0.36,1.55
				c0,0.55,0.13,1.06,0.39,1.52c0.26,0.46,0.62,0.83,1.07,1.1c0.46,0.27,0.99,0.4,1.61,0.4c0.4,0,0.76-0.06,1.1-0.17
				c0.33-0.11,0.62-0.27,0.87-0.48L528.95,258.82z"/>
			<path class="st63" d="M535.88,260.13c-1.05,0-2-0.21-2.85-0.63c-0.85-0.42-1.53-1.07-2.03-1.95c-0.5-0.88-0.75-2-0.75-3.36
				c0-1.27,0.26-2.38,0.77-3.31s1.2-1.65,2.04-2.16c0.84-0.51,1.74-0.76,2.69-0.76c1.12,0,1.97,0.19,2.54,0.56
				c0.58,0.37,1.05,0.78,1.43,1.23l-0.16,0.44l0.34-1.65h3.36v11.29h-3.62v-2.45l0.28,0.77c-0.03,0-0.14,0.1-0.31,0.3
				c-0.17,0.2-0.43,0.43-0.76,0.7c-0.34,0.27-0.75,0.5-1.24,0.7C537.13,260.03,536.55,260.13,535.88,260.13z M536.91,257.19
				c0.43,0,0.82-0.06,1.16-0.19c0.34-0.13,0.65-0.32,0.9-0.57c0.26-0.25,0.48-0.56,0.67-0.94v-2.76c-0.14-0.38-0.34-0.7-0.62-0.97
				c-0.28-0.27-0.6-0.47-0.98-0.62c-0.38-0.15-0.8-0.22-1.27-0.22c-0.52,0-0.99,0.13-1.43,0.4c-0.44,0.27-0.79,0.63-1.05,1.1
				c-0.26,0.46-0.39,1-0.39,1.6c0,0.6,0.14,1.15,0.41,1.63c0.27,0.48,0.64,0.86,1.1,1.14S536.38,257.19,536.91,257.19z"/>
			<path class="st63" d="M547.01,265.27l-2.09-2.25c0.52-0.38,0.92-0.84,1.2-1.39c0.28-0.55,0.43-1.22,0.43-2.01v-11.08h3.62v11.29
				c0,1.34-0.24,2.46-0.72,3.34C548.95,264.05,548.14,264.76,547.01,265.27z M546.41,244.53c0-0.53,0.21-0.97,0.63-1.32
				c0.42-0.34,0.87-0.52,1.36-0.52s0.93,0.17,1.33,0.52c0.4,0.34,0.61,0.78,0.61,1.32c0,0.53-0.2,0.97-0.61,1.3
				c-0.4,0.34-0.85,0.5-1.33,0.5s-0.93-0.17-1.36-0.5C546.62,245.5,546.41,245.07,546.41,244.53z"/>
			<path class="st63" d="M558.28,260.13c-1.05,0-2-0.21-2.85-0.63c-0.85-0.42-1.53-1.07-2.03-1.95c-0.5-0.88-0.75-2-0.75-3.36
				c0-1.27,0.26-2.38,0.77-3.31s1.2-1.65,2.04-2.16c0.84-0.51,1.74-0.76,2.69-0.76c1.12,0,1.97,0.19,2.54,0.56
				c0.58,0.37,1.05,0.78,1.43,1.23l-0.16,0.44l0.34-1.65h3.36v11.29h-3.62v-2.45l0.28,0.77c-0.03,0-0.14,0.1-0.31,0.3
				c-0.17,0.2-0.43,0.43-0.76,0.7c-0.34,0.27-0.75,0.5-1.24,0.7C559.53,260.03,558.95,260.13,558.28,260.13z M559.31,257.19
				c0.43,0,0.82-0.06,1.16-0.19c0.34-0.13,0.65-0.32,0.9-0.57c0.26-0.25,0.48-0.56,0.67-0.94v-2.76c-0.14-0.38-0.34-0.7-0.62-0.97
				c-0.28-0.27-0.6-0.47-0.98-0.62c-0.38-0.15-0.8-0.22-1.27-0.22c-0.52,0-0.99,0.13-1.43,0.4c-0.44,0.27-0.79,0.63-1.05,1.1
				c-0.26,0.46-0.39,1-0.39,1.6c0,0.6,0.14,1.15,0.41,1.63c0.27,0.48,0.64,0.86,1.1,1.14S558.78,257.19,559.31,257.19z"/>
			<path class="st63" d="M572.44,260.06c-0.93,0-1.79-0.16-2.6-0.49s-1.48-0.78-2.03-1.37l1.5-1.99c0.55,0.5,1.06,0.86,1.54,1.07
				c0.47,0.22,0.9,0.32,1.28,0.32c0.29,0,0.56-0.03,0.79-0.09c0.23-0.06,0.42-0.15,0.55-0.28c0.14-0.13,0.21-0.3,0.21-0.5
				c0-0.29-0.12-0.52-0.35-0.7c-0.23-0.17-0.53-0.31-0.89-0.43c-0.36-0.11-0.75-0.23-1.16-0.35c-1.03-0.33-1.78-0.8-2.23-1.43
				c-0.46-0.63-0.68-1.31-0.68-2.05c0-0.57,0.15-1.14,0.45-1.72c0.3-0.58,0.78-1.06,1.45-1.45c0.66-0.39,1.52-0.58,2.57-0.58
				c0.95,0,1.75,0.09,2.4,0.28s1.27,0.5,1.86,0.93l-1.37,2.12c-0.33-0.26-0.69-0.48-1.1-0.66c-0.4-0.18-0.78-0.28-1.12-0.3
				c-0.31-0.02-0.57,0.02-0.79,0.1c-0.21,0.09-0.38,0.2-0.5,0.34c-0.12,0.14-0.18,0.28-0.18,0.44c-0.02,0.33,0.11,0.59,0.38,0.77
				c0.27,0.19,0.61,0.34,1.02,0.44c0.41,0.1,0.82,0.22,1.21,0.36c0.55,0.17,1.02,0.4,1.42,0.7c0.4,0.29,0.7,0.64,0.92,1.05
				c0.21,0.4,0.32,0.89,0.32,1.46c0,0.69-0.18,1.34-0.53,1.95c-0.35,0.61-0.89,1.11-1.6,1.48
				C574.44,259.87,573.54,260.06,572.44,260.06z"/>
			<path class="st63" d="M593.3,260.13c-1.05,0-1.99-0.25-2.82-0.74s-1.48-1.2-1.95-2.13c-0.47-0.93-0.71-2.03-0.71-3.31
				c0-1.27,0.26-2.36,0.77-3.25c0.52-0.9,1.22-1.58,2.12-2.04c0.89-0.46,1.91-0.7,3.05-0.7c0.72,0,1.42,0.11,2.08,0.34
				c0.66,0.22,1.22,0.57,1.67,1.03v1.14v-11.03h3.59v20.38h-3.62v-2.2l0.28,0.77c-0.59,0.48-1.24,0.89-1.96,1.23
				C595.08,259.97,594.25,260.13,593.3,260.13z M594.49,257.09c0.48,0,0.91-0.06,1.28-0.19c0.37-0.13,0.7-0.32,0.98-0.57
				c0.28-0.25,0.53-0.56,0.74-0.94v-2.76c-0.14-0.38-0.35-0.7-0.63-0.97c-0.28-0.27-0.63-0.47-1.03-0.62
				c-0.4-0.15-0.85-0.22-1.33-0.22c-0.53,0-1.03,0.13-1.49,0.4c-0.46,0.27-0.82,0.63-1.1,1.1c-0.28,0.46-0.41,1-0.41,1.6
				s0.14,1.15,0.41,1.63c0.27,0.48,0.64,0.86,1.1,1.14C593.46,256.95,593.96,257.09,594.49,257.09z"/>
			<path class="st63" d="M610,260.13c-1.38,0-2.54-0.26-3.5-0.77c-0.96-0.52-1.68-1.23-2.18-2.14c-0.5-0.91-0.75-1.96-0.75-3.15
				c0-1.14,0.29-2.16,0.88-3.07s1.37-1.64,2.35-2.18s2.07-0.81,3.28-0.81c1.62,0,2.95,0.47,3.99,1.41s1.72,2.29,2.03,4.07
				l-8.78,2.79l-0.8-1.96l6.35-2.14l-0.75,0.34c-0.14-0.45-0.38-0.84-0.74-1.17c-0.35-0.34-0.88-0.5-1.59-0.5
				c-0.53,0-1,0.13-1.41,0.37c-0.4,0.25-0.71,0.6-0.93,1.06c-0.22,0.46-0.32,0.99-0.32,1.61c0,0.71,0.13,1.3,0.39,1.77
				c0.26,0.47,0.61,0.83,1.06,1.07c0.45,0.24,0.95,0.36,1.5,0.36c0.4,0,0.78-0.07,1.15-0.21c0.37-0.14,0.74-0.32,1.1-0.54l1.6,2.69
				c-0.6,0.34-1.25,0.62-1.95,0.83S610.62,260.13,610,260.13z"/>
			<path class="st63" d="M419.56,289.81c-0.5,0.4-1.12,0.71-1.87,0.96c-0.75,0.24-1.48,0.36-2.21,0.36c-1.29,0-2.42-0.24-3.37-0.71
				c-0.96-0.47-1.7-1.15-2.22-2.04c-0.53-0.89-0.79-1.96-0.79-3.22c0-1.26,0.28-2.33,0.85-3.22c0.57-0.89,1.31-1.56,2.23-2.03
				s1.89-0.7,2.91-0.7c1.02,0,1.9,0.14,2.65,0.41c0.75,0.28,1.39,0.64,1.92,1.08l-1.76,2.32c-0.24-0.19-0.57-0.38-0.99-0.58
				c-0.42-0.2-0.92-0.3-1.49-0.3c-0.5,0-0.96,0.13-1.37,0.39s-0.74,0.61-0.98,1.06c-0.24,0.45-0.36,0.96-0.36,1.55
				c0,0.55,0.13,1.06,0.39,1.52c0.26,0.46,0.62,0.83,1.07,1.1c0.46,0.27,0.99,0.4,1.61,0.4c0.4,0,0.76-0.06,1.1-0.17
				c0.33-0.11,0.62-0.27,0.87-0.48L419.56,289.81z"/>
			<path class="st63" d="M426.48,291.13c-1.05,0-2-0.21-2.85-0.63c-0.85-0.42-1.53-1.07-2.03-1.95c-0.5-0.88-0.75-2-0.75-3.36
				c0-1.27,0.26-2.38,0.77-3.31s1.2-1.65,2.04-2.16c0.84-0.51,1.74-0.76,2.69-0.76c1.12,0,1.97,0.19,2.54,0.56
				c0.58,0.37,1.05,0.78,1.43,1.23l-0.16,0.44l0.34-1.65h3.36v11.29h-3.62v-2.45l0.28,0.77c-0.03,0-0.14,0.1-0.31,0.3
				c-0.17,0.2-0.43,0.43-0.76,0.7c-0.34,0.27-0.75,0.5-1.24,0.7C427.73,291.03,427.15,291.13,426.48,291.13z M427.51,288.18
				c0.43,0,0.82-0.06,1.16-0.19c0.34-0.13,0.65-0.32,0.9-0.57c0.26-0.25,0.48-0.56,0.67-0.94v-2.76c-0.14-0.38-0.34-0.7-0.62-0.97
				c-0.28-0.27-0.6-0.47-0.98-0.62c-0.38-0.15-0.8-0.22-1.27-0.22c-0.52,0-0.99,0.13-1.43,0.4c-0.44,0.27-0.79,0.63-1.05,1.1
				c-0.26,0.46-0.39,1-0.39,1.6c0,0.6,0.14,1.15,0.41,1.63c0.27,0.48,0.64,0.86,1.1,1.14S426.98,288.18,427.51,288.18z"/>
			<path class="st63" d="M440.22,279.53l0.34,3.1l-0.08-0.46c0.33-0.67,0.77-1.24,1.34-1.72s1.13-0.84,1.69-1.1
				c0.56-0.26,0.99-0.39,1.28-0.39l-0.18,3.62c-0.84-0.1-1.57,0.03-2.17,0.41c-0.6,0.38-1.07,0.88-1.39,1.5
				c-0.33,0.62-0.49,1.26-0.49,1.91v4.42h-3.59v-11.29H440.22z"/>
			<path class="st63" d="M448.72,274.57h3.62v4.91h2.74v2.81h-2.74v8.52h-3.62v-8.52h-1.76v-2.81h1.76V274.57z"/>
			<path class="st63" d="M456.33,285.03c0-1.15,0.27-2.19,0.81-3.1s1.3-1.63,2.29-2.16c0.98-0.52,2.11-0.79,3.38-0.79
				c1.29,0,2.41,0.26,3.36,0.79c0.95,0.53,1.67,1.24,2.18,2.16s0.76,1.95,0.76,3.1c0,1.15-0.25,2.19-0.76,3.11s-1.24,1.65-2.18,2.18
				c-0.95,0.53-2.08,0.8-3.41,0.8c-1.24,0-2.35-0.24-3.32-0.72c-0.97-0.48-1.74-1.18-2.29-2.09
				C456.61,287.4,456.33,286.31,456.33,285.03z M459.98,285.06c0,0.59,0.12,1.11,0.36,1.59s0.57,0.85,0.98,1.12s0.88,0.41,1.39,0.41
				c0.57,0,1.06-0.14,1.47-0.41s0.73-0.65,0.96-1.12s0.34-1,0.34-1.59c0-0.6-0.11-1.14-0.34-1.6c-0.22-0.47-0.54-0.83-0.96-1.11
				c-0.41-0.28-0.9-0.41-1.47-0.41c-0.52,0-0.98,0.14-1.39,0.41c-0.41,0.28-0.74,0.65-0.98,1.11
				C460.1,283.92,459.98,284.45,459.98,285.06z M466.53,274.18l-3.82,3.49h-2.2l2.01-3.49H466.53z"/>
			<path class="st63" d="M474.87,279.53l0.28,2.01l-0.05-0.18c0.4-0.71,0.96-1.28,1.68-1.72c0.72-0.44,1.61-0.66,2.66-0.66
				c1.07,0,1.96,0.31,2.67,0.94c0.71,0.63,1.08,1.44,1.1,2.44v8.45h-3.62v-7.1c-0.02-0.5-0.15-0.9-0.4-1.2
				c-0.25-0.3-0.67-0.45-1.25-0.45c-0.55,0-1.03,0.18-1.45,0.54c-0.41,0.36-0.73,0.85-0.96,1.47s-0.33,1.33-0.33,2.14v4.6h-3.62
				v-11.29H474.87z"/>
			<path class="st63" d="M499.25,290.87l-5.53-11.34h4.06l4.26,9.53L499.25,290.87z M496.23,296.24l7.52-16.71h3.25l-7.28,16.71
				H496.23z"/>
			<path class="st63" d="M522.26,291.13c-1.05,0-2-0.21-2.85-0.63c-0.85-0.42-1.53-1.07-2.03-1.95c-0.5-0.88-0.75-2-0.75-3.36
				c0-1.27,0.26-2.38,0.77-3.31s1.2-1.65,2.04-2.16c0.84-0.51,1.74-0.76,2.69-0.76c1.12,0,1.97,0.19,2.54,0.56
				c0.58,0.37,1.05,0.78,1.43,1.23l-0.16,0.44l0.34-1.65h3.36v11.29h-3.62v-2.45l0.28,0.77c-0.03,0-0.14,0.1-0.31,0.3
				c-0.17,0.2-0.43,0.43-0.76,0.7c-0.34,0.27-0.75,0.5-1.24,0.7C523.51,291.03,522.93,291.13,522.26,291.13z M523.29,288.18
				c0.43,0,0.82-0.06,1.16-0.19c0.34-0.13,0.65-0.32,0.9-0.57c0.26-0.25,0.48-0.56,0.67-0.94v-2.76c-0.14-0.38-0.34-0.7-0.62-0.97
				c-0.28-0.27-0.6-0.47-0.98-0.62c-0.38-0.15-0.8-0.22-1.27-0.22c-0.52,0-0.99,0.13-1.43,0.4c-0.44,0.27-0.79,0.63-1.05,1.1
				c-0.26,0.46-0.39,1-0.39,1.6c0,0.6,0.14,1.15,0.41,1.63c0.27,0.48,0.64,0.86,1.1,1.14S522.76,288.18,523.29,288.18z"/>
			<path class="st63" d="M537.61,291.13c-1.05,0-1.99-0.25-2.82-0.74s-1.48-1.2-1.95-2.13c-0.47-0.93-0.71-2.03-0.71-3.31
				c0-1.27,0.26-2.36,0.77-3.25c0.52-0.9,1.22-1.58,2.12-2.04c0.89-0.46,1.91-0.7,3.05-0.7c0.72,0,1.42,0.11,2.08,0.34
				c0.66,0.22,1.22,0.57,1.67,1.03v1.14v-11.03h3.59v20.38h-3.62v-2.2l0.28,0.77c-0.59,0.48-1.24,0.89-1.96,1.23
				C539.4,290.96,538.56,291.13,537.61,291.13z M538.8,288.08c0.48,0,0.91-0.06,1.28-0.19c0.37-0.13,0.7-0.32,0.98-0.57
				c0.28-0.25,0.53-0.56,0.74-0.94v-2.76c-0.14-0.38-0.35-0.7-0.63-0.97c-0.28-0.27-0.63-0.47-1.03-0.62
				c-0.4-0.15-0.85-0.22-1.33-0.22c-0.53,0-1.03,0.13-1.49,0.4c-0.46,0.27-0.82,0.63-1.1,1.1c-0.28,0.46-0.41,1-0.41,1.6
				s0.14,1.15,0.41,1.63c0.27,0.48,0.64,0.86,1.1,1.14C537.77,287.94,538.27,288.08,538.8,288.08z"/>
			<path class="st63" d="M553.29,291.13c-0.96,0-1.86-0.23-2.67-0.7c-0.82-0.46-1.47-1.14-1.96-2.03c-0.49-0.89-0.74-1.97-0.74-3.24
				c0-1.29,0.28-2.4,0.83-3.32c0.55-0.92,1.27-1.63,2.16-2.13c0.89-0.5,1.85-0.75,2.88-0.75c0.96,0,1.76,0.16,2.4,0.48
				c0.64,0.32,1.2,0.74,1.68,1.25l-0.28,0.77v-2.2h3.62v16.97h-3.59v-7.62l0.05,1.16c-0.45,0.38-1.05,0.7-1.79,0.96
				S554.26,291.13,553.29,291.13z M554.58,288.28c0.48,0,0.93-0.07,1.33-0.22c0.4-0.15,0.75-0.36,1.03-0.63s0.5-0.59,0.63-0.96
				v-2.76c-0.21-0.38-0.45-0.69-0.74-0.94s-0.61-0.44-0.98-0.57c-0.37-0.13-0.8-0.19-1.28-0.19c-0.53,0-1.03,0.14-1.49,0.41
				s-0.82,0.65-1.1,1.14c-0.28,0.48-0.41,1.02-0.41,1.63c0,0.6,0.14,1.14,0.41,1.6c0.27,0.46,0.64,0.83,1.1,1.1
				S554.05,288.28,554.58,288.28z"/>
			<path class="st63" d="M567.94,291.36c-1.02,0-1.87-0.31-2.56-0.94s-1.05-1.44-1.08-2.44v-8.45h3.62v7.1
				c0.03,0.5,0.16,0.9,0.39,1.2s0.6,0.45,1.14,0.45c0.53,0,0.99-0.18,1.38-0.54c0.39-0.36,0.69-0.86,0.9-1.49
				c0.22-0.63,0.32-1.34,0.32-2.13v-4.6h3.62v11.29h-3.28l-0.28-2.07l0.05,0.23c-0.26,0.46-0.59,0.88-0.98,1.24
				c-0.4,0.36-0.87,0.64-1.41,0.84C569.22,291.26,568.61,291.36,567.94,291.36z"/>
			<path class="st63" d="M578.71,275.53c0-0.53,0.21-0.97,0.63-1.32c0.42-0.34,0.87-0.52,1.36-0.52s0.93,0.17,1.33,0.52
				c0.4,0.34,0.61,0.78,0.61,1.32c0,0.53-0.2,0.97-0.61,1.3c-0.4,0.34-0.85,0.5-1.33,0.5s-0.93-0.17-1.36-0.5
				C578.92,276.49,578.71,276.06,578.71,275.53z M578.79,279.53h3.62v11.29h-3.62V279.53z"/>
			<path class="st63" d="M591.25,291.13c-1.38,0-2.54-0.26-3.5-0.77c-0.96-0.52-1.68-1.23-2.18-2.14c-0.5-0.91-0.75-1.96-0.75-3.15
				c0-1.14,0.29-2.16,0.88-3.07s1.37-1.64,2.35-2.18s2.07-0.81,3.28-0.81c1.62,0,2.95,0.47,3.99,1.41s1.72,2.29,2.03,4.07
				l-8.78,2.79l-0.8-1.96l6.35-2.14l-0.75,0.34c-0.14-0.45-0.38-0.84-0.74-1.17c-0.35-0.34-0.88-0.5-1.59-0.5
				c-0.53,0-1,0.13-1.41,0.37c-0.4,0.25-0.71,0.6-0.93,1.06c-0.22,0.46-0.32,0.99-0.32,1.61c0,0.71,0.13,1.3,0.39,1.77
				c0.26,0.47,0.61,0.83,1.06,1.07c0.45,0.24,0.95,0.36,1.5,0.36c0.4,0,0.78-0.07,1.15-0.21c0.37-0.14,0.74-0.32,1.1-0.54l1.6,2.69
				c-0.6,0.34-1.25,0.62-1.95,0.83S591.87,291.13,591.25,291.13z"/>
			<path class="st63" d="M602.69,279.53l0.34,3.1l-0.08-0.46c0.33-0.67,0.77-1.24,1.34-1.72s1.13-0.84,1.69-1.1
				c0.56-0.26,0.99-0.39,1.28-0.39l-0.18,3.62c-0.84-0.1-1.57,0.03-2.17,0.41c-0.6,0.38-1.07,0.88-1.39,1.5
				c-0.33,0.62-0.49,1.26-0.49,1.91v4.42h-3.59v-11.29H602.69z"/>
			<path class="st63" d="M614.58,291.13c-1.38,0-2.54-0.26-3.5-0.77c-0.96-0.52-1.68-1.23-2.18-2.14c-0.5-0.91-0.75-1.96-0.75-3.15
				c0-1.14,0.29-2.16,0.88-3.07s1.37-1.64,2.35-2.18s2.07-0.81,3.28-0.81c1.62,0,2.95,0.47,3.99,1.41s1.72,2.29,2.03,4.07
				l-8.78,2.79l-0.8-1.96l6.35-2.14l-0.75,0.34c-0.14-0.45-0.38-0.84-0.74-1.17c-0.35-0.34-0.88-0.5-1.59-0.5
				c-0.53,0-1,0.13-1.41,0.37c-0.4,0.25-0.71,0.6-0.93,1.06c-0.22,0.46-0.32,0.99-0.32,1.61c0,0.71,0.13,1.3,0.39,1.77
				c0.26,0.47,0.61,0.83,1.06,1.07c0.45,0.24,0.95,0.36,1.5,0.36c0.4,0,0.78-0.07,1.15-0.21c0.37-0.14,0.74-0.32,1.1-0.54l1.6,2.69
				c-0.6,0.34-1.25,0.62-1.95,0.83S615.2,291.13,614.58,291.13z"/>
			<path class="st63" d="M448.26,322.12c-0.67,0-1.33-0.13-1.98-0.37s-1.18-0.61-1.61-1.07l0.1-1.06v7.62h-3.59v-16.97h3.1l0.52,2.2
				l-0.28-0.77c0.58-0.5,1.24-0.91,1.96-1.24c0.72-0.33,1.56-0.49,2.5-0.49c1.05,0,1.99,0.25,2.82,0.74
				c0.83,0.49,1.48,1.2,1.95,2.12c0.47,0.92,0.71,2.03,0.71,3.32c0,1.27-0.27,2.36-0.8,3.25c-0.53,0.9-1.27,1.58-2.2,2.04
				S449.46,322.12,448.26,322.12z M447.53,319.28c0.58,0,1.12-0.13,1.61-0.39c0.49-0.26,0.89-0.62,1.19-1.1
				c0.3-0.47,0.45-1.01,0.45-1.61c0-0.64-0.13-1.19-0.4-1.67s-0.63-0.84-1.08-1.11c-0.46-0.27-0.96-0.4-1.51-0.4
				c-0.48,0-0.91,0.06-1.28,0.19c-0.37,0.13-0.7,0.32-0.98,0.57s-0.53,0.56-0.74,0.94v2.76c0.14,0.36,0.33,0.68,0.59,0.96
				c0.26,0.28,0.57,0.49,0.94,0.63C446.7,319.2,447.1,319.28,447.53,319.28z"/>
			<path class="st63" d="M460.53,322.35c-1.02,0-1.87-0.31-2.56-0.94s-1.05-1.44-1.08-2.44v-8.45h3.62v7.1
				c0.03,0.5,0.16,0.9,0.39,1.2s0.6,0.45,1.14,0.45c0.53,0,0.99-0.18,1.38-0.54c0.39-0.36,0.69-0.86,0.9-1.49
				c0.22-0.63,0.32-1.34,0.32-2.13v-4.6h3.62v11.29h-3.28l-0.28-2.07l0.05,0.23c-0.26,0.46-0.59,0.88-0.98,1.24
				c-0.4,0.36-0.87,0.64-1.41,0.84C461.81,322.25,461.2,322.35,460.53,322.35z"/>
			<path class="st63" d="M474.63,310.52l0.28,2.01l-0.05-0.18c0.4-0.71,0.96-1.28,1.68-1.72c0.72-0.44,1.61-0.66,2.66-0.66
				c1.07,0,1.96,0.31,2.67,0.94c0.71,0.63,1.08,1.44,1.1,2.44v8.45h-3.62v-7.1c-0.02-0.5-0.15-0.9-0.4-1.2
				c-0.25-0.3-0.67-0.45-1.25-0.45c-0.55,0-1.03,0.18-1.45,0.54c-0.41,0.36-0.73,0.85-0.96,1.47s-0.33,1.33-0.33,2.14v4.6h-3.62
				v-11.29H474.63z"/>
			<path class="st63" d="M486.94,305.56h3.62v4.91h2.74v2.81h-2.74v8.52h-3.62v-8.52h-1.76v-2.81h1.76V305.56z"/>
			<path class="st63" d="M494.55,316.02c0-1.15,0.27-2.19,0.81-3.1s1.3-1.63,2.29-2.16c0.98-0.52,2.11-0.79,3.38-0.79
				c1.29,0,2.41,0.26,3.36,0.79c0.95,0.53,1.67,1.24,2.18,2.16s0.76,1.95,0.76,3.1c0,1.15-0.25,2.19-0.76,3.11s-1.24,1.65-2.18,2.18
				c-0.95,0.53-2.08,0.8-3.41,0.8c-1.24,0-2.35-0.24-3.32-0.72c-0.97-0.48-1.74-1.18-2.29-2.09
				C494.82,318.39,494.55,317.3,494.55,316.02z M498.19,316.05c0,0.59,0.12,1.11,0.36,1.59s0.57,0.85,0.98,1.12s0.88,0.41,1.39,0.41
				c0.57,0,1.06-0.14,1.47-0.41s0.73-0.65,0.96-1.12s0.34-1,0.34-1.59c0-0.6-0.11-1.14-0.34-1.6c-0.22-0.47-0.54-0.83-0.96-1.11
				c-0.41-0.28-0.9-0.41-1.47-0.41c-0.52,0-0.98,0.14-1.39,0.41c-0.41,0.28-0.74,0.65-0.98,1.11
				C498.31,314.91,498.19,315.45,498.19,316.05z"/>
			<path class="st63" d="M513.38,322.04c-0.93,0-1.79-0.16-2.6-0.49s-1.48-0.78-2.03-1.37l1.5-1.99c0.55,0.5,1.06,0.86,1.54,1.07
				c0.47,0.22,0.9,0.32,1.28,0.32c0.29,0,0.56-0.03,0.79-0.09c0.23-0.06,0.42-0.15,0.55-0.28c0.14-0.13,0.21-0.3,0.21-0.5
				c0-0.29-0.12-0.52-0.35-0.7c-0.23-0.17-0.53-0.31-0.89-0.43c-0.36-0.11-0.75-0.23-1.16-0.35c-1.03-0.33-1.78-0.8-2.23-1.43
				c-0.46-0.63-0.68-1.31-0.68-2.05c0-0.57,0.15-1.14,0.45-1.72c0.3-0.58,0.78-1.06,1.45-1.45c0.66-0.39,1.52-0.58,2.57-0.58
				c0.95,0,1.75,0.09,2.4,0.28s1.27,0.5,1.86,0.93l-1.37,2.12c-0.33-0.26-0.69-0.48-1.1-0.66c-0.4-0.18-0.78-0.28-1.12-0.3
				c-0.31-0.02-0.57,0.02-0.79,0.1c-0.21,0.09-0.38,0.2-0.5,0.34c-0.12,0.14-0.18,0.28-0.18,0.44c-0.02,0.33,0.11,0.59,0.38,0.77
				c0.27,0.19,0.61,0.34,1.02,0.44c0.41,0.1,0.82,0.22,1.21,0.36c0.55,0.17,1.02,0.4,1.42,0.7c0.4,0.29,0.7,0.64,0.92,1.05
				c0.21,0.4,0.32,0.89,0.32,1.46c0,0.69-0.18,1.34-0.53,1.95c-0.35,0.61-0.89,1.11-1.6,1.48
				C515.39,321.85,514.48,322.04,513.38,322.04z"/>
			<path class="st63" d="M535.2,322.12c-1.38,0-2.54-0.26-3.5-0.77c-0.96-0.52-1.68-1.23-2.18-2.14c-0.5-0.91-0.75-1.96-0.75-3.15
				c0-1.14,0.29-2.16,0.88-3.07s1.37-1.64,2.35-2.18s2.07-0.81,3.28-0.81c1.62,0,2.95,0.47,3.99,1.41s1.72,2.29,2.03,4.07
				l-8.78,2.79l-0.8-1.96l6.35-2.14l-0.75,0.34c-0.14-0.45-0.38-0.84-0.74-1.17c-0.35-0.34-0.88-0.5-1.59-0.5
				c-0.53,0-1,0.13-1.41,0.37c-0.4,0.25-0.71,0.6-0.93,1.06c-0.22,0.46-0.32,0.99-0.32,1.61c0,0.71,0.13,1.3,0.39,1.77
				c0.26,0.47,0.61,0.83,1.06,1.07c0.45,0.24,0.95,0.36,1.5,0.36c0.4,0,0.78-0.07,1.15-0.21c0.37-0.14,0.74-0.32,1.1-0.54l1.6,2.69
				c-0.6,0.34-1.25,0.62-1.95,0.83S535.82,322.12,535.2,322.12z"/>
			<path class="st63" d="M546.68,310.52l0.28,2.01l-0.05-0.18c0.4-0.71,0.96-1.28,1.68-1.72c0.72-0.44,1.61-0.66,2.66-0.66
				c1.07,0,1.96,0.31,2.67,0.94c0.71,0.63,1.08,1.44,1.1,2.44v8.45h-3.62v-7.1c-0.02-0.5-0.15-0.9-0.4-1.2
				c-0.25-0.3-0.67-0.45-1.25-0.45c-0.55,0-1.03,0.18-1.45,0.54c-0.41,0.36-0.73,0.85-0.96,1.47s-0.33,1.33-0.33,2.14v4.6h-3.62
				v-11.29H546.68z"/>
			<path class="st63" d="M568.19,305.56h3.62v4.91h2.74v2.81h-2.74v8.52h-3.62v-8.52h-1.76v-2.81h1.76V305.56z"/>
			<path class="st63" d="M580.66,322.35c-1.02,0-1.87-0.31-2.56-0.94s-1.05-1.44-1.08-2.44v-8.45h3.62v7.1
				c0.03,0.5,0.16,0.9,0.39,1.2s0.6,0.45,1.14,0.45c0.53,0,0.99-0.18,1.38-0.54c0.39-0.36,0.69-0.86,0.9-1.49
				c0.22-0.63,0.32-1.34,0.32-2.13v-4.6h3.62v11.29h-3.28l-0.28-2.07l0.05,0.23c-0.26,0.46-0.59,0.88-0.98,1.24
				c-0.4,0.36-0.87,0.64-1.41,0.84C581.94,322.25,581.33,322.35,580.66,322.35z"/>
			<path class="st63" d="M398.91,353.11c-0.67,0-1.33-0.13-1.98-0.37s-1.18-0.61-1.61-1.07l0.1-1.06v7.62h-3.59v-16.97h3.1l0.52,2.2
				l-0.28-0.77c0.58-0.5,1.24-0.91,1.96-1.24c0.72-0.33,1.56-0.49,2.5-0.49c1.05,0,1.99,0.25,2.82,0.74
				c0.83,0.49,1.48,1.2,1.95,2.12c0.47,0.92,0.71,2.03,0.71,3.32c0,1.27-0.27,2.36-0.8,3.25c-0.53,0.9-1.27,1.58-2.2,2.04
				S400.12,353.11,398.91,353.11z M398.19,350.27c0.58,0,1.12-0.13,1.61-0.39c0.49-0.26,0.89-0.62,1.19-1.1
				c0.3-0.47,0.45-1.01,0.45-1.61c0-0.64-0.13-1.19-0.4-1.67s-0.63-0.84-1.08-1.11c-0.46-0.27-0.96-0.4-1.51-0.4
				c-0.48,0-0.91,0.06-1.28,0.19c-0.37,0.13-0.7,0.32-0.98,0.57s-0.53,0.56-0.74,0.94v2.76c0.14,0.36,0.33,0.68,0.59,0.96
				c0.26,0.28,0.57,0.49,0.94,0.63C397.36,350.2,397.76,350.27,398.19,350.27z"/>
			<path class="st63" d="M410.83,341.51l0.34,3.1l-0.08-0.46c0.33-0.67,0.77-1.24,1.34-1.72s1.13-0.84,1.69-1.1
				c0.56-0.26,0.99-0.39,1.28-0.39l-0.18,3.62c-0.84-0.1-1.57,0.03-2.17,0.41c-0.6,0.38-1.07,0.88-1.39,1.5
				c-0.33,0.62-0.49,1.26-0.49,1.91v4.42h-3.59v-11.29H410.83z"/>
			<path class="st63" d="M416.29,347.01c0-1.15,0.27-2.19,0.81-3.1s1.3-1.63,2.29-2.16c0.98-0.52,2.11-0.79,3.38-0.79
				c1.29,0,2.41,0.26,3.36,0.79c0.95,0.53,1.67,1.24,2.18,2.16s0.76,1.95,0.76,3.1c0,1.15-0.25,2.19-0.76,3.11s-1.24,1.65-2.18,2.18
				c-0.95,0.53-2.08,0.8-3.41,0.8c-1.24,0-2.35-0.24-3.32-0.72c-0.97-0.48-1.74-1.18-2.29-2.09
				C416.56,349.38,416.29,348.29,416.29,347.01z M419.93,347.04c0,0.59,0.12,1.11,0.36,1.59s0.57,0.85,0.98,1.12
				s0.88,0.41,1.39,0.41c0.57,0,1.06-0.14,1.47-0.41s0.73-0.65,0.96-1.12s0.34-1,0.34-1.59c0-0.6-0.11-1.14-0.34-1.6
				c-0.22-0.47-0.54-0.83-0.96-1.11c-0.41-0.28-0.9-0.41-1.47-0.41c-0.52,0-0.98,0.14-1.39,0.41c-0.41,0.28-0.74,0.65-0.98,1.11
				C420.05,345.9,419.93,346.44,419.93,347.04z"/>
			<path class="st63" d="M437.62,358.48c-1.02,0-1.87-0.12-2.57-0.36c-0.7-0.24-1.29-0.53-1.77-0.88c-0.48-0.34-0.91-0.67-1.29-0.98
				l2.12-2.48c0.4,0.36,0.86,0.71,1.38,1.05s1.22,0.5,2.08,0.5c0.57,0,1.1-0.1,1.59-0.3c0.49-0.2,0.89-0.49,1.19-0.87
				c0.3-0.38,0.45-0.85,0.45-1.42v-2.48l0.13,0.65c-0.28,0.59-0.77,1.1-1.5,1.54c-0.72,0.44-1.67,0.66-2.84,0.66
				c-1.02,0-1.96-0.26-2.83-0.79c-0.87-0.52-1.56-1.24-2.08-2.14c-0.52-0.9-0.77-1.93-0.77-3.09c0-1.19,0.28-2.24,0.83-3.16
				c0.55-0.92,1.27-1.65,2.14-2.18s1.81-0.8,2.79-0.8c0.98,0,1.83,0.14,2.54,0.43c0.71,0.28,1.25,0.63,1.61,1.05l-0.13,0.34
				l0.39-1.24h3.33v11.29c0,1.1-0.31,2.08-0.93,2.93c-0.62,0.85-1.44,1.52-2.47,2.01S438.86,358.48,437.62,358.48z M434.55,346.99
				c0,0.6,0.14,1.15,0.41,1.63c0.28,0.48,0.65,0.86,1.12,1.14s1,0.41,1.59,0.41c0.5,0,0.94-0.06,1.33-0.19
				c0.39-0.13,0.73-0.32,1.03-0.57c0.3-0.25,0.55-0.56,0.76-0.94v-2.76c-0.16-0.38-0.39-0.7-0.7-0.97
				c-0.31-0.27-0.67-0.47-1.07-0.62s-0.86-0.22-1.36-0.22c-0.59,0-1.12,0.13-1.59,0.4c-0.47,0.27-0.85,0.63-1.12,1.1
				S434.55,346.39,434.55,346.99z"/>
			<path class="st63" d="M450.78,341.51l0.34,3.1l-0.08-0.46c0.33-0.67,0.77-1.24,1.34-1.72s1.13-0.84,1.69-1.1
				c0.56-0.26,0.99-0.39,1.28-0.39l-0.18,3.62c-0.84-0.1-1.57,0.03-2.17,0.41c-0.6,0.38-1.07,0.88-1.39,1.5
				c-0.33,0.62-0.49,1.26-0.49,1.91v4.42h-3.59v-11.29H450.78z"/>
			<path class="st63" d="M461.92,353.11c-1.05,0-2-0.21-2.85-0.63c-0.85-0.42-1.53-1.07-2.03-1.95c-0.5-0.88-0.75-2-0.75-3.36
				c0-1.27,0.26-2.38,0.77-3.31s1.2-1.65,2.04-2.16c0.84-0.51,1.74-0.76,2.69-0.76c1.12,0,1.97,0.19,2.54,0.56
				c0.58,0.37,1.05,0.78,1.43,1.23l-0.16,0.44l0.34-1.65h3.36v11.29h-3.62v-2.45l0.28,0.77c-0.03,0-0.14,0.1-0.31,0.3
				c-0.17,0.2-0.43,0.43-0.76,0.7c-0.34,0.27-0.75,0.5-1.24,0.7C463.18,353.01,462.6,353.11,461.92,353.11z M462.96,350.17
				c0.43,0,0.82-0.06,1.16-0.19c0.34-0.13,0.65-0.32,0.9-0.57c0.26-0.25,0.48-0.56,0.67-0.94v-2.76c-0.14-0.38-0.34-0.7-0.62-0.97
				c-0.28-0.27-0.6-0.47-0.98-0.62c-0.38-0.15-0.8-0.22-1.27-0.22c-0.52,0-0.99,0.13-1.43,0.4c-0.44,0.27-0.79,0.63-1.05,1.1
				c-0.26,0.46-0.39,1-0.39,1.6c0,0.6,0.14,1.15,0.41,1.63c0.27,0.48,0.64,0.86,1.1,1.14S462.42,350.17,462.96,350.17z"/>
			<path class="st63" d="M475.69,341.51l0.28,1.99l-0.05-0.16c0.45-0.76,1.01-1.35,1.68-1.77c0.67-0.42,1.48-0.63,2.43-0.63
				c0.62,0,1.17,0.09,1.64,0.26c0.47,0.17,0.87,0.43,1.2,0.76c0.33,0.34,0.55,0.77,0.67,1.3l-0.13,0.03
				c0.48-0.71,1.06-1.27,1.74-1.7c0.68-0.43,1.39-0.65,2.13-0.65c1.12,0,2.01,0.31,2.67,0.94c0.66,0.63,1,1.44,1.02,2.44v8.47h-3.59
				v-6.97c-0.02-0.5-0.09-0.91-0.23-1.23c-0.14-0.32-0.46-0.5-0.96-0.53c-0.59,0-1.08,0.2-1.49,0.61c-0.41,0.4-0.71,0.92-0.9,1.55
				s-0.3,1.28-0.3,1.95v4.62h-3.62v-6.97c-0.02-0.5-0.11-0.91-0.27-1.23c-0.16-0.32-0.5-0.5-0.99-0.53c-0.57,0-1.05,0.2-1.43,0.61
				c-0.39,0.4-0.68,0.92-0.88,1.54c-0.2,0.62-0.3,1.26-0.3,1.91v4.67h-3.62v-11.29H475.69z"/>
			<path class="st63" d="M499.07,353.11c-1.05,0-2-0.21-2.85-0.63c-0.85-0.42-1.53-1.07-2.03-1.95c-0.5-0.88-0.75-2-0.75-3.36
				c0-1.27,0.26-2.38,0.77-3.31s1.2-1.65,2.04-2.16c0.84-0.51,1.74-0.76,2.69-0.76c1.12,0,1.97,0.19,2.54,0.56
				c0.58,0.37,1.05,0.78,1.43,1.23l-0.16,0.44l0.34-1.65h3.36v11.29h-3.62v-2.45l0.28,0.77c-0.03,0-0.14,0.1-0.31,0.3
				c-0.17,0.2-0.43,0.43-0.76,0.7c-0.34,0.27-0.75,0.5-1.24,0.7C500.32,353.01,499.74,353.11,499.07,353.11z M500.1,350.17
				c0.43,0,0.82-0.06,1.16-0.19c0.34-0.13,0.65-0.32,0.9-0.57c0.26-0.25,0.48-0.56,0.67-0.94v-2.76c-0.14-0.38-0.34-0.7-0.62-0.97
				c-0.28-0.27-0.6-0.47-0.98-0.62c-0.38-0.15-0.8-0.22-1.27-0.22c-0.52,0-0.99,0.13-1.43,0.4c-0.44,0.27-0.79,0.63-1.05,1.1
				c-0.26,0.46-0.39,1-0.39,1.6c0,0.6,0.14,1.15,0.41,1.63c0.27,0.48,0.64,0.86,1.1,1.14S499.57,350.17,500.1,350.17z"/>
			<path class="st63" d="M523.17,353.11c-1.05,0-1.99-0.25-2.82-0.74s-1.48-1.2-1.95-2.13c-0.47-0.93-0.71-2.03-0.71-3.31
				c0-1.27,0.26-2.36,0.77-3.25c0.52-0.9,1.22-1.58,2.12-2.04c0.89-0.46,1.91-0.7,3.05-0.7c0.72,0,1.42,0.11,2.08,0.34
				c0.66,0.22,1.22,0.57,1.67,1.03v1.14v-11.03h3.59v20.38h-3.62v-2.2l0.28,0.77c-0.59,0.48-1.24,0.89-1.96,1.23
				C524.95,352.94,524.11,353.11,523.17,353.11z M524.35,350.06c0.48,0,0.91-0.06,1.28-0.19c0.37-0.13,0.7-0.32,0.98-0.57
				c0.28-0.25,0.53-0.56,0.74-0.94v-2.76c-0.14-0.38-0.35-0.7-0.63-0.97c-0.28-0.27-0.63-0.47-1.03-0.62
				c-0.4-0.15-0.85-0.22-1.33-0.22c-0.53,0-1.03,0.13-1.49,0.4c-0.46,0.27-0.82,0.63-1.1,1.1c-0.28,0.46-0.41,1-0.41,1.6
				s0.14,1.15,0.41,1.63c0.27,0.48,0.64,0.86,1.1,1.14C523.32,349.92,523.82,350.06,524.35,350.06z"/>
			<path class="st63" d="M539.86,353.11c-1.38,0-2.54-0.26-3.5-0.77c-0.96-0.52-1.68-1.23-2.18-2.14c-0.5-0.91-0.75-1.96-0.75-3.15
				c0-1.14,0.29-2.16,0.88-3.07s1.37-1.64,2.35-2.18s2.07-0.81,3.28-0.81c1.62,0,2.95,0.47,3.99,1.41s1.72,2.29,2.03,4.07
				l-8.78,2.79l-0.8-1.96l6.35-2.14l-0.75,0.34c-0.14-0.45-0.38-0.84-0.74-1.17c-0.35-0.34-0.88-0.5-1.59-0.5
				c-0.53,0-1,0.13-1.41,0.37c-0.4,0.25-0.71,0.6-0.93,1.06c-0.22,0.46-0.32,0.99-0.32,1.61c0,0.71,0.13,1.3,0.39,1.77
				c0.26,0.47,0.61,0.83,1.06,1.07c0.45,0.24,0.95,0.36,1.5,0.36c0.4,0,0.78-0.07,1.15-0.21c0.37-0.14,0.74-0.32,1.1-0.54l1.6,2.69
				c-0.6,0.34-1.25,0.62-1.95,0.83S540.48,353.11,539.86,353.11z"/>
			<path class="st63" d="M556.99,332.42h3.62v20.38h-3.62V332.42z"/>
			<path class="st63" d="M569.53,353.11c-1.38,0-2.54-0.26-3.5-0.77c-0.96-0.52-1.68-1.23-2.18-2.14c-0.5-0.91-0.75-1.96-0.75-3.15
				c0-1.14,0.29-2.16,0.88-3.07s1.37-1.64,2.35-2.18s2.07-0.81,3.28-0.81c1.62,0,2.95,0.47,3.99,1.41s1.72,2.29,2.03,4.07
				l-8.78,2.79l-0.8-1.96l6.35-2.14l-0.75,0.34c-0.14-0.45-0.38-0.84-0.74-1.17c-0.35-0.34-0.88-0.5-1.59-0.5
				c-0.53,0-1,0.13-1.41,0.37c-0.4,0.25-0.71,0.6-0.93,1.06c-0.22,0.46-0.32,0.99-0.32,1.61c0,0.71,0.13,1.3,0.39,1.77
				c0.26,0.47,0.61,0.83,1.06,1.07c0.45,0.24,0.95,0.36,1.5,0.36c0.4,0,0.78-0.07,1.15-0.21c0.37-0.14,0.74-0.32,1.1-0.54l1.6,2.69
				c-0.6,0.34-1.25,0.62-1.95,0.83S570.15,353.11,569.53,353.11z"/>
			<path class="st63" d="M582.93,353.11c-1.05,0-2-0.21-2.85-0.63c-0.85-0.42-1.53-1.07-2.03-1.95c-0.5-0.88-0.75-2-0.75-3.36
				c0-1.27,0.26-2.38,0.77-3.31s1.2-1.65,2.04-2.16c0.84-0.51,1.74-0.76,2.69-0.76c1.12,0,1.97,0.19,2.54,0.56
				c0.58,0.37,1.05,0.78,1.43,1.23l-0.16,0.44l0.34-1.65h3.36v11.29h-3.62v-2.45l0.28,0.77c-0.03,0-0.14,0.1-0.31,0.3
				c-0.17,0.2-0.43,0.43-0.76,0.7c-0.34,0.27-0.75,0.5-1.24,0.7C584.19,353.01,583.61,353.11,582.93,353.11z M583.97,350.17
				c0.43,0,0.82-0.06,1.16-0.19c0.34-0.13,0.65-0.32,0.9-0.57c0.26-0.25,0.48-0.56,0.67-0.94v-2.76c-0.14-0.38-0.34-0.7-0.62-0.97
				c-0.28-0.27-0.6-0.47-0.98-0.62c-0.38-0.15-0.8-0.22-1.27-0.22c-0.52,0-0.99,0.13-1.43,0.4c-0.44,0.27-0.79,0.63-1.05,1.1
				c-0.26,0.46-0.39,1-0.39,1.6c0,0.6,0.14,1.15,0.41,1.63c0.27,0.48,0.64,0.86,1.1,1.14S583.43,350.17,583.97,350.17z"/>
			<path class="st63" d="M593.42,332.42h3.62v20.38h-3.62V332.42z"/>
			<path class="st63" d="M601.28,336.55h3.62v4.91h2.74v2.81h-2.74v8.52h-3.62v-8.52h-1.76v-2.81h1.76V336.55z"/>
			<path class="st63" d="M614.57,353.11c-1.05,0-2-0.21-2.85-0.63c-0.85-0.42-1.53-1.07-2.03-1.95c-0.5-0.88-0.75-2-0.75-3.36
				c0-1.27,0.26-2.38,0.77-3.31s1.2-1.65,2.04-2.16c0.84-0.51,1.74-0.76,2.69-0.76c1.12,0,1.97,0.19,2.54,0.56
				c0.58,0.37,1.05,0.78,1.43,1.23l-0.16,0.44l0.34-1.65h3.36v11.29h-3.62v-2.45l0.28,0.77c-0.03,0-0.14,0.1-0.31,0.3
				c-0.17,0.2-0.43,0.43-0.76,0.7c-0.34,0.27-0.75,0.5-1.24,0.7C615.82,353.01,615.24,353.11,614.57,353.11z M615.6,350.17
				c0.43,0,0.82-0.06,1.16-0.19c0.34-0.13,0.65-0.32,0.9-0.57c0.26-0.25,0.48-0.56,0.67-0.94v-2.76c-0.14-0.38-0.34-0.7-0.62-0.97
				c-0.28-0.27-0.6-0.47-0.98-0.62c-0.38-0.15-0.8-0.22-1.27-0.22c-0.52,0-0.99,0.13-1.43,0.4c-0.44,0.27-0.79,0.63-1.05,1.1
				c-0.26,0.46-0.39,1-0.39,1.6c0,0.6,0.14,1.15,0.41,1.63c0.27,0.48,0.64,0.86,1.1,1.14S615.07,350.17,615.6,350.17z"/>
			<path class="st63" d="M629.93,353.11c-1.05,0-1.99-0.25-2.82-0.74s-1.48-1.2-1.95-2.13c-0.47-0.93-0.71-2.03-0.71-3.31
				c0-1.27,0.26-2.36,0.77-3.25c0.52-0.9,1.22-1.58,2.12-2.04c0.89-0.46,1.91-0.7,3.05-0.7c0.72,0,1.42,0.11,2.08,0.34
				c0.66,0.22,1.22,0.57,1.67,1.03v1.14v-11.03h3.59v20.38h-3.62v-2.2l0.28,0.77c-0.59,0.48-1.24,0.89-1.96,1.23
				C631.71,352.94,630.87,353.11,629.93,353.11z M631.12,350.06c0.48,0,0.91-0.06,1.28-0.19c0.37-0.13,0.7-0.32,0.98-0.57
				c0.28-0.25,0.53-0.56,0.74-0.94v-2.76c-0.14-0.38-0.35-0.7-0.63-0.97c-0.28-0.27-0.63-0.47-1.03-0.62
				c-0.4-0.15-0.85-0.22-1.33-0.22c-0.53,0-1.03,0.13-1.49,0.4c-0.46,0.27-0.82,0.63-1.1,1.1c-0.28,0.46-0.41,1-0.41,1.6
				s0.14,1.15,0.41,1.63c0.27,0.48,0.64,0.86,1.1,1.14C630.09,349.92,630.58,350.06,631.12,350.06z"/>
		</g>
	</g>
</g>
</svg>
