<?xml version="1.0" encoding="utf-8"?>
<!-- Generator: Adobe Illustrator 23.0.1, SVG Export Plug-In . SVG Version: 6.00 Build 0)  -->
<svg version="1.1" id="Layer_1" xmlns="http://www.w3.org/2000/svg" xmlns:xlink="http://www.w3.org/1999/xlink" x="0px" y="0px"
	 viewBox="0 0 500 500" style="enable-background:new 0 0 500 500;" xml:space="preserve">
<style type="text/css">
	.st0{fill:#B5E2EA;}
	.st1{fill:#DB3227;}
	.st2{fill:none;stroke:#FFFFFF;stroke-width:0.323;stroke-miterlimit:10;}
	.st3{fill:#EC6544;}
	.st4{fill:#F15B25;}
	.st5{fill:#00B8D4;}
	.st6{fill:#00B3D8;}
	.st7{fill:none;stroke:#FFFFFF;stroke-width:0.7338;stroke-miterlimit:10;}
	.st8{fill:#72BF44;}
	.st9{fill:#8BC751;}
	.st10{fill:#5CA038;}
	.st11{fill:#D0E4A4;}
	.st12{fill:none;stroke:#FFFFFF;stroke-width:0.4089;stroke-miterlimit:10;}
</style>
<g>
	<path d="M179.23,364.62c-1.63,2.65-3.35,5.19-4.81,7.87c-7.52,13.8-14.99,27.62-22.43,41.46c-2,3.71-3.85,7.49-5.76,11.25
		c-3.12,6.13-8.32,8.75-15,8.84c-11.91,0.17-18.86-13.57-12.71-23.51c6.97-11.27,14.31-22.31,22.39-32.82
		c5.96-7.75,12.09-15.37,18.43-22.8c7.14-8.36,14.9-16.14,23.07-23.51c8.91-8.04,18.29-15.46,28.39-21.97
		c11.24-7.24,23.02-13.41,35.75-17.65c7.36-2.45,14.94-3.96,22.6-5.16c19.54-3.05,39.23-3.54,58.95-3.26
		c1.58,0.02,3.15,0.14,4.82-0.1c-1.7-0.74-3.38-1.52-5.09-2.21c-9.89-4.01-20.15-6.62-30.68-8.28c-9.74-1.53-19.55-2.27-29.38-1.81
		c-7.27,0.34-14.55,1.09-21.76,2.11c-13.15,1.86-25.86,5.51-38.16,10.49c-8.63,3.49-16.52,8.33-24.14,13.63
		c-11.59,8.08-22.31,17.21-32.42,27.07c-0.32,0.31-0.65,0.6-1.24,1.14c0.34-2.62,0.55-4.93,0.94-7.2
		c1.98-11.59,5.14-22.83,9.77-33.65c6.43-15.01,15.15-28.48,27.15-39.67c11.81-11.01,25.55-18.61,41.03-23.12
		c13.78-4.02,27.87-5.49,42.17-4.93c7.01,0.27,14.04,0.66,21.01,1.45c11.97,1.36,23.73,3.9,35.32,7.23
		c17.49,5.03,34.24,11.87,50.37,20.26c16.55,8.61,32.21,18.61,46.9,30.11c2.82,2.21,5.52,4.56,8.28,6.84
		c0.31,0.26,0.64,0.51,1.07,0.87c-2.71,3.76-5.25,7.4-7.92,10.95c-8.67,11.5-18.15,22.29-28.38,32.43
		c-13.65,13.53-28.46,25.6-44.99,35.46c-14.84,8.85-30.57,15.54-47.55,19.04c-11.21,2.31-22.56,2.96-33.98,2.31
		c-5.6-0.32-11.21-0.43-16.79-0.93c-6.44-0.57-12.87-1.31-19.27-2.24c-9.6-1.39-19.09-3.4-28.45-5.99
		C197.4,372.07,188.27,368.97,179.23,364.62z"/>
	<path d="M144.56,270.89c-16.9-39.53-22.79-81.16-23.5-123.86c-1.01,3.68-2.18,7.32-3.01,11.04c-1.64,7.37-3.35,14.73-4.56,22.17
		c-1.5,9.16-2,18.42-1.69,27.72c0.76,23.02,6.5,44.97,14.06,66.55c1.04,2.96,2.14,5.9,2.99,9.12c-3.21-1.6-6.48-3.08-9.61-4.81
		c-9.86-5.45-18.77-12.16-26.63-20.26c-13.56-13.98-22.22-30.44-25.38-49.73c-1.43-8.71-1.61-17.43-0.84-26.22
		c1.42-16.15,5.97-31.42,12.5-46.16c7.98-18,18.37-34.55,30.73-49.84c5.36-6.64,11.19-12.89,16.81-19.33
		c0.33-0.38,0.62-0.8,1.05-1.34c2.09,2.45,4.02,4.66,5.87,6.92c8.72,10.65,16.78,21.79,23.97,33.53
		c7.73,12.61,14.44,25.72,19.1,39.8c2.86,8.64,4.62,17.5,5.38,26.58c1.6,19.1-1.51,37.45-8.74,55.12
		c-6.42,15.69-15.4,29.77-27.09,42.08c-0.31,0.33-0.53,0.75-0.79,1.13C144.98,271.04,144.77,270.96,144.56,270.89z"/>
</g>
</svg>
